<?xml version="1.0" encoding="UTF-8"?><svg id="Layer_2" xmlns="http://www.w3.org/2000/svg" viewBox="0 0 190.71 292.64"><defs><style>.cls-1{fill:#eac26b;}</style></defs><g id="_ÎÓÈ_1"><g><g><g><rect width="190.71" height="292.64" rx="11.28" ry="11.28"/><path class="cls-1" d="m22.95,44.66c-.69,0-2.11.84-3.46,1.46-.04.02-.08.03-.12.05.07-.17.15-.34.23-.52.62-1.35,1.4-2.82,1.4-3.51,0-1.33-1.08-2.42-2.42-2.42s-2.42,1.08-2.42,2.42c0,.69.84,2.11,1.46,3.46.1.21.18.41.26.61-.07-.03-.14-.06-.21-.09-1.35-.62-2.77-1.46-3.46-1.46-1.33,0-2.42,1.08-2.42,2.42s1.08,2.42,2.42,2.42c.69,0,2.15-.78,3.5-1.4.12-.05.23-.1.34-.15l-1,4.75h1.52s1.51,0,1.51,0l-1.02-4.76c.12.05.24.11.36.16,1.35.62,2.82,1.4,3.51,1.4,1.33,0,2.42-1.08,2.42-2.42s-1.08-2.42-2.42-2.42Z"/></g><g><path class="cls-1" d="m9.26,35.33h2.72v-16.02l-2.92,2.57-1.54-1.8,5.34-5.56h2.65v.03s0-.01,0-.01v20.79h2.71v2.68h-8.97v-2.68Z"/><path class="cls-1" d="m18.15,21.23c0-1.03.09-1.91.28-2.66.19-.75.44-1.38.74-1.88.31-.51.66-.92,1.07-1.23.4-.31.82-.55,1.24-.72.43-.17.85-.28,1.28-.34.43-.06.82-.08,1.18-.08.34,0,.72.03,1.13.08.42.05.84.16,1.27.32.43.16.84.39,1.24.7.4.31.75.72,1.06,1.23.31.51.55,1.15.74,1.9.19.75.28,1.65.28,2.7v9.93c0,1.03-.09,1.91-.28,2.66-.19.75-.44,1.38-.75,1.9-.31.52-.67.95-1.07,1.27-.4.33-.82.58-1.24.76-.42.18-.84.3-1.26.36-.42.06-.79.1-1.12.1-.37,0-.77-.03-1.2-.1-.43-.06-.86-.19-1.29-.36-.43-.18-.85-.43-1.24-.75-.4-.32-.75-.74-1.05-1.27-.3-.52-.55-1.16-.73-1.91-.18-.75-.27-1.64-.27-2.67v-9.93Zm3.64,11.43c0,.97.18,1.68.53,2.12.35.44.89.66,1.62.66s1.23-.22,1.58-.66c.35-.44.52-1.15.52-2.12v-12.72c0-1.03-.17-1.77-.52-2.24-.35-.47-.88-.7-1.58-.7s-1.26.23-1.62.7c-.35.47-.53,1.21-.53,2.24v12.72Z"/></g><path class="cls-1" d="m167.76,247.98c.69,0,2.11-.84,3.46-1.46.04-.02.08-.03.12-.05-.07.17-.15.34-.23.52-.62,1.35-1.4,2.82-1.4,3.51,0,1.33,1.08,2.42,2.42,2.42s2.42-1.08,2.42-2.42c0-.69-.84-2.11-1.46-3.46-.1-.21-.18-.41-.26-.61.07.03.14.06.21.09,1.35.62,2.77,1.46,3.46,1.46,1.33,0,2.42-1.08,2.42-2.42s-1.08-2.42-2.42-2.42c-.69,0-2.15.78-3.5,1.4-.12.05-.23.1-.34.15l1-4.75h-1.52s-1.51,0-1.51,0l1.02,4.76c-.12-.05-.24-.11-.36-.16-1.35-.62-2.82-1.4-3.51-1.4-1.33,0-2.42,1.08-2.42,2.42s1.08,2.42,2.42,2.42Z"/><g><path class="cls-1" d="m181.45,257.31h-2.72v16.02l2.92-2.57,1.54,1.8-5.34,5.56h-2.65v-.03s0,.01,0,.01v-20.79h-2.71v-2.68h8.97v2.68Z"/><path class="cls-1" d="m172.56,271.41c0,1.03-.09,1.91-.28,2.66-.19.75-.44,1.38-.74,1.88-.31.51-.66.92-1.07,1.23-.4.31-.82.55-1.24.72-.43.17-.85.28-1.28.34-.43.06-.82.08-1.18.08-.34,0-.72-.03-1.13-.08-.42-.05-.84-.16-1.27-.32-.43-.16-.84-.39-1.24-.7-.4-.31-.75-.72-1.06-1.23-.31-.51-.55-1.15-.74-1.9-.19-.75-.28-1.65-.28-2.7v-9.93c0-1.03.09-1.91.28-2.66.19-.75.44-1.38.75-1.9.31-.52.67-.95,1.07-1.27.4-.33.82-.58,1.24-.76.42-.18.84-.3,1.26-.36.42-.06.79-.1,1.12-.1.37,0,.77.03,1.2.1.43.06.86.19,1.29.36.43.18.85.43,1.24.75.4.32.75.74,1.05,1.27.3.52.55,1.16.73,1.91.18.75.27,1.64.27,2.67v9.93Zm-3.64-11.43c0-.97-.18-1.68-.53-2.12-.35-.44-.89-.66-1.62-.66s-1.23.22-1.58.66c-.35.44-.52,1.15-.52,2.12v12.72c0,1.03.17,1.77.52,2.24.35.47.88.7,1.58.7s1.26-.23,1.62-.7c.35-.47.53-1.21.53-2.24v-12.72Z"/></g></g><g><path class="cls-1" d="m69.57,42.68c-1.9,0-5.82,2.32-9.56,4.04-.11.05-.21.09-.32.14.21-.47.42-.95.64-1.44,1.72-3.74,3.86-7.79,3.86-9.69,0-3.69-2.99-6.68-6.68-6.68s-6.68,2.99-6.68,6.68c0,1.9,2.32,5.82,4.04,9.56.26.57.5,1.14.73,1.69-.2-.09-.39-.17-.59-.26-3.74-1.72-7.66-4.04-9.56-4.04-3.69,0-6.68,2.99-6.68,6.68s2.99,6.68,6.68,6.68c1.9,0,5.95-2.14,9.69-3.86.32-.15.64-.29.95-.43l-2.77,13.14h4.21s4.18,0,4.18,0l-2.83-13.16c.33.15.67.29,1.01.45,3.74,1.72,7.79,3.86,9.69,3.86,3.69,0,6.68-2.99,6.68-6.68s-2.99-6.68-6.68-6.68Z"/><path class="cls-1" d="m45.46,249.96c1.9,0,5.82-2.32,9.56-4.04.11-.05.21-.09.32-.14-.21.47-.42.95-.64,1.44-1.72,3.74-3.86,7.79-3.86,9.69,0,3.69,2.99,6.68,6.68,6.68s6.68-2.99,6.68-6.68c0-1.9-2.32-5.82-4.04-9.56-.26-.57-.5-1.14-.73-1.69.2.09.39.17.59.26,3.74,1.72,7.66,4.04,9.56,4.04,3.69,0,6.68-2.99,6.68-6.68s-2.99-6.68-6.68-6.68c-1.9,0-5.95,2.14-9.69,3.86-.32.15-.64.29-.95.43l2.77-13.14h-4.21s-4.18,0-4.18,0l2.83,13.16c-.33-.15-.67-.29-1.01-.45-3.74-1.72-7.79-3.86-9.69-3.86-3.69,0-6.68,2.99-6.68,6.68s2.99,6.68,6.68,6.68Z"/><path class="cls-1" d="m145.25,42.68c-1.9,0-5.82,2.32-9.56,4.04-.11.05-.21.09-.32.14.21-.47.42-.95.64-1.44,1.72-3.74,3.86-7.79,3.86-9.69,0-3.69-2.99-6.68-6.68-6.68s-6.68,2.99-6.68,6.68c0,1.9,2.32,5.82,4.04,9.56.26.57.5,1.14.73,1.69-.2-.09-.39-.17-.59-.26-3.74-1.72-7.66-4.04-9.56-4.04-3.69,0-6.68,2.99-6.68,6.68s2.99,6.68,6.68,6.68c1.9,0,5.95-2.14,9.69-3.86.32-.15.64-.29.95-.43l-2.77,13.14h4.21s4.18,0,4.18,0l-2.83-13.16c.33.15.67.29,1.01.45,3.74,1.72,7.79,3.86,9.69,3.86,3.69,0,6.68-2.99,6.68-6.68s-2.99-6.68-6.68-6.68Z"/><path class="cls-1" d="m69.57,108.91c-1.9,0-5.82,2.32-9.56,4.04-.11.05-.21.09-.32.14.21-.47.42-.95.64-1.44,1.72-3.74,3.86-7.79,3.86-9.69,0-3.69-2.99-6.68-6.68-6.68s-6.68,2.99-6.68,6.68c0,1.9,2.32,5.82,4.04,9.56.26.57.5,1.14.73,1.69-.2-.09-.39-.17-.59-.26-3.74-1.72-7.66-4.04-9.56-4.04-3.69,0-6.68,2.99-6.68,6.68s2.99,6.68,6.68,6.68c1.9,0,5.95-2.14,9.69-3.86.32-.15.64-.29.95-.43l-2.77,13.14h4.21s4.18,0,4.18,0l-2.83-13.16c.33.15.67.29,1.01.45,3.74,1.72,7.79,3.86,9.69,3.86,3.69,0,6.68-2.99,6.68-6.68s-2.99-6.68-6.68-6.68Z"/><path class="cls-1" d="m145.25,108.91c-1.9,0-5.82,2.32-9.56,4.04-.11.05-.21.09-.32.14.21-.47.42-.95.64-1.44,1.72-3.74,3.86-7.79,3.86-9.69,0-3.69-2.99-6.68-6.68-6.68s-6.68,2.99-6.68,6.68c0,1.9,2.32,5.82,4.04,9.56.26.57.5,1.14.73,1.69-.2-.09-.39-.17-.59-.26-3.74-1.72-7.66-4.04-9.56-4.04-3.69,0-6.68,2.99-6.68,6.68s2.99,6.68,6.68,6.68c1.9,0,5.95-2.14,9.69-3.86.32-.15.64-.29.95-.43l-2.77,13.14h4.21s4.18,0,4.18,0l-2.83-13.16c.33.15.67.29,1.01.45,3.74,1.72,7.79,3.86,9.69,3.86,3.69,0,6.68-2.99,6.68-6.68s-2.99-6.68-6.68-6.68Z"/><path class="cls-1" d="m121.14,249.96c1.9,0,5.82-2.32,9.56-4.04.11-.05.21-.09.32-.14-.21.47-.42.95-.64,1.44-1.72,3.74-3.86,7.79-3.86,9.69,0,3.69,2.99,6.68,6.68,6.68s6.68-2.99,6.68-6.68c0-1.9-2.32-5.82-4.04-9.56-.26-.57-.5-1.14-.73-1.69.2.09.39.17.59.26,3.74,1.72,7.66,4.04,9.56,4.04,3.69,0,6.68-2.99,6.68-6.68s-2.99-6.68-6.68-6.68c-1.9,0-5.95,2.14-9.69,3.86-.32.15-.64.29-.95.43l2.77-13.14h-4.21s-4.18,0-4.18,0l2.83,13.16c-.33-.15-.67-.29-1.01-.45-3.74-1.72-7.79-3.86-9.69-3.86-3.69,0-6.68,2.99-6.68,6.68s2.99,6.68,6.68,6.68Z"/><path class="cls-1" d="m107.41,75.79c-1.9,0-5.82,2.32-9.56,4.04-.11.05-.21.09-.32.14.21-.47.42-.95.64-1.44,1.72-3.74,3.86-7.79,3.86-9.69,0-3.69-2.99-6.68-6.68-6.68s-6.68,2.99-6.68,6.68c0,1.9,2.32,5.82,4.04,9.56.26.57.5,1.14.73,1.69-.2-.09-.39-.17-.59-.26-3.74-1.72-7.66-4.04-9.56-4.04-3.69,0-6.68,2.99-6.68,6.68s2.99,6.68,6.68,6.68c1.9,0,5.95-2.14,9.69-3.86.32-.15.64-.29.95-.43l-2.77,13.14h4.21s4.18,0,4.18,0l-2.83-13.16c.33.15.67.29,1.01.45,3.74,1.72,7.79,3.86,9.69,3.86,3.69,0,6.68-2.99,6.68-6.68s-2.99-6.68-6.68-6.68Z"/><path class="cls-1" d="m45.46,183.73c1.9,0,5.82-2.32,9.56-4.04.11-.05.21-.09.32-.14-.21.47-.42.95-.64,1.44-1.72,3.74-3.86,7.79-3.86,9.69,0,3.69,2.99,6.68,6.68,6.68s6.68-2.99,6.68-6.68c0-1.9-2.32-5.82-4.04-9.56-.26-.57-.5-1.14-.73-1.69.2.09.39.17.59.26,3.74,1.72,7.66,4.04,9.56,4.04,3.69,0,6.68-2.99,6.68-6.68s-2.99-6.68-6.68-6.68c-1.9,0-5.95,2.14-9.69,3.86-.32.15-.64.29-.95.43l2.77-13.14h-4.21s-4.18,0-4.18,0l2.83,13.16c-.33-.15-.67-.29-1.01-.45-3.74-1.72-7.79-3.86-9.69-3.86-3.69,0-6.68,2.99-6.68,6.68s2.99,6.68,6.68,6.68Z"/><path class="cls-1" d="m121.14,183.73c1.9,0,5.82-2.32,9.56-4.04.11-.05.21-.09.32-.14-.21.47-.42.95-.64,1.44-1.72,3.74-3.86,7.79-3.86,9.69,0,3.69,2.99,6.68,6.68,6.68s6.68-2.99,6.68-6.68c0-1.9-2.32-5.82-4.04-9.56-.26-.57-.5-1.14-.73-1.69.2.09.39.17.59.26,3.74,1.72,7.66,4.04,9.56,4.04,3.69,0,6.68-2.99,6.68-6.68s-2.99-6.68-6.68-6.68c-1.9,0-5.95,2.14-9.69,3.86-.32.15-.64.29-.95.43l2.77-13.14h-4.21s-4.18,0-4.18,0l2.83,13.16c-.33-.15-.67-.29-1.01-.45-3.74-1.72-7.79-3.86-9.69-3.86-3.69,0-6.68,2.99-6.68,6.68s2.99,6.68,6.68,6.68Z"/><path class="cls-1" d="m83.3,216.85c1.9,0,5.82-2.32,9.56-4.04.11-.05.21-.09.32-.14-.21.47-.42.95-.64,1.44-1.72,3.74-3.86,7.79-3.86,9.69,0,3.69,2.99,6.68,6.68,6.68s6.68-2.99,6.68-6.68c0-1.9-2.32-5.82-4.04-9.56-.26-.57-.5-1.14-.73-1.69.2.09.39.17.59.26,3.74,1.72,7.66,4.04,9.56,4.04,3.69,0,6.68-2.99,6.68-6.68s-2.99-6.68-6.68-6.68c-1.9,0-5.95,2.14-9.69,3.86-.32.15-.64.29-.95.43l2.77-13.14h-4.21s-4.18,0-4.18,0l2.83,13.16c-.33-.15-.67-.29-1.01-.45-3.74-1.72-7.79-3.86-9.69-3.86-3.69,0-6.68,2.99-6.68,6.68s2.99,6.68,6.68,6.68Z"/></g></g></g></svg>