<?xml version="1.0" encoding="UTF-8"?><svg id="Layer_2" xmlns="http://www.w3.org/2000/svg" viewBox="0 0 190.71 292.64"><defs><style>.cls-1{fill:#eac26b;}</style></defs><g id="_ÎÓÈ_1"><g><g><g><rect width="190.71" height="292.64" rx="11.28" ry="11.28"/><g><path class="cls-1" d="m9.26,35.33h2.72v-16.02l-2.92,2.57-1.54-1.8,5.34-5.56h2.65v.03s0-.01,0-.01v20.79h2.71v2.68h-8.97v-2.68Z"/><path class="cls-1" d="m18.15,21.23c0-1.03.09-1.91.28-2.66.19-.75.44-1.38.74-1.88.31-.51.66-.92,1.07-1.23.4-.31.82-.55,1.24-.72.43-.17.85-.28,1.28-.34.43-.06.82-.08,1.18-.08s.72.03,1.13.08c.42.05.84.16,1.27.32.43.16.84.39,1.24.7.4.31.75.72,1.06,1.23s.55,1.15.74,1.9c.19.75.28,1.65.28,2.7v9.93c0,1.03-.09,1.91-.28,2.66-.19.75-.44,1.38-.75,1.9-.31.52-.67.95-1.07,1.27-.4.33-.82.58-1.24.76s-.84.3-1.26.36c-.42.06-.79.1-1.12.1-.37,0-.77-.03-1.2-.1s-.86-.19-1.29-.36-.85-.43-1.24-.75c-.4-.32-.75-.74-1.05-1.27-.3-.52-.55-1.16-.73-1.91-.18-.75-.27-1.64-.27-2.67v-9.93Zm3.64,11.43c0,.97.18,1.68.53,2.12s.89.66,1.62.66,1.23-.22,1.58-.66c.35-.44.52-1.15.52-2.12v-12.72c0-1.03-.17-1.77-.52-2.24-.35-.47-.88-.7-1.58-.7s-1.26.23-1.62.7c-.35.47-.53,1.21-.53,2.24v12.72Z"/></g><g><path class="cls-1" d="m181.45,257.31h-2.72v16.02l2.92-2.57,1.54,1.8-5.34,5.56h-2.65v-.03s0,.01,0,.01v-20.79h-2.71v-2.68h8.97v2.68Z"/><path class="cls-1" d="m172.56,271.41c0,1.03-.09,1.91-.28,2.66-.19.75-.44,1.38-.74,1.88-.31.51-.66.92-1.07,1.23-.4.31-.82.55-1.24.72-.43.17-.85.28-1.28.34-.43.06-.82.08-1.18.08s-.72-.03-1.13-.08c-.42-.05-.84-.16-1.27-.32-.43-.16-.84-.39-1.24-.7-.4-.31-.75-.72-1.06-1.23s-.55-1.15-.74-1.9c-.19-.75-.28-1.65-.28-2.7v-9.93c0-1.03.09-1.91.28-2.66.19-.75.44-1.38.75-1.9.31-.52.67-.95,1.07-1.27.4-.33.82-.58,1.24-.76s.84-.3,1.26-.36c.42-.06.79-.1,1.12-.1.37,0,.77.03,1.2.1s.86.19,1.29.36.85.43,1.24.75c.4.32.75.74,1.05,1.27.3.52.55,1.16.73,1.91.18.75.27,1.64.27,2.67v9.93Zm-3.64-11.43c0-.97-.18-1.68-.53-2.12s-.89-.66-1.62-.66-1.23.22-1.58.66c-.35.44-.52,1.15-.52,2.12v12.72c0,1.03.17,1.77.52,2.24.35.47.88.7,1.58.7s1.26-.23,1.62-.7c.35-.47.53-1.21.53-2.24v-12.72Z"/></g></g><g><path class="cls-1" d="m24.34,45.96c-1.27-2.8-5.75-6.23-5.75-6.23,0,0-4.48,3.43-5.75,6.23-1.11,2.44-.76,5.63,2.77,5.16,1.17-.15,2.02-.93,2.51-1.51l-.86,3.09h1.33s1.32,0,1.32,0l-.9-3.14c.48.58,1.35,1.41,2.56,1.57,3.53.47,3.88-2.72,2.77-5.16Z"/><path class="cls-1" d="m166.37,246.68c1.27,2.8,5.75,6.23,5.75,6.23,0,0,4.48-3.43,5.75-6.23,1.11-2.44.76-5.63-2.77-5.16-1.17.15-2.02.93-2.51,1.51l.86-3.09h-1.33s-1.32,0-1.32,0l.9,3.14c-.48-.58-1.35-1.41-2.56-1.57-3.53-.47-3.88,2.72-2.77,5.16Z"/></g></g><g><g><path class="cls-1" d="m73.4,46.26c-3.51-7.75-15.89-17.21-15.89-17.21,0,0-12.38,9.47-15.89,17.21-3.06,6.75-2.09,15.56,7.65,14.27,3.23-.43,5.59-2.58,6.94-4.19l-2.38,8.53h3.68s3.64,0,3.64,0l-2.47-8.69c1.32,1.62,3.74,3.9,7.07,4.34,9.75,1.29,10.71-7.53,7.65-14.27Z"/><path class="cls-1" d="m111.24,79.38c-3.51-7.75-15.89-17.21-15.89-17.21,0,0-12.38,9.47-15.89,17.21-3.06,6.75-2.09,15.56,7.65,14.27,3.23-.43,5.59-2.58,6.94-4.19l-2.38,8.53h3.68s3.64,0,3.64,0l-2.47-8.69c1.32,1.62,3.74,3.9,7.07,4.34,9.75,1.29,10.71-7.53,7.65-14.27Z"/><path class="cls-1" d="m41.62,180.14c3.51,7.75,15.89,17.21,15.89,17.21,0,0,12.38-9.47,15.89-17.21,3.06-6.75,2.09-15.56-7.65-14.27-3.23.43-5.59,2.58-6.94,4.19l2.38-8.53h-3.68s-3.64,0-3.64,0l2.47,8.69c-1.32-1.62-3.74-3.9-7.07-4.34-9.75-1.29-10.71,7.53-7.65,14.27Z"/><path class="cls-1" d="m117.31,180.14c3.51,7.75,15.89,17.21,15.89,17.21,0,0,12.38-9.47,15.89-17.21,3.06-6.75,2.09-15.56-7.65-14.27-3.23.43-5.59,2.58-6.94,4.19l2.38-8.53h-3.68s-3.64,0-3.64,0l2.47,8.69c-1.32-1.62-3.74-3.9-7.07-4.34-9.75-1.29-10.71,7.53-7.65,14.27Z"/><path class="cls-1" d="m79.46,213.26c3.51,7.75,15.89,17.21,15.89,17.21,0,0,12.38-9.47,15.89-17.21,3.06-6.75,2.09-15.56-7.65-14.27-3.23.43-5.59,2.58-6.94,4.19l2.38-8.53h-3.68s-3.64,0-3.64,0l2.47,8.69c-1.32-1.62-3.74-3.9-7.07-4.34-9.75-1.29-10.71,7.53-7.65,14.27Z"/><path class="cls-1" d="m41.62,246.38c3.51,7.75,15.89,17.21,15.89,17.21,0,0,12.38-9.47,15.89-17.21,3.06-6.75,2.09-15.56-7.65-14.27-3.23.43-5.59,2.58-6.94,4.19l2.38-8.53h-3.68s-3.64,0-3.64,0l2.47,8.69c-1.32-1.62-3.74-3.9-7.07-4.34-9.75-1.29-10.71,7.53-7.65,14.27Z"/></g><g><path class="cls-1" d="m149.09,46.26c-3.51-7.75-15.89-17.21-15.89-17.21,0,0-12.38,9.47-15.89,17.21-3.06,6.75-2.09,15.56,7.65,14.27,3.22-.43,5.59-2.58,6.94-4.19l-2.38,8.53h3.68s3.64,0,3.64,0l-2.47-8.69c1.32,1.62,3.74,3.9,7.07,4.34,9.75,1.29,10.71-7.53,7.65-14.27Z"/><path class="cls-1" d="m73.4,112.5c-3.51-7.75-15.89-17.21-15.89-17.21,0,0-12.38,9.47-15.89,17.21-3.06,6.75-2.09,15.56,7.65,14.27,3.23-.43,5.59-2.58,6.94-4.19l-2.38,8.53h3.68s3.64,0,3.64,0l-2.47-8.69c1.32,1.62,3.74,3.9,7.07,4.34,9.75,1.29,10.71-7.53,7.65-14.27Z"/><path class="cls-1" d="m149.09,112.5c-3.51-7.75-15.89-17.21-15.89-17.21,0,0-12.38,9.47-15.89,17.21-3.06,6.75-2.09,15.56,7.65,14.27,3.22-.43,5.59-2.58,6.94-4.19l-2.38,8.53h3.68s3.64,0,3.64,0l-2.47-8.69c1.32,1.62,3.74,3.9,7.07,4.34,9.75,1.29,10.71-7.53,7.65-14.27Z"/><path class="cls-1" d="m117.31,246.38c3.51,7.75,15.89,17.21,15.89,17.21,0,0,12.38-9.47,15.89-17.21,3.06-6.75,2.09-15.56-7.65-14.27-3.23.43-5.59,2.58-6.94,4.19l2.38-8.53h-3.68s-3.64,0-3.64,0l2.47,8.69c-1.32-1.62-3.74-3.9-7.07-4.34-9.75-1.29-10.71,7.53-7.65,14.27Z"/></g></g></g></g></svg>