<?xml version="1.0" encoding="UTF-8"?><svg id="Layer_2" xmlns="http://www.w3.org/2000/svg" viewBox="0 0 190.71 292.64"><defs><style>.cls-1{fill:#eac26b;}</style></defs><g id="_ÎÓÈ_1"><g><g><g><rect width="190.71" height="292.64" rx="11.28" ry="11.28" transform="translate(190.71 292.64) rotate(180)"/><path class="cls-1" d="m22.95,44.66c-.69,0-2.11.84-3.46,1.46-.04.02-.08.03-.12.05.07-.17.15-.34.23-.52.62-1.35,1.4-2.82,1.4-3.51,0-1.33-1.08-2.42-2.42-2.42s-2.42,1.08-2.42,2.42c0,.69.84,2.11,1.46,3.46.1.21.18.41.26.61-.07-.03-.14-.06-.21-.09-1.35-.62-2.77-1.46-3.46-1.46-1.33,0-2.42,1.08-2.42,2.42s1.08,2.42,2.42,2.42c.69,0,2.15-.78,3.5-1.4.12-.05.23-.1.34-.15l-1,4.75h1.52s1.51,0,1.51,0l-1.02-4.76c.12.05.24.11.36.16,1.35.62,2.82,1.4,3.5,1.4,1.33,0,2.42-1.08,2.42-2.42s-1.08-2.42-2.42-2.42Z"/></g><path class="cls-1" d="m12.97,35.92l5.18-9.98c.48-.91.86-1.7,1.16-2.38.3-.68.53-1.27.7-1.78.17-.51.29-.95.35-1.33.06-.38.1-.72.1-1.02,0-.48-.04-.88-.13-1.2-.09-.33-.22-.59-.39-.78-.17-.2-.38-.34-.63-.42-.25-.08-.54-.12-.87-.12-.81,0-1.39.33-1.75,1s-.54,1.62-.54,2.87v1.33h-2.75c-.1-.51-.19-.98-.26-1.41-.07-.43-.11-.89-.11-1.4,0-.6.1-1.19.31-1.78.21-.59.53-1.13.97-1.6s1-.86,1.68-1.16c.68-.29,1.5-.44,2.45-.44,1.03,0,1.9.12,2.63.36.73.24,1.33.59,1.79,1.05s.81,1.02,1.02,1.68c.22.66.32,1.41.32,2.24,0,.48-.04.95-.13,1.41-.09.46-.23.96-.43,1.49s-.46,1.1-.78,1.73c-.32.62-.72,1.34-1.18,2.15l-4.63,8.8h6.86v2.81h-10.95v-2.09Z"/><path class="cls-1" d="m167.76,247.98c.69,0,2.11-.84,3.46-1.46.04-.02.08-.03.12-.05-.07.17-.15.34-.23.52-.62,1.35-1.4,2.82-1.4,3.51,0,1.33,1.08,2.42,2.42,2.42s2.42-1.08,2.42-2.42c0-.69-.84-2.11-1.46-3.46-.1-.21-.18-.41-.26-.61.07.03.14.06.21.09,1.35.62,2.77,1.46,3.46,1.46,1.33,0,2.42-1.08,2.42-2.42s-1.08-2.42-2.42-2.42c-.69,0-2.15.78-3.5,1.4-.12.05-.23.1-.34.15l1-4.75h-1.52s-1.51,0-1.51,0l1.02,4.76c-.12-.05-.24-.11-.36-.16-1.35-.62-2.82-1.4-3.5-1.4-1.33,0-2.42,1.08-2.42,2.42s1.08,2.42,2.42,2.42Z"/><path class="cls-1" d="m177.74,256.72l-5.18,9.98c-.48.91-.86,1.7-1.16,2.38-.3.68-.53,1.27-.7,1.78-.17.51-.29.95-.35,1.33-.06.38-.1.72-.1,1.02,0,.48.04.88.13,1.2.09.33.22.59.39.78.17.2.38.34.63.42.25.08.54.12.87.12.81,0,1.39-.33,1.75-1,.36-.66.54-1.62.54-2.87v-1.33h2.75c.1.51.19.98.26,1.41.07.43.11.89.11,1.4,0,.6-.1,1.19-.31,1.78-.21.59-.53,1.13-.97,1.6-.44.48-1,.86-1.68,1.16-.68.29-1.5.44-2.45.44-1.03,0-1.9-.12-2.63-.36-.73-.24-1.33-.59-1.79-1.05s-.81-1.02-1.02-1.68c-.22-.66-.32-1.41-.32-2.24,0-.48.04-.95.13-1.41.09-.46.23-.96.43-1.49s.46-1.1.78-1.73c.32-.62.72-1.34,1.18-2.15l4.63-8.8h-6.86v-2.81h10.95v2.09Z"/></g><g><path class="cls-1" d="m107.41,42.68c-1.9,0-5.82,2.32-9.56,4.04-.11.05-.21.09-.32.14.21-.47.42-.95.64-1.44,1.72-3.74,3.86-7.79,3.86-9.69,0-3.69-2.99-6.68-6.68-6.68s-6.68,2.99-6.68,6.68c0,1.9,2.32,5.82,4.04,9.56.26.57.5,1.14.73,1.69-.2-.09-.39-.17-.59-.26-3.74-1.72-7.66-4.04-9.56-4.04-3.69,0-6.68,2.99-6.68,6.68s2.99,6.68,6.68,6.68c1.9,0,5.95-2.14,9.69-3.86.32-.15.64-.29.95-.43l-2.77,13.14h4.21s4.18,0,4.18,0l-2.83-13.16c.33.15.67.29,1.01.45,3.74,1.72,7.79,3.86,9.69,3.86,3.69,0,6.68-2.99,6.68-6.68s-2.99-6.68-6.68-6.68Z"/><path class="cls-1" d="m83.3,249.96c1.9,0,5.82-2.32,9.56-4.04.11-.05.21-.09.32-.14-.21.47-.42.95-.64,1.44-1.72,3.74-3.86,7.79-3.86,9.69,0,3.69,2.99,6.68,6.68,6.68s6.68-2.99,6.68-6.68c0-1.9-2.32-5.82-4.04-9.56-.26-.57-.5-1.14-.73-1.69.2.09.39.17.59.26,3.74,1.72,7.66,4.04,9.56,4.04,3.69,0,6.68-2.99,6.68-6.68s-2.99-6.68-6.68-6.68c-1.9,0-5.95,2.14-9.69,3.86-.32.15-.64.29-.95.43l2.77-13.14h-4.21s-4.18,0-4.18,0l2.83,13.16c-.33-.15-.67-.29-1.01-.45-3.74-1.72-7.79-3.86-9.69-3.86-3.69,0-6.68,2.99-6.68,6.68s2.99,6.68,6.68,6.68Z"/></g></g></g></svg>