<?xml version="1.0" encoding="UTF-8"?><svg id="Layer_2" xmlns="http://www.w3.org/2000/svg" viewBox="0 0 190.71 292.64"><defs><style>.cls-1{fill:#b4171e;}</style></defs><g id="_ÎÓÈ_1"><g><g><rect width="190.71" height="292.64" rx="11.28" ry="11.28" transform="translate(190.71 292.64) rotate(180)"/><path class="cls-1" d="m12.97,35.92l5.18-9.98c.48-.91.86-1.7,1.16-2.38.3-.68.53-1.27.7-1.78.17-.51.29-.95.35-1.33.06-.38.1-.72.1-1.02,0-.48-.04-.88-.13-1.2-.09-.33-.22-.59-.39-.78-.17-.2-.38-.34-.63-.42-.25-.08-.54-.12-.87-.12-.81,0-1.39.33-1.75,1-.36.66-.54,1.62-.54,2.87v1.33h-2.75c-.1-.51-.19-.98-.26-1.41s-.11-.89-.11-1.4c0-.6.1-1.19.31-1.78.21-.59.53-1.13.97-1.6.44-.48,1-.86,1.68-1.16.68-.29,1.5-.44,2.45-.44,1.03,0,1.9.12,2.63.36.73.24,1.33.59,1.79,1.05.47.46.81,1.02,1.02,1.68.22.66.32,1.41.32,2.24,0,.48-.04.95-.13,1.41-.09.46-.23.96-.43,1.49-.2.53-.46,1.1-.78,1.73s-.72,1.34-1.18,2.15l-4.63,8.8h6.86v2.81h-10.95v-2.09Z"/><path class="cls-1" d="m177.74,256.72l-5.18,9.98c-.48.91-.86,1.7-1.16,2.38-.3.68-.53,1.27-.7,1.78-.17.51-.29.95-.35,1.33-.06.38-.1.72-.1,1.02,0,.48.04.88.13,1.2.09.33.22.59.39.78.17.2.38.34.63.42.25.08.54.12.87.12.81,0,1.39-.33,1.75-1,.36-.66.54-1.62.54-2.87v-1.33h2.75c.1.51.19.98.26,1.41s.11.89.11,1.4c0,.6-.1,1.19-.31,1.78-.21.59-.53,1.13-.97,1.6-.44.48-1,.86-1.68,1.16-.68.29-1.5.44-2.45.44-1.03,0-1.9-.12-2.63-.36-.73-.24-1.33-.59-1.79-1.05-.47-.46-.81-1.02-1.02-1.68-.22-.66-.32-1.41-.32-2.24,0-.48.04-.95.13-1.41.09-.46.23-.96.43-1.49.2-.53.46-1.1.78-1.73.32-.62.72-1.34,1.18-2.15l4.63-8.8h-6.86v-2.81h10.95v2.09Z"/></g><g><path class="cls-1" d="m21.57,40.56c-1.9.25-2.98,2.16-2.98,2.16,0,0-1.08-1.91-2.98-2.16-3.53-.47-3.88,2.71-2.77,5.15,1.27,2.79,5.75,6.21,5.75,6.21,0,0,4.48-3.41,5.75-6.21,1.11-2.43.76-5.61-2.77-5.15Z"/><path class="cls-1" d="m169.14,252.08c1.9-.25,2.98-2.16,2.98-2.16,0,0,1.08,1.91,2.98,2.16,3.53.47,3.88-2.71,2.77-5.15-1.27-2.79-5.75-6.21-5.75-6.21,0,0-4.48,3.41-5.75,6.21-1.11,2.43-.76,5.61,2.77,5.15Z"/></g><g><path class="cls-1" d="m103.59,31.34c-5.26.69-8.24,5.97-8.24,5.97,0,0-2.98-5.27-8.24-5.97-9.75-1.29-10.71,7.5-7.65,14.22,3.51,7.72,15.89,17.16,15.89,17.16,0,0,12.38-9.44,15.89-17.16,3.06-6.72,2.09-15.51-7.65-14.22Z"/><path class="cls-1" d="m87.12,261.3c5.26-.69,8.24-5.97,8.24-5.97,0,0,2.98,5.27,8.24,5.97,9.75,1.29,10.71-7.5,7.65-14.22-3.51-7.72-15.89-17.16-15.89-17.16,0,0-12.38,9.44-15.89,17.16-3.06,6.72-2.09,15.51,7.65,14.22Z"/></g></g></g></svg>