<?xml version="1.0" encoding="UTF-8"?><svg id="Layer_2" xmlns="http://www.w3.org/2000/svg" viewBox="0 0 190.71 292.64"><defs><style>.cls-1{fill:#eac26b;}</style></defs><g id="_ÎÓÈ_1"><g><g><rect width="190.71" height="292.64" rx="11.28" ry="11.28"/><g><path class="cls-1" d="m22.95,44.66c-.69,0-2.11.84-3.46,1.46-.04.02-.08.03-.12.05.07-.17.15-.34.23-.52.62-1.35,1.4-2.82,1.4-3.51,0-1.33-1.08-2.42-2.42-2.42s-2.42,1.08-2.42,2.42c0,.69.84,2.11,1.46,3.46.1.21.18.41.26.61-.07-.03-.14-.06-.21-.09-1.35-.62-2.77-1.46-3.46-1.46-1.33,0-2.42,1.08-2.42,2.42s1.08,2.42,2.42,2.42c.69,0,2.15-.78,3.5-1.4.12-.05.23-.1.34-.15l-1,4.75h1.52s1.51,0,1.51,0l-1.02-4.76c.12.05.24.11.36.16,1.35.62,2.82,1.4,3.5,1.4,1.33,0,2.42-1.08,2.42-2.42s-1.08-2.42-2.42-2.42Z"/><path class="cls-1" d="m12.93,33.22c0-.39.03-.83.08-1.3.05-.47.14-.96.26-1.46h2.78v1.2c0,.73.06,1.35.19,1.84.12.49.29.89.5,1.2.21.3.46.52.76.65.29.13.61.19.96.19s.65-.05.92-.14c.27-.1.51-.25.7-.47.19-.22.34-.5.44-.85.1-.34.15-.76.15-1.26v-2.6c0-.5-.04-.94-.13-1.32-.09-.39-.23-.71-.42-.97-.19-.26-.44-.46-.76-.6s-.7-.21-1.16-.21h-1.5v-2.54h1.5c.29,0,.57-.05.83-.14.26-.1.48-.25.67-.47s.34-.49.45-.83c.11-.34.17-.75.17-1.24v-2.46c0-.87-.17-1.51-.51-1.92-.34-.41-.84-.61-1.51-.61-.74,0-1.31.33-1.71,1-.4.66-.6,1.62-.6,2.87v1.33h-2.75c-.1-.46-.19-.91-.26-1.37s-.11-.93-.11-1.44c0-.6.11-1.19.33-1.78.22-.59.55-1.13,1-1.6.44-.48,1.01-.86,1.69-1.16.68-.29,1.49-.44,2.41-.44,1,0,1.86.11,2.57.34.72.23,1.3.57,1.75,1.01.45.44.79.99,1,1.64s.32,1.38.32,2.21v1.44c0,.67-.08,1.26-.25,1.78-.17.52-.39.97-.66,1.35-.27.39-.58.71-.92.98s-.69.49-1.05.65v.11c.46.16.88.36,1.28.61.39.25.74.58,1.02.97.29.39.52.87.68,1.43.16.56.25,1.22.25,1.99v1.55c0,1.08-.16,1.99-.47,2.74-.31.74-.73,1.34-1.27,1.79-.53.45-1.15.78-1.86.98-.71.2-1.46.3-2.25.3-1.8,0-3.17-.44-4.11-1.31-.94-.87-1.42-2.1-1.42-3.69Z"/><path class="cls-1" d="m167.76,247.98c.69,0,2.11-.84,3.46-1.46.04-.02.08-.03.12-.05-.07.17-.15.34-.23.52-.62,1.35-1.4,2.82-1.4,3.51,0,1.33,1.08,2.42,2.42,2.42s2.42-1.08,2.42-2.42c0-.69-.84-2.11-1.46-3.46-.1-.21-.18-.41-.26-.61.07.03.14.06.21.09,1.35.62,2.77,1.46,3.46,1.46,1.33,0,2.42-1.08,2.42-2.42s-1.08-2.42-2.42-2.42c-.69,0-2.15.78-3.5,1.4-.12.05-.23.1-.34.15l1-4.75h-1.52s-1.51,0-1.51,0l1.02,4.76c-.12-.05-.24-.11-.36-.16-1.35-.62-2.82-1.4-3.5-1.4-1.33,0-2.42,1.08-2.42,2.42s1.08,2.42,2.42,2.42Z"/><path class="cls-1" d="m177.78,259.42c0,.39-.03.83-.08,1.3-.05.47-.14.96-.26,1.46h-2.78v-1.2c0-.73-.06-1.35-.19-1.84-.12-.49-.29-.89-.5-1.2-.21-.3-.46-.52-.76-.65-.29-.13-.61-.19-.96-.19s-.65.05-.92.14c-.27.1-.51.25-.7.47s-.34.5-.44.85c-.1.34-.15.76-.15,1.26v2.6c0,.5.04.94.13,1.32.09.39.23.71.42.97.19.26.44.46.76.6.31.14.7.21,1.16.21h1.5v2.54h-1.5c-.29,0-.57.05-.82.14-.26.1-.48.25-.67.47s-.34.49-.45.83c-.11.34-.17.75-.17,1.24v2.46c0,.87.17,1.51.51,1.92.34.41.84.61,1.51.61.74,0,1.31-.33,1.71-1,.4-.66.6-1.62.6-2.87v-1.33h2.75c.1.46.19.91.26,1.37.07.45.11.93.11,1.44,0,.6-.11,1.19-.33,1.78-.22.59-.55,1.13-1,1.6-.44.48-1.01.86-1.69,1.16-.68.29-1.49.44-2.41.44-1,0-1.86-.11-2.57-.34-.72-.23-1.3-.57-1.75-1.01-.45-.44-.79-.99-1-1.64-.22-.65-.32-1.38-.32-2.21v-1.44c0-.67.08-1.26.25-1.78s.39-.97.66-1.35.58-.71.92-.98c.34-.27.69-.49,1.05-.65v-.11c-.46-.16-.88-.36-1.28-.61-.39-.25-.74-.58-1.02-.97-.29-.39-.52-.87-.68-1.43-.17-.56-.25-1.22-.25-1.99v-1.55c0-1.08.16-1.99.47-2.74.31-.74.73-1.34,1.27-1.79.53-.45,1.15-.78,1.86-.98s1.46-.3,2.25-.3c1.8,0,3.17.44,4.11,1.31.94.87,1.42,2.1,1.42,3.69Z"/></g></g><g><path class="cls-1" d="m107.41,42.68c-1.9,0-5.82,2.32-9.56,4.04-.11.05-.21.09-.32.14.21-.47.42-.95.64-1.44,1.72-3.74,3.86-7.79,3.86-9.69,0-3.69-2.99-6.68-6.68-6.68s-6.68,2.99-6.68,6.68c0,1.9,2.32,5.82,4.04,9.56.26.57.5,1.14.73,1.69-.2-.09-.39-.17-.59-.26-3.74-1.72-7.66-4.04-9.56-4.04-3.69,0-6.68,2.99-6.68,6.68s2.99,6.68,6.68,6.68c1.9,0,5.95-2.14,9.69-3.86.32-.15.64-.29.95-.43l-2.77,13.14h4.21s4.18,0,4.18,0l-2.83-13.16c.33.15.67.29,1.01.45,3.74,1.72,7.79,3.86,9.69,3.86,3.69,0,6.68-2.99,6.68-6.68s-2.99-6.68-6.68-6.68Z"/><path class="cls-1" d="m107.41,142.03c-1.9,0-5.82,2.32-9.56,4.04-.11.05-.21.09-.32.14.21-.47.42-.95.64-1.44,1.72-3.74,3.86-7.79,3.86-9.69,0-3.69-2.99-6.68-6.68-6.68s-6.68,2.99-6.68,6.68c0,1.9,2.32,5.82,4.04,9.56.26.57.5,1.14.73,1.69-.2-.09-.39-.17-.59-.26-3.74-1.72-7.66-4.04-9.56-4.04-3.69,0-6.68,2.99-6.68,6.68s2.99,6.68,6.68,6.68c1.9,0,5.95-2.14,9.69-3.86.32-.15.64-.29.95-.43l-2.77,13.14h4.21s4.18,0,4.18,0l-2.83-13.16c.33.15.67.29,1.01.45,3.74,1.72,7.79,3.86,9.69,3.86,3.69,0,6.68-2.99,6.68-6.68s-2.99-6.68-6.68-6.68Z"/><path class="cls-1" d="m83.3,249.96c1.9,0,5.82-2.32,9.56-4.04.11-.05.21-.09.32-.14-.21.47-.42.95-.64,1.44-1.72,3.74-3.86,7.79-3.86,9.69,0,3.69,2.99,6.68,6.68,6.68s6.68-2.99,6.68-6.68c0-1.9-2.32-5.82-4.04-9.56-.26-.57-.5-1.14-.73-1.69.2.09.39.17.59.26,3.74,1.72,7.66,4.04,9.56,4.04,3.69,0,6.68-2.99,6.68-6.68s-2.99-6.68-6.68-6.68c-1.9,0-5.95,2.14-9.69,3.86-.32.15-.64.29-.95.43l2.77-13.14h-4.21s-4.18,0-4.18,0l2.83,13.16c-.33-.15-.67-.29-1.01-.45-3.74-1.72-7.79-3.86-9.69-3.86-3.69,0-6.68,2.99-6.68,6.68s2.99,6.68,6.68,6.68Z"/></g></g></g></svg>