<?xml version="1.0" encoding="UTF-8"?><svg id="Layer_2" xmlns="http://www.w3.org/2000/svg" viewBox="0 0 190.71 292.64"><defs><style>.cls-1{fill:#b4171e;}</style></defs><g id="_ÎÓÈ_1"><g><g><rect width="190.71" height="292.64" rx="11.28" ry="11.28"/><g><path class="cls-1" d="m12.93,33.22c0-.39.03-.83.08-1.3s.14-.96.26-1.46h2.78v1.2c0,.73.06,1.35.19,1.84.12.5.29.89.5,1.2.21.3.46.52.76.65.29.13.61.19.96.19s.65-.05.92-.14c.27-.1.51-.25.7-.47.19-.22.34-.5.44-.85.1-.34.15-.76.15-1.26v-2.6c0-.5-.04-.94-.13-1.32-.09-.39-.23-.71-.42-.97-.19-.26-.44-.46-.76-.6-.31-.14-.7-.21-1.16-.21h-1.5v-2.54h1.5c.29,0,.57-.05.82-.14.26-.1.48-.25.67-.47.19-.22.34-.49.45-.83.11-.34.17-.75.17-1.24v-2.46c0-.87-.17-1.51-.51-1.92-.34-.41-.84-.61-1.51-.61-.74,0-1.31.33-1.71,1-.4.66-.6,1.62-.6,2.87v1.33h-2.75c-.1-.46-.19-.91-.26-1.37-.07-.45-.11-.93-.11-1.44,0-.6.11-1.19.33-1.78.22-.59.55-1.13,1-1.6.44-.48,1.01-.86,1.69-1.16.68-.29,1.49-.44,2.41-.44,1,0,1.86.11,2.57.34.72.23,1.3.57,1.75,1.01.45.44.79.99,1,1.64.22.65.32,1.38.32,2.21v1.44c0,.67-.08,1.26-.25,1.78-.17.52-.39.97-.66,1.35-.27.39-.58.71-.92.98-.34.27-.69.49-1.05.65v.11c.46.16.88.36,1.28.61.39.25.74.58,1.02.97.29.39.52.87.68,1.43.16.56.25,1.22.25,1.99v1.55c0,1.08-.16,1.99-.47,2.74-.31.74-.73,1.34-1.27,1.79-.53.45-1.15.78-1.86.98-.71.2-1.46.3-2.25.3-1.8,0-3.17-.44-4.11-1.31-.94-.87-1.42-2.1-1.42-3.69Z"/><path class="cls-1" d="m177.78,259.42c0,.39-.03.83-.08,1.3-.05.47-.14.96-.26,1.46h-2.78v-1.2c0-.73-.06-1.35-.19-1.84-.12-.5-.29-.89-.5-1.2-.21-.3-.46-.52-.76-.65-.29-.13-.61-.19-.96-.19s-.65.05-.92.14c-.27.1-.51.25-.7.47-.19.22-.34.5-.44.85-.1.34-.15.76-.15,1.26v2.6c0,.5.04.94.13,1.32.09.39.23.71.42.97.19.26.44.46.76.6.31.14.7.21,1.16.21h1.5v2.54h-1.5c-.29,0-.57.05-.82.14-.26.1-.48.25-.67.47-.19.22-.34.49-.45.83-.11.34-.17.75-.17,1.24v2.46c0,.87.17,1.51.51,1.92.34.41.84.61,1.51.61.74,0,1.31-.33,1.71-1,.4-.66.6-1.62.6-2.87v-1.33h2.75c.1.46.19.91.26,1.37.07.45.11.93.11,1.44,0,.6-.11,1.19-.33,1.78s-.55,1.13-1,1.6c-.44.48-1.01.86-1.69,1.16-.68.29-1.49.44-2.41.44-1,0-1.86-.11-2.57-.34s-1.3-.57-1.75-1.01c-.45-.44-.79-.99-1-1.64-.22-.65-.32-1.38-.32-2.21v-1.44c0-.67.08-1.26.25-1.78.17-.52.39-.97.66-1.35s.58-.71.92-.98c.34-.27.69-.49,1.05-.65v-.11c-.46-.16-.88-.36-1.28-.61-.39-.25-.74-.58-1.02-.97-.29-.39-.52-.87-.68-1.43-.16-.56-.25-1.22-.25-1.99v-1.55c0-1.08.16-1.99.47-2.74.31-.74.73-1.34,1.27-1.79.53-.45,1.15-.78,1.86-.98.71-.2,1.46-.3,2.25-.3,1.8,0,3.17.44,4.11,1.31.94.87,1.42,2.1,1.42,3.69Z"/></g></g><g><path class="cls-1" d="m21.57,40.56c-1.9.25-2.98,2.16-2.98,2.16,0,0-1.08-1.91-2.98-2.16-3.53-.47-3.88,2.71-2.77,5.15,1.27,2.79,5.75,6.21,5.75,6.21,0,0,4.48-3.41,5.75-6.21,1.11-2.43.76-5.61-2.77-5.15Z"/><path class="cls-1" d="m169.14,252.08c1.9-.25,2.98-2.16,2.98-2.16,0,0,1.08,1.91,2.98,2.16,3.53.47,3.88-2.71,2.77-5.15-1.27-2.79-5.75-6.21-5.75-6.21,0,0-4.48,3.41-5.75,6.21-1.11,2.43-.76,5.61,2.77,5.15Z"/></g><g><path class="cls-1" d="m103.59,31.34c-5.26.69-8.24,5.97-8.24,5.97,0,0-2.98-5.27-8.24-5.97-9.75-1.29-10.71,7.5-7.65,14.22,3.51,7.72,15.89,17.16,15.89,17.16,0,0,12.38-9.44,15.89-17.16,3.06-6.72,2.09-15.51-7.65-14.22Z"/><path class="cls-1" d="m103.59,130.69c-5.26.69-8.24,5.97-8.24,5.97,0,0-2.98-5.27-8.24-5.97-9.75-1.29-10.71,7.5-7.65,14.22,3.51,7.72,15.89,17.16,15.89,17.16,0,0,12.38-9.44,15.89-17.16,3.06-6.72,2.09-15.51-7.65-14.22Z"/><path class="cls-1" d="m87.12,261.3c5.26-.69,8.24-5.97,8.24-5.97,0,0,2.98,5.27,8.24,5.97,9.75,1.29,10.71-7.5,7.65-14.22-3.51-7.72-15.89-17.16-15.89-17.16,0,0-12.38,9.44-15.89,17.16-3.06,6.72-2.09,15.51,7.65,14.22Z"/></g></g></g></svg>