<?xml version="1.0" encoding="UTF-8"?><svg id="Layer_2" xmlns="http://www.w3.org/2000/svg" viewBox="0 0 190.71 292.64"><defs><style>.cls-1{fill:#b4171e;}</style></defs><g id="_ÎÓÈ_1"><g><g><path d="m11.28,0h168.15C185.65,0,190.71,5.05,190.71,11.28v270.08c0,6.23-5.05,11.28-11.28,11.28H11.28c-6.23,0-11.28-5.05-11.28-11.28V11.28C0,5.05,5.05,0,11.28,0Z"/><g><path class="cls-1" d="m12.79,31.72l6.85-17.41h4.25v16.49h2.17v2.79h-2.17v4.21h-3.31v-4.21h-7.78v-1.87Zm7.78-.92v-3.47l.33-8.86h-.41l-4.07,12.32h4.15Z"/><path class="cls-1" d="m179.59,260.92l-6.85,17.41h-4.25v-16.49h-2.17v-2.79h2.17v-4.21h3.31v4.21h7.78v1.87Zm-7.78.92v3.47l-.33,8.86h.41l4.07-12.32h-4.15Z"/></g></g><g><polygon class="cls-1" points="18.62 52.7 13.34 46.21 18.62 39.73 23.89 46.21 18.62 52.7"/><polygon class="cls-1" points="172.15 239.94 177.42 246.43 172.15 252.91 166.87 246.43 172.15 239.94"/></g><g><g><polygon class="cls-1" points="57.51 68.07 41.64 48.56 57.51 29.05 73.38 48.56 57.51 68.07"/><polygon class="cls-1" points="57.51 224.57 73.38 244.08 57.51 263.59 41.64 244.08 57.51 224.57"/></g><g><polygon class="cls-1" points="133.2 68.07 117.32 48.56 133.2 29.05 149.07 48.56 133.2 68.07"/><polygon class="cls-1" points="133.2 224.57 149.07 244.08 133.2 263.59 117.32 244.08 133.2 224.57"/></g></g></g></g></svg>