<?xml version="1.0" encoding="UTF-8"?><svg id="Layer_2" xmlns="http://www.w3.org/2000/svg" viewBox="0 0 190.71 292.64"><defs><style>.cls-1{fill:#b4171e;}</style></defs><g id="_ÎÓÈ_1"><g><g><rect width="190.71" height="292.64" rx="11.28" ry="11.28"/><g><path class="cls-1" d="m12.78,31.72l6.85-17.41h4.25v16.49h2.17v2.79h-2.17v4.21h-3.31v-4.21h-7.78v-1.87Zm7.78-.92v-3.47l.33-8.86h-.41l-4.07,12.32h4.15Z"/><path class="cls-1" d="m179.58,260.92l-6.85,17.41h-4.25v-16.49h-2.17v-2.79h2.17v-4.21h3.31v4.21h7.78v1.87Zm-7.78.92v3.47l-.33,8.86h.41l4.07-12.32h-4.15Z"/></g></g><g><path class="cls-1" d="m21.59,40.56c-1.9.25-2.98,2.16-2.98,2.16,0,0-1.08-1.91-2.98-2.16-3.53-.47-3.88,2.71-2.77,5.15,1.27,2.79,5.75,6.21,5.75,6.21,0,0,4.48-3.41,5.75-6.21,1.11-2.43.76-5.61-2.77-5.15Z"/><path class="cls-1" d="m169.16,252.08c1.9-.25,2.98-2.16,2.98-2.16,0,0,1.08,1.91,2.98,2.16,3.53.47,3.88-2.71,2.77-5.15-1.27-2.79-5.75-6.21-5.75-6.21,0,0-4.48,3.41-5.75,6.21-1.11,2.43-.76,5.61,2.77,5.15Z"/></g><g><g><path class="cls-1" d="m65.75,31.34c-5.26.69-8.24,5.97-8.24,5.97,0,0-2.98-5.27-8.24-5.97-9.75-1.29-10.71,7.5-7.65,14.22,3.51,7.72,15.89,17.16,15.89,17.16,0,0,12.38-9.44,15.89-17.16,3.06-6.72,2.09-15.51-7.65-14.22Z"/><path class="cls-1" d="m49.28,261.3c5.26-.69,8.24-5.97,8.24-5.97,0,0,2.98,5.27,8.24,5.97,9.75,1.29,10.71-7.5,7.65-14.22-3.51-7.72-15.89-17.16-15.89-17.16,0,0-12.38,9.44-15.89,17.16-3.06,6.72-2.09,15.51,7.65,14.22Z"/></g><g><path class="cls-1" d="m141.43,31.34c-5.26.69-8.24,5.97-8.24,5.97,0,0-2.98-5.27-8.24-5.97-9.75-1.29-10.71,7.5-7.65,14.22,3.51,7.72,15.89,17.16,15.89,17.16,0,0,12.38-9.44,15.89-17.16,3.06-6.72,2.09-15.51-7.65-14.22Z"/><path class="cls-1" d="m124.96,261.3c5.26-.69,8.24-5.97,8.24-5.97,0,0,2.98,5.27,8.24,5.97,9.75,1.29,10.71-7.5,7.65-14.22-3.51-7.72-15.89-17.16-15.89-17.16,0,0-12.38,9.44-15.89,17.16-3.06,6.72-2.09,15.51,7.65,14.22Z"/></g></g></g></g></svg>