<?xml version="1.0" encoding="UTF-8"?><svg id="Layer_2" xmlns="http://www.w3.org/2000/svg" viewBox="0 0 190.71 292.64"><defs><style>.cls-1{fill:#eac26b;}</style></defs><g id="_ÎÓÈ_1"><g><g><rect width="190.71" height="292.64" rx="11.28" ry="11.28"/><g><path class="cls-1" d="m12.78,31.72l6.85-17.41h4.25v16.49h2.17v2.79h-2.17v4.21h-3.31v-4.21h-7.78v-1.87Zm7.78-.92v-3.47l.33-8.86h-.41l-4.07,12.32h4.15Z"/><path class="cls-1" d="m179.58,260.92l-6.85,17.41h-4.25v-16.49h-2.17v-2.79h2.17v-4.21h3.31v4.21h7.78v1.87Zm-7.78.92v3.47l-.33,8.86h.41l4.07-12.32h-4.15Z"/></g></g><g><path class="cls-1" d="m24.36,45.96c-1.27-2.8-5.75-6.23-5.75-6.23,0,0-4.48,3.43-5.75,6.23-1.11,2.44-.76,5.63,2.77,5.16,1.17-.15,2.02-.93,2.51-1.51l-.86,3.09h1.33s1.32,0,1.32,0l-.89-3.14c.48.58,1.35,1.41,2.56,1.57,3.53.47,3.88-2.72,2.77-5.16Z"/><path class="cls-1" d="m166.39,246.68c1.27,2.8,5.75,6.23,5.75,6.23,0,0,4.48-3.43,5.75-6.23,1.11-2.44.76-5.63-2.77-5.16-1.17.15-2.02.93-2.51,1.51l.86-3.09h-1.33s-1.32,0-1.32,0l.9,3.14c-.48-.58-1.35-1.41-2.56-1.57-3.53-.47-3.88,2.72-2.77,5.16Z"/></g><g><g><path class="cls-1" d="m73.4,46.26c-3.51-7.75-15.89-17.21-15.89-17.21,0,0-12.38,9.47-15.89,17.21-3.06,6.75-2.09,15.56,7.65,14.27,3.23-.43,5.59-2.58,6.94-4.19l-2.38,8.53h3.68s3.64,0,3.64,0l-2.47-8.69c1.32,1.62,3.74,3.9,7.07,4.34,9.75,1.29,10.71-7.53,7.65-14.27Z"/><path class="cls-1" d="m41.62,246.38c3.51,7.75,15.89,17.21,15.89,17.21,0,0,12.38-9.47,15.89-17.21,3.06-6.75,2.09-15.56-7.65-14.27-3.22.43-5.59,2.58-6.94,4.19l2.38-8.53h-3.68s-3.64,0-3.64,0l2.47,8.69c-1.32-1.62-3.74-3.9-7.07-4.34-9.75-1.29-10.71,7.53-7.65,14.27Z"/></g><g><path class="cls-1" d="m149.09,46.26c-3.51-7.75-15.89-17.21-15.89-17.21,0,0-12.38,9.47-15.89,17.21-3.06,6.75-2.09,15.56,7.65,14.27,3.23-.43,5.59-2.58,6.94-4.19l-2.38,8.53h3.68s3.64,0,3.64,0l-2.47-8.69c1.32,1.62,3.74,3.9,7.07,4.34,9.75,1.29,10.71-7.53,7.65-14.27Z"/><path class="cls-1" d="m117.31,246.38c3.51,7.75,15.89,17.21,15.89,17.21,0,0,12.38-9.47,15.89-17.21,3.06-6.75,2.09-15.56-7.65-14.27-3.23.43-5.59,2.58-6.94,4.19l2.38-8.53h-3.68s-3.64,0-3.64,0l2.47,8.69c-1.32-1.62-3.74-3.9-7.07-4.34-9.75-1.29-10.71,7.53-7.65,14.27Z"/></g></g></g></g></svg>