<?xml version="1.0" encoding="UTF-8"?><svg id="Layer_2" xmlns="http://www.w3.org/2000/svg" viewBox="0 0 190.71 292.64"><defs><style>.cls-1{fill:#eac26b;}</style></defs><g id="_ÎÓÈ_1"><g><g><path d="m11.28,0h168.15c6.23,0,11.28,5.05,11.28,11.28v270.08c0,6.23-5.05,11.28-11.28,11.28H11.28c-6.23,0-11.28-5.05-11.28-11.28V11.28C0,5.05,5.05,0,11.28,0Z"/><path class="cls-1" d="m13.12,32.98c0-.83.11-1.74.34-2.72h2.78v1.93c0,1.12.16,1.92.49,2.41.33.49.86.74,1.6.74s1.28-.27,1.6-.81c.31-.54.47-1.32.47-2.34v-4.54c0-.59-.05-1.06-.15-1.42-.1-.36-.24-.65-.41-.85-.17-.21-.38-.35-.61-.42-.23-.07-.49-.11-.76-.11-.51,0-.95.14-1.32.43-.37.29-.67.63-.91,1.04h-2.63v-11.99h10.09v3.15h-7.12v5.8c.38-.44.87-.78,1.45-1.03.58-.25,1.19-.37,1.82-.37,1.46,0,2.53.49,3.2,1.47.68.98,1.02,2.42,1.02,4.33v3.99c0,1.21-.16,2.22-.47,3.03-.31.81-.72,1.46-1.24,1.95-.51.49-1.11.84-1.78,1.05s-1.37.32-2.08.32c-.87,0-1.64-.12-2.31-.35-.67-.23-1.23-.57-1.68-1.01-.45-.44-.8-.97-1.03-1.59-.23-.62-.35-1.31-.35-2.08Z"/><path class="cls-1" d="m177.59,259.66c0,.83-.11,1.74-.34,2.72h-2.78v-1.93c0-1.12-.16-1.92-.49-2.41-.33-.49-.86-.74-1.6-.74s-1.28.27-1.6.81c-.31.54-.47,1.32-.47,2.34v4.54c0,.59.05,1.06.15,1.42.1.36.24.65.41.85.17.21.38.35.61.42.23.07.49.11.76.11.51,0,.95-.14,1.32-.43.37-.29.67-.63.91-1.04h2.63v11.99h-10.09v-3.15h7.12v-5.8c-.39.44-.87.78-1.45,1.03s-1.19.37-1.82.37c-1.46,0-2.53-.49-3.2-1.47-.68-.98-1.02-2.42-1.02-4.33v-3.99c0-1.21.16-2.22.47-3.03.31-.81.72-1.46,1.24-1.95s1.11-.84,1.78-1.05c.67-.21,1.37-.32,2.08-.32.87,0,1.64.12,2.31.35s1.23.57,1.68,1.01c.45.44.8.97,1.03,1.59.23.62.35,1.31.35,2.08Z"/></g><g><path class="cls-1" d="m24.34,45.96c-1.27-2.8-5.75-6.23-5.75-6.23,0,0-4.48,3.43-5.75,6.23-1.11,2.44-.76,5.63,2.77,5.16,1.17-.15,2.02-.93,2.51-1.51l-.86,3.09h1.33s1.32,0,1.32,0l-.89-3.14c.48.58,1.35,1.41,2.56,1.57,3.53.47,3.88-2.72,2.77-5.16Z"/><path class="cls-1" d="m166.37,246.68c1.27,2.8,5.75,6.23,5.75,6.23,0,0,4.48-3.43,5.75-6.23,1.11-2.44.76-5.63-2.77-5.16-1.17.15-2.02.93-2.51,1.51l.86-3.09h-1.33s-1.32,0-1.32,0l.9,3.14c-.48-.58-1.35-1.41-2.56-1.57-3.53-.47-3.88,2.72-2.77,5.16Z"/></g><g><g><path class="cls-1" d="m73.4,46.26c-3.51-7.75-15.89-17.21-15.89-17.21,0,0-12.38,9.47-15.89,17.21-3.06,6.75-2.09,15.56,7.65,14.27,3.23-.43,5.59-2.58,6.94-4.19l-2.38,8.53h3.68s3.64,0,3.64,0l-2.47-8.69c1.32,1.62,3.74,3.9,7.07,4.34,9.75,1.29,10.71-7.53,7.65-14.27Z"/><path class="cls-1" d="m41.62,246.38c3.51,7.75,15.89,17.21,15.89,17.21,0,0,12.38-9.47,15.89-17.21,3.06-6.75,2.09-15.56-7.65-14.27-3.23.43-5.59,2.58-6.94,4.19l2.38-8.53h-3.68s-3.64,0-3.64,0l2.47,8.69c-1.32-1.62-3.74-3.9-7.07-4.34-9.75-1.29-10.71,7.53-7.65,14.27Z"/></g><g><path class="cls-1" d="m149.09,46.26c-3.51-7.75-15.89-17.21-15.89-17.21,0,0-12.38,9.47-15.89,17.21-3.06,6.75-2.09,15.56,7.65,14.27,3.23-.43,5.59-2.58,6.94-4.19l-2.38,8.53h3.68s3.64,0,3.64,0l-2.47-8.69c1.32,1.62,3.74,3.9,7.07,4.34,9.75,1.29,10.71-7.53,7.65-14.27Z"/><path class="cls-1" d="m111.24,145.61c-3.51-7.75-15.89-17.21-15.89-17.21,0,0-12.38,9.47-15.89,17.21-3.06,6.75-2.09,15.56,7.65,14.27,3.23-.43,5.59-2.58,6.94-4.19l-2.38,8.53h3.68s3.64,0,3.64,0l-2.47-8.69c1.32,1.62,3.74,3.9,7.07,4.34,9.75,1.29,10.71-7.53,7.65-14.27Z"/><path class="cls-1" d="m117.31,246.38c3.51,7.75,15.89,17.21,15.89,17.21,0,0,12.38-9.47,15.89-17.21,3.06-6.75,2.09-15.56-7.65-14.27-3.23.43-5.59,2.58-6.94,4.19l2.38-8.53h-3.68s-3.64,0-3.64,0l2.47,8.69c-1.32-1.62-3.74-3.9-7.07-4.34-9.75-1.29-10.71,7.53-7.65,14.27Z"/></g></g></g></g></svg>