<?xml version="1.0" encoding="UTF-8"?><svg id="Layer_2" xmlns="http://www.w3.org/2000/svg" viewBox="0 0 190.71 292.64"><defs><style>.cls-1{fill:#eac26b;}</style></defs><g id="_ÎÓÈ_1"><g><g><g><path d="m11.28,0h168.15c6.23,0,11.28,5.05,11.28,11.28v270.08c0,6.23-5.05,11.28-11.28,11.28H11.28c-6.23,0-11.28-5.05-11.28-11.28V11.28C0,5.05,5.05,0,11.28,0Z"/><path class="cls-1" d="m22.95,44.66c-.69,0-2.11.84-3.46,1.46-.04.02-.08.03-.12.05.07-.17.15-.34.23-.52.62-1.35,1.4-2.82,1.4-3.51,0-1.33-1.08-2.42-2.42-2.42s-2.42,1.08-2.42,2.42c0,.69.84,2.11,1.46,3.46.1.21.18.41.26.61-.07-.03-.14-.06-.21-.09-1.35-.62-2.77-1.46-3.46-1.46-1.33,0-2.42,1.08-2.42,2.42s1.08,2.42,2.42,2.42c.69,0,2.15-.78,3.51-1.4.12-.05.23-.1.34-.15l-1,4.75h1.52s1.51,0,1.51,0l-1.02-4.76c.12.05.24.11.36.16,1.35.62,2.82,1.4,3.51,1.4,1.33,0,2.42-1.08,2.42-2.42s-1.08-2.42-2.42-2.42Z"/></g><path class="cls-1" d="m12.82,21.38c0-1.08.1-2.01.3-2.78.2-.77.46-1.42.78-1.95.33-.53.7-.94,1.12-1.25.42-.31.85-.54,1.3-.71.44-.16.89-.27,1.33-.32.44-.05.84-.07,1.21-.07.94,0,1.75.12,2.42.36.67.24,1.22.57,1.64.98.43.41.74.88.93,1.42.19.54.29,1.11.29,1.71,0,.32-.03.67-.09,1.06-.06.38-.15.77-.28,1.16h-2.71v-.72c0-.72-.04-1.3-.13-1.75-.09-.45-.22-.8-.4-1.07-.18-.26-.41-.44-.68-.54-.28-.1-.61-.14-.99-.14-.79,0-1.39.27-1.81.8-.42.54-.63,1.4-.63,2.58v4.52c.35-.39.8-.71,1.37-.97.56-.26,1.22-.39,1.96-.39.53,0,1.07.08,1.62.25s1.04.47,1.49.91c.44.44.81,1.03,1.09,1.77s.42,1.7.42,2.87v2.28c0,1.26-.13,2.31-.39,3.18s-.63,1.56-1.12,2.1c-.49.54-1.07.92-1.75,1.16-.68.24-1.45.36-2.3.36-.96,0-1.81-.13-2.55-.38s-1.36-.67-1.87-1.24c-.51-.57-.89-1.31-1.16-2.22s-.39-2.02-.39-3.33v-9.65Zm3.6,10.99c0,1.08.19,1.88.56,2.39.37.51.96.77,1.77.77.71,0,1.22-.25,1.55-.76.33-.5.5-1.26.5-2.27v-3.49c0-.57-.05-1.05-.15-1.43-.1-.39-.24-.69-.43-.93-.18-.23-.4-.4-.66-.5-.26-.1-.55-.15-.87-.15-.25,0-.48.04-.71.11-.22.07-.43.17-.63.29-.19.12-.37.26-.52.41-.16.16-.29.31-.41.47v5.09Z"/><path class="cls-1" d="m167.76,247.98c.69,0,2.11-.84,3.46-1.46.04-.02.08-.03.12-.05-.07.17-.15.34-.23.52-.62,1.35-1.4,2.82-1.4,3.51,0,1.33,1.08,2.42,2.42,2.42s2.42-1.08,2.42-2.42c0-.69-.84-2.11-1.46-3.46-.1-.21-.18-.41-.26-.61.07.03.14.06.21.09,1.35.62,2.77,1.46,3.46,1.46,1.33,0,2.42-1.08,2.42-2.42s-1.08-2.42-2.42-2.42c-.69,0-2.15.78-3.51,1.4-.12.05-.23.1-.34.15l1-4.75h-1.52s-1.51,0-1.51,0l1.02,4.76c-.12-.05-.24-.11-.36-.16-1.35-.62-2.82-1.4-3.51-1.4-1.33,0-2.42,1.08-2.42,2.42s1.08,2.42,2.42,2.42Z"/><path class="cls-1" d="m177.89,271.26c0,1.08-.1,2.01-.3,2.78-.2.77-.46,1.42-.78,1.95-.33.53-.7.94-1.12,1.25-.42.31-.85.54-1.3.71-.44.16-.89.27-1.33.32-.44.05-.84.07-1.21.07-.94,0-1.75-.12-2.42-.36-.67-.24-1.22-.57-1.64-.98-.43-.41-.74-.88-.93-1.42-.19-.54-.29-1.11-.29-1.71,0-.32.03-.67.09-1.06.06-.39.15-.77.28-1.16h2.71v.72c0,.72.04,1.3.13,1.75.09.45.22.8.4,1.07.18.26.41.44.68.54.28.1.61.14.99.14.79,0,1.39-.27,1.81-.8.42-.54.63-1.4.63-2.58v-4.52c-.35.39-.8.71-1.37.97-.56.26-1.22.39-1.96.39-.53,0-1.07-.08-1.62-.25s-1.04-.47-1.49-.91c-.44-.44-.81-1.03-1.09-1.77s-.42-1.7-.42-2.87v-2.28c0-1.26.13-2.31.39-3.18s.63-1.56,1.12-2.1c.49-.54,1.07-.92,1.75-1.16.68-.24,1.45-.36,2.3-.36.96,0,1.81.13,2.55.39s1.36.67,1.87,1.24c.51.57.89,1.31,1.16,2.22s.39,2.02.39,3.33v9.65Zm-3.6-10.99c0-1.08-.19-1.88-.56-2.39-.37-.51-.96-.77-1.77-.77-.71,0-1.22.25-1.55.76-.33.5-.5,1.26-.5,2.27v3.49c0,.57.05,1.05.15,1.43.1.39.24.69.43.93.18.23.4.4.66.5.26.1.55.15.87.15.25,0,.48-.04.71-.11.22-.07.43-.17.63-.29.19-.12.37-.26.52-.41.16-.16.29-.31.41-.47v-5.09Z"/></g><g><g><path class="cls-1" d="m69.57,42.68c-1.9,0-5.82,2.32-9.56,4.04-.11.05-.21.09-.32.14.21-.47.42-.95.64-1.44,1.72-3.74,3.86-7.79,3.86-9.69,0-3.69-2.99-6.68-6.68-6.68s-6.68,2.99-6.68,6.68c0,1.9,2.32,5.82,4.04,9.56.26.57.5,1.14.73,1.69-.2-.09-.39-.17-.59-.26-3.74-1.72-7.66-4.04-9.56-4.04-3.69,0-6.68,2.99-6.68,6.68s2.99,6.68,6.68,6.68c1.9,0,5.95-2.14,9.69-3.86.32-.15.64-.29.95-.43l-2.77,13.14h4.21s4.18,0,4.18,0l-2.83-13.16c.33.15.67.29,1.01.45,3.74,1.72,7.79,3.86,9.69,3.86,3.69,0,6.68-2.99,6.68-6.68s-2.99-6.68-6.68-6.68Z"/><path class="cls-1" d="m45.46,249.96c1.9,0,5.82-2.32,9.56-4.04.11-.05.21-.09.32-.14-.21.47-.42.95-.64,1.44-1.72,3.74-3.86,7.79-3.86,9.69,0,3.69,2.99,6.68,6.68,6.68s6.68-2.99,6.68-6.68c0-1.9-2.32-5.82-4.04-9.56-.26-.57-.5-1.14-.73-1.69.2.09.39.17.59.26,3.74,1.72,7.66,4.04,9.56,4.04,3.69,0,6.68-2.99,6.68-6.68s-2.99-6.68-6.68-6.68c-1.9,0-5.95,2.14-9.69,3.86-.32.15-.64.29-.95.43l2.77-13.14h-4.21s-4.18,0-4.18,0l2.83,13.16c-.33-.15-.67-.29-1.01-.45-3.74-1.72-7.79-3.86-9.69-3.86-3.69,0-6.68,2.99-6.68,6.68s2.99,6.68,6.68,6.68Z"/></g><path class="cls-1" d="m145.25,42.68c-1.9,0-5.82,2.32-9.56,4.04-.11.05-.21.09-.32.14.21-.47.42-.95.64-1.44,1.72-3.74,3.86-7.79,3.86-9.69,0-3.69-2.99-6.68-6.68-6.68s-6.68,2.99-6.68,6.68c0,1.9,2.32,5.82,4.04,9.56.26.57.5,1.14.73,1.69-.2-.09-.39-.17-.59-.26-3.74-1.72-7.66-4.04-9.56-4.04-3.69,0-6.68,2.99-6.68,6.68s2.99,6.68,6.68,6.68c1.9,0,5.95-2.14,9.69-3.86.32-.15.64-.29.95-.43l-2.77,13.14h4.21s4.18,0,4.18,0l-2.83-13.16c.33.15.67.29,1.01.45,3.74,1.72,7.79,3.86,9.69,3.86,3.69,0,6.68-2.99,6.68-6.68s-2.99-6.68-6.68-6.68Z"/><path class="cls-1" d="m69.57,142.03c-1.9,0-5.82,2.32-9.56,4.04-.11.05-.21.09-.32.14.21-.47.42-.95.64-1.44,1.72-3.74,3.86-7.79,3.86-9.69,0-3.69-2.99-6.68-6.68-6.68s-6.68,2.99-6.68,6.68c0,1.9,2.32,5.82,4.04,9.56.26.57.5,1.14.73,1.69-.2-.09-.39-.17-.59-.26-3.74-1.72-7.66-4.04-9.56-4.04-3.69,0-6.68,2.99-6.68,6.68s2.99,6.68,6.68,6.68c1.9,0,5.95-2.14,9.69-3.86.32-.15.64-.29.95-.43l-2.77,13.14h4.21s4.18,0,4.18,0l-2.83-13.16c.33.15.67.29,1.01.45,3.74,1.72,7.79,3.86,9.69,3.86,3.69,0,6.68-2.99,6.68-6.68s-2.99-6.68-6.68-6.68Z"/><path class="cls-1" d="m145.25,142.03c-1.9,0-5.82,2.32-9.56,4.04-.11.05-.21.09-.32.14.21-.47.42-.95.64-1.44,1.72-3.74,3.86-7.79,3.86-9.69,0-3.69-2.99-6.68-6.68-6.68s-6.68,2.99-6.68,6.68c0,1.9,2.32,5.82,4.04,9.56.26.57.5,1.14.73,1.69-.2-.09-.39-.17-.59-.26-3.74-1.72-7.66-4.04-9.56-4.04-3.69,0-6.68,2.99-6.68,6.68s2.99,6.68,6.68,6.68c1.9,0,5.95-2.14,9.69-3.86.32-.15.64-.29.95-.43l-2.77,13.14h4.21s4.18,0,4.18,0l-2.83-13.16c.33.15.67.29,1.01.45,3.74,1.72,7.79,3.86,9.69,3.86,3.69,0,6.68-2.99,6.68-6.68s-2.99-6.68-6.68-6.68Z"/><path class="cls-1" d="m121.14,249.96c1.9,0,5.82-2.32,9.56-4.04.11-.05.21-.09.32-.14-.21.47-.42.95-.64,1.44-1.72,3.74-3.86,7.79-3.86,9.69,0,3.69,2.99,6.68,6.68,6.68s6.68-2.99,6.68-6.68c0-1.9-2.32-5.82-4.04-9.56-.26-.57-.5-1.14-.73-1.69.2.09.39.17.59.26,3.74,1.72,7.66,4.04,9.56,4.04,3.69,0,6.68-2.99,6.68-6.68s-2.99-6.68-6.68-6.68c-1.9,0-5.95,2.14-9.69,3.86-.32.15-.64.29-.95.43l2.77-13.14h-4.21s-4.18,0-4.18,0l2.83,13.16c-.33-.15-.67-.29-1.01-.45-3.74-1.72-7.79-3.86-9.69-3.86-3.69,0-6.68,2.99-6.68,6.68s2.99,6.68,6.68,6.68Z"/></g></g></g></svg>