<?xml version="1.0" encoding="UTF-8"?><svg id="Layer_2" xmlns="http://www.w3.org/2000/svg" viewBox="0 0 190.71 292.64"><defs><style>.cls-1{fill:#eac26b;}</style></defs><g id="_ÎÓÈ_1"><g><g><path d="m11.28,0h168.15c6.23,0,11.28,5.05,11.28,11.28v270.08c0,6.23-5.05,11.28-11.28,11.28H11.28c-6.23,0-11.28-5.05-11.28-11.28V11.28C0,5.05,5.05,0,11.28,0Z"/><path class="cls-1" d="m12.82,21.38c0-1.08.1-2.01.3-2.78s.46-1.42.78-1.95.7-.94,1.12-1.25c.42-.31.85-.54,1.3-.71.44-.16.89-.27,1.33-.32.44-.05.84-.07,1.21-.07.94,0,1.75.12,2.42.36.67.24,1.22.57,1.64.98.43.41.74.88.93,1.42.19.54.29,1.11.29,1.71,0,.32-.03.67-.09,1.06-.06.38-.15.77-.28,1.16h-2.71v-.72c0-.72-.04-1.3-.13-1.75-.09-.45-.22-.8-.4-1.07-.18-.26-.41-.44-.68-.54-.28-.1-.61-.14-.99-.14-.79,0-1.39.27-1.81.8-.42.54-.63,1.4-.63,2.58v4.52c.35-.39.8-.71,1.37-.97.56-.26,1.22-.39,1.96-.39.53,0,1.07.08,1.62.25.55.17,1.04.47,1.49.91.44.44.81,1.03,1.09,1.77.28.75.42,1.7.42,2.87v2.28c0,1.26-.13,2.31-.39,3.18-.26.86-.63,1.56-1.12,2.1-.49.54-1.07.92-1.75,1.16-.68.24-1.45.36-2.3.36-.96,0-1.81-.13-2.55-.38-.74-.26-1.36-.67-1.87-1.24-.51-.57-.89-1.31-1.16-2.22-.26-.91-.39-2.02-.39-3.33v-9.65Zm3.6,10.99c0,1.08.19,1.88.56,2.39.37.51.96.77,1.77.77.71,0,1.22-.25,1.55-.76.33-.5.5-1.26.5-2.27v-3.49c0-.57-.05-1.05-.15-1.43-.1-.39-.24-.69-.43-.93-.18-.23-.4-.4-.66-.5-.26-.1-.55-.15-.87-.15-.25,0-.48.04-.71.11-.22.07-.43.17-.63.29-.19.12-.37.26-.52.41-.16.16-.29.31-.41.47v5.09Z"/><path class="cls-1" d="m177.89,271.26c0,1.08-.1,2.01-.3,2.78s-.46,1.42-.78,1.95-.7.94-1.12,1.25c-.42.31-.85.54-1.3.71-.44.16-.89.27-1.33.32-.44.05-.84.07-1.21.07-.94,0-1.75-.12-2.42-.36-.67-.24-1.22-.57-1.64-.98-.43-.41-.74-.88-.93-1.42-.19-.54-.29-1.11-.29-1.71,0-.32.03-.67.09-1.06.06-.38.15-.77.28-1.16h2.71v.72c0,.72.04,1.3.13,1.75.09.45.22.8.4,1.07.18.26.41.44.68.54.28.1.61.14.99.14.79,0,1.39-.27,1.81-.8.42-.54.63-1.4.63-2.58v-4.52c-.35.39-.8.71-1.37.97-.56.26-1.22.39-1.96.39-.53,0-1.07-.08-1.62-.25-.55-.17-1.04-.47-1.49-.91-.44-.44-.81-1.03-1.09-1.77-.28-.75-.42-1.7-.42-2.87v-2.28c0-1.26.13-2.31.39-3.18.26-.86.63-1.56,1.12-2.1.49-.54,1.07-.92,1.75-1.16.68-.24,1.45-.36,2.3-.36.96,0,1.81.13,2.55.38.74.26,1.36.67,1.87,1.24.51.57.89,1.31,1.16,2.22.26.91.39,2.02.39,3.33v9.65Zm-3.6-10.99c0-1.08-.19-1.88-.56-2.39-.37-.51-.96-.77-1.77-.77-.71,0-1.22.25-1.55.76-.33.5-.5,1.26-.5,2.27v3.49c0,.57.05,1.05.15,1.43.1.39.24.69.43.93.18.23.4.4.66.5.26.1.55.15.87.15.25,0,.48-.04.71-.11.22-.07.43-.17.63-.29s.37-.26.52-.41c.16-.16.29-.31.41-.47v-5.09Z"/></g><g><path class="cls-1" d="m24.34,45.96c-1.27-2.8-5.75-6.23-5.75-6.23,0,0-4.48,3.43-5.75,6.23-1.11,2.44-.76,5.63,2.77,5.16,1.17-.15,2.02-.93,2.51-1.51l-.86,3.09h1.33s1.32,0,1.32,0l-.9-3.14c.48.58,1.35,1.41,2.56,1.57,3.53.47,3.88-2.72,2.77-5.16Z"/><path class="cls-1" d="m166.37,246.68c1.27,2.8,5.75,6.23,5.75,6.23,0,0,4.48-3.43,5.75-6.23,1.11-2.44.76-5.63-2.77-5.16-1.17.15-2.02.93-2.51,1.51l.86-3.09h-1.33s-1.32,0-1.32,0l.9,3.14c-.48-.58-1.35-1.41-2.56-1.57-3.53-.47-3.88,2.72-2.77,5.16Z"/></g><g><g><path class="cls-1" d="m73.4,46.26c-3.51-7.75-15.89-17.21-15.89-17.21,0,0-12.38,9.47-15.89,17.21-3.06,6.75-2.09,15.56,7.65,14.27,3.23-.43,5.59-2.58,6.94-4.19l-2.38,8.53h3.68s3.64,0,3.64,0l-2.47-8.69c1.32,1.62,3.74,3.9,7.07,4.34,9.75,1.29,10.71-7.53,7.65-14.27Z"/><path class="cls-1" d="m41.62,246.38c3.51,7.75,15.89,17.21,15.89,17.21,0,0,12.38-9.47,15.89-17.21,3.06-6.75,2.09-15.56-7.65-14.27-3.23.43-5.59,2.58-6.94,4.19l2.38-8.53h-3.68s-3.64,0-3.64,0l2.47,8.69c-1.32-1.62-3.74-3.9-7.07-4.34-9.75-1.29-10.71,7.53-7.65,14.27Z"/></g><g><path class="cls-1" d="m149.09,46.26c-3.51-7.75-15.89-17.21-15.89-17.21,0,0-12.38,9.47-15.89,17.21-3.06,6.75-2.09,15.56,7.65,14.27,3.23-.43,5.59-2.58,6.94-4.19l-2.38,8.53h3.68s3.64,0,3.64,0l-2.47-8.69c1.32,1.62,3.74,3.9,7.07,4.34,9.75,1.29,10.71-7.53,7.65-14.27Z"/><path class="cls-1" d="m73.4,145.61c-3.51-7.75-15.89-17.21-15.89-17.21,0,0-12.38,9.47-15.89,17.21-3.06,6.75-2.09,15.56,7.65,14.27,3.23-.43,5.59-2.58,6.94-4.19l-2.38,8.53h3.68s3.64,0,3.64,0l-2.47-8.69c1.32,1.62,3.74,3.9,7.07,4.34,9.75,1.29,10.71-7.53,7.65-14.27Z"/><path class="cls-1" d="m149.09,145.61c-3.51-7.75-15.89-17.21-15.89-17.21,0,0-12.38,9.47-15.89,17.21-3.06,6.75-2.09,15.56,7.65,14.27,3.23-.43,5.59-2.58,6.94-4.19l-2.38,8.53h3.68s3.64,0,3.64,0l-2.47-8.69c1.32,1.62,3.74,3.9,7.07,4.34,9.75,1.29,10.71-7.53,7.65-14.27Z"/><path class="cls-1" d="m117.31,246.38c3.51,7.75,15.89,17.21,15.89,17.21,0,0,12.38-9.47,15.89-17.21,3.06-6.75,2.09-15.56-7.65-14.27-3.22.43-5.59,2.58-6.94,4.19l2.38-8.53h-3.68s-3.64,0-3.64,0l2.47,8.69c-1.32-1.62-3.74-3.9-7.07-4.34-9.75-1.29-10.71,7.53-7.65,14.27Z"/></g></g></g></g></svg>