<?xml version="1.0" encoding="UTF-8"?><svg id="Layer_2" xmlns="http://www.w3.org/2000/svg" viewBox="0 0 190.71 292.64"><defs><style>.cls-1{fill:#b4171e;}</style></defs><g id="_ÎÓÈ_1"><g><g><rect width="190.71" height="292.64" rx="11.28" ry="11.28"/><path class="cls-1" d="m20.13,17.46h-6.9v-3.15h10.73v1.88l-6.46,21.62h-3.86l6.5-20.35Z"/><path class="cls-1" d="m170.58,275.18h6.9v3.15h-10.73v-1.88l6.46-21.62h3.86l-6.5,20.35Z"/></g><g><polygon class="cls-1" points="18.59 52.7 13.31 46.21 18.59 39.73 23.86 46.21 18.59 52.7"/><polygon class="cls-1" points="172.12 239.94 177.39 246.43 172.12 252.91 166.84 246.43 172.12 239.94"/></g><g><g><polygon class="cls-1" points="57.51 68.07 41.64 48.56 57.51 29.05 73.38 48.56 57.51 68.07"/><polygon class="cls-1" points="57.51 165.83 41.64 146.32 57.51 126.81 73.38 146.32 57.51 165.83"/><polygon class="cls-1" points="133.2 165.83 117.32 146.32 133.2 126.81 149.07 146.32 133.2 165.83"/><polygon class="cls-1" points="57.51 224.57 73.38 244.08 57.51 263.59 41.64 244.08 57.51 224.57"/></g><g><polygon class="cls-1" points="133.2 68.07 117.32 48.56 133.2 29.05 149.07 48.56 133.2 68.07"/><polygon class="cls-1" points="95.35 116.95 79.48 97.44 95.35 77.93 111.23 97.44 95.35 116.95"/><polygon class="cls-1" points="133.2 224.57 149.07 244.08 133.2 263.59 117.32 244.08 133.2 224.57"/></g></g></g></g></svg>