<?xml version="1.0" encoding="UTF-8"?><svg id="Layer_2" xmlns="http://www.w3.org/2000/svg" viewBox="0 0 190.71 292.64"><defs><style>.cls-1{fill:#eac26b;}</style></defs><g id="_ÎÓÈ_1"><g><g><g><rect width="190.71" height="292.64" rx="11.28" ry="11.28"/><path class="cls-1" d="m20.13,17.46h-6.9v-3.15h10.73v1.88l-6.46,21.62h-3.86l6.5-20.35Z"/><path class="cls-1" d="m170.58,275.18h6.9v3.15h-10.73v-1.88l6.46-21.62h3.86l-6.5,20.35Z"/></g><g><path class="cls-1" d="m24.34,45.96c-1.27-2.8-5.75-6.23-5.75-6.23,0,0-4.48,3.43-5.75,6.23-1.11,2.44-.76,5.63,2.77,5.16,1.17-.15,2.02-.93,2.51-1.51l-.86,3.09h1.33s1.32,0,1.32,0l-.9-3.14c.48.58,1.35,1.41,2.56,1.57,3.53.47,3.88-2.72,2.77-5.16Z"/><path class="cls-1" d="m166.37,246.68c1.27,2.8,5.75,6.23,5.75,6.23,0,0,4.48-3.43,5.75-6.23,1.11-2.44.76-5.63-2.77-5.16-1.17.15-2.02.93-2.51,1.51l.86-3.09h-1.33s-1.32,0-1.32,0l.9,3.14c-.48-.58-1.35-1.41-2.56-1.57-3.53-.47-3.88,2.72-2.77,5.16Z"/></g></g><g><g><path class="cls-1" d="m73.4,46.26c-3.51-7.75-15.89-17.21-15.89-17.21,0,0-12.38,9.47-15.89,17.21-3.06,6.75-2.09,15.56,7.65,14.27,3.23-.43,5.59-2.58,6.94-4.19l-2.38,8.53h3.68s3.64,0,3.64,0l-2.47-8.69c1.32,1.62,3.74,3.9,7.07,4.34,9.75,1.29,10.71-7.53,7.65-14.27Z"/><path class="cls-1" d="m111.24,95.94c-3.51-7.75-15.89-17.21-15.89-17.21,0,0-12.38,9.47-15.89,17.21-3.06,6.75-2.09,15.56,7.65,14.27,3.23-.43,5.59-2.58,6.94-4.19l-2.38,8.53h3.68s3.64,0,3.64,0l-2.47-8.69c1.32,1.62,3.74,3.9,7.07,4.34,9.75,1.29,10.71-7.53,7.65-14.27Z"/><path class="cls-1" d="m41.62,246.38c3.51,7.75,15.89,17.21,15.89,17.21,0,0,12.38-9.47,15.89-17.21,3.06-6.75,2.09-15.56-7.65-14.27-3.23.43-5.59,2.58-6.94,4.19l2.38-8.53h-3.68s-3.64,0-3.64,0l2.47,8.69c-1.32-1.62-3.74-3.9-7.07-4.34-9.75-1.29-10.71,7.53-7.65,14.27Z"/></g><g><path class="cls-1" d="m149.09,46.26c-3.51-7.75-15.89-17.21-15.89-17.21,0,0-12.38,9.47-15.89,17.21-3.06,6.75-2.09,15.56,7.65,14.27,3.23-.43,5.59-2.58,6.94-4.19l-2.38,8.53h3.68s3.64,0,3.64,0l-2.47-8.69c1.32,1.62,3.74,3.9,7.07,4.34,9.75,1.29,10.71-7.53,7.65-14.27Z"/><path class="cls-1" d="m73.4,145.61c-3.51-7.75-15.89-17.21-15.89-17.21,0,0-12.38,9.47-15.89,17.21-3.06,6.75-2.09,15.56,7.65,14.27,3.23-.43,5.59-2.58,6.94-4.19l-2.38,8.53h3.68s3.64,0,3.64,0l-2.47-8.69c1.32,1.62,3.74,3.9,7.07,4.34,9.75,1.29,10.71-7.53,7.65-14.27Z"/><path class="cls-1" d="m149.09,145.61c-3.51-7.75-15.89-17.21-15.89-17.21,0,0-12.38,9.47-15.89,17.21-3.06,6.75-2.09,15.56,7.65,14.27,3.23-.43,5.59-2.58,6.94-4.19l-2.38,8.53h3.68s3.64,0,3.64,0l-2.47-8.69c1.32,1.62,3.74,3.9,7.07,4.34,9.75,1.29,10.71-7.53,7.65-14.27Z"/><path class="cls-1" d="m117.31,246.38c3.51,7.75,15.89,17.21,15.89,17.21,0,0,12.38-9.47,15.89-17.21,3.06-6.75,2.09-15.56-7.65-14.27-3.23.43-5.59,2.58-6.94,4.19l2.38-8.53h-3.68s-3.64,0-3.64,0l2.47,8.69c-1.32-1.62-3.74-3.9-7.07-4.34-9.75-1.29-10.71,7.53-7.65,14.27Z"/></g></g></g></g></svg>