<?xml version="1.0" encoding="UTF-8"?><svg id="Layer_2" xmlns="http://www.w3.org/2000/svg" viewBox="0 0 190.71 292.64"><defs><style>.cls-1{fill:#eac26b;}</style></defs><g id="_ÎÓÈ_1"><g><g><g><path d="m11.28,0h168.15c6.23,0,11.28,5.05,11.28,11.28v270.08c0,6.23-5.05,11.28-11.28,11.28H11.28c-6.23,0-11.28-5.05-11.28-11.28V11.28C0,5.05,5.05,0,11.28,0Z" transform="translate(190.71 292.64) rotate(180)"/><path class="cls-1" d="m22.95,44.66c-.69,0-2.11.84-3.46,1.46-.04.02-.08.03-.12.05.07-.17.15-.34.23-.52.62-1.35,1.4-2.82,1.4-3.51,0-1.33-1.08-2.42-2.42-2.42s-2.42,1.08-2.42,2.42c0,.69.84,2.11,1.46,3.46.1.21.18.41.26.61-.07-.03-.14-.06-.21-.09-1.35-.62-2.77-1.46-3.46-1.46-1.33,0-2.42,1.08-2.42,2.42s1.08,2.42,2.42,2.42c.69,0,2.15-.78,3.51-1.4.12-.05.23-.1.34-.15l-1,4.75h1.52s1.51,0,1.51,0l-1.02-4.76c.12.05.24.11.36.16,1.35.62,2.82,1.4,3.51,1.4,1.33,0,2.42-1.08,2.42-2.42s-1.08-2.42-2.42-2.42Z"/></g><path class="cls-1" d="m12.6,30.87c0-.69.07-1.3.22-1.83.15-.53.35-1,.61-1.4.26-.4.57-.75.93-1.04.36-.29.74-.54,1.16-.75v-.11c-.3-.16-.61-.37-.91-.62-.31-.25-.58-.55-.83-.91-.25-.36-.45-.79-.61-1.28-.16-.49-.23-1.05-.23-1.68v-1.65c0-.76.09-1.42.27-1.98.18-.56.42-1.04.72-1.43.3-.39.64-.71,1.04-.96.39-.24.8-.43,1.22-.57s.83-.23,1.25-.28.8-.07,1.15-.07.74.02,1.16.07c.41.05.83.14,1.25.28s.83.33,1.22.57c.39.24.74.56,1.04.95.3.39.55.86.73,1.42.18.56.28,1.22.28,1.98v1.65c0,.63-.08,1.19-.23,1.68-.16.49-.36.92-.6,1.28s-.52.67-.83.91c-.31.25-.61.45-.91.62v.11c.42.21.81.46,1.16.75.35.29.66.63.92,1.04.26.4.47.87.61,1.4.15.53.22,1.14.22,1.83v1.44c0,.81-.08,1.51-.25,2.12-.17.61-.39,1.13-.68,1.57-.29.44-.63.8-1.01,1.09-.38.28-.8.51-1.24.68-.44.17-.91.29-1.39.36-.48.07-.96.1-1.44.1s-.95-.03-1.43-.1c-.48-.07-.94-.19-1.38-.35-.44-.17-.86-.39-1.24-.68-.39-.29-.72-.65-1-1.09-.28-.44-.5-.96-.67-1.56-.17-.61-.25-1.31-.25-2.12v-1.44Zm3.62,1.73c0,.6.07,1.08.2,1.46.13.38.31.68.52.89.22.22.47.36.75.45s.58.12.88.12.6-.04.89-.12.54-.23.76-.45c.22-.22.4-.52.54-.9.14-.38.21-.87.21-1.46v-2.59c0-.51-.05-.95-.16-1.31-.11-.36-.25-.66-.45-.89-.19-.23-.43-.4-.7-.51-.27-.11-.58-.16-.91-.16h-.34c-.67,0-1.2.23-1.6.69s-.59,1.19-.59,2.19v2.59Zm2.53-8.02c.27,0,.52-.04.75-.13.23-.09.44-.24.61-.45.17-.21.31-.49.41-.85.1-.36.15-.81.15-1.35v-1.94c0-.97-.16-1.71-.49-2.21-.33-.5-.86-.76-1.6-.76s-1.27.26-1.59.77c-.32.51-.47,1.26-.47,2.23v1.93c0,.52.04.96.13,1.31.09.35.21.64.38.85s.36.37.6.46c.23.09.5.14.79.14h.33Z"/><path class="cls-1" d="m167.76,247.98c.69,0,2.11-.84,3.46-1.46.04-.02.08-.03.12-.05-.07.17-.15.34-.23.52-.62,1.35-1.4,2.82-1.4,3.51,0,1.33,1.08,2.42,2.42,2.42s2.42-1.08,2.42-2.42c0-.69-.84-2.11-1.46-3.46-.1-.21-.18-.41-.26-.61.07.03.14.06.21.09,1.35.62,2.77,1.46,3.46,1.46,1.33,0,2.42-1.08,2.42-2.42s-1.08-2.42-2.42-2.42c-.69,0-2.15.78-3.51,1.4-.12.05-.23.1-.34.15l1-4.75h-1.52s-1.51,0-1.51,0l1.02,4.76c-.12-.05-.24-.11-.36-.16-1.35-.62-2.82-1.4-3.51-1.4-1.33,0-2.42,1.08-2.42,2.42s1.08,2.42,2.42,2.42Z"/><path class="cls-1" d="m178.11,261.77c0,.69-.07,1.3-.22,1.83s-.35,1-.61,1.4c-.26.4-.57.75-.93,1.04-.36.29-.74.54-1.16.75v.11c.3.16.61.37.91.62.31.25.58.55.83.91.25.36.45.79.61,1.28.16.49.23,1.05.23,1.68v1.65c0,.76-.09,1.42-.27,1.98-.18.56-.42,1.04-.72,1.43-.3.39-.64.71-1.04.96-.39.24-.8.43-1.22.57s-.83.23-1.25.28-.8.07-1.15.07-.74-.02-1.16-.07c-.41-.05-.83-.14-1.25-.28s-.83-.33-1.22-.57c-.39-.24-.74-.56-1.04-.95-.3-.39-.55-.86-.73-1.42-.18-.56-.28-1.22-.28-1.98v-1.65c0-.63.08-1.19.23-1.68.16-.49.36-.92.6-1.28s.52-.67.83-.91c.31-.25.61-.45.91-.62v-.11c-.42-.21-.81-.46-1.16-.75-.35-.29-.66-.63-.92-1.04-.26-.4-.47-.87-.61-1.4-.15-.53-.22-1.14-.22-1.83v-1.44c0-.81.08-1.51.25-2.12.17-.6.39-1.13.68-1.57.29-.44.63-.8,1.01-1.09.39-.28.8-.51,1.24-.68.44-.17.91-.29,1.39-.36.48-.07.96-.1,1.44-.1s.95.03,1.43.1c.48.07.94.19,1.38.35.44.17.86.39,1.24.68.39.29.72.65,1,1.09.28.44.5.96.67,1.56.17.61.25,1.31.25,2.12v1.44Zm-3.62-1.73c0-.6-.07-1.08-.2-1.46-.13-.38-.31-.68-.52-.89-.22-.22-.47-.36-.75-.45-.28-.08-.58-.12-.88-.12s-.6.04-.89.12-.54.23-.76.45c-.22.22-.4.52-.54.9-.14.38-.21.87-.21,1.46v2.59c0,.51.05.95.16,1.31.11.36.25.66.45.89.19.23.43.4.7.51.27.11.58.16.91.16h.34c.67,0,1.2-.23,1.6-.69s.59-1.19.59-2.19v-2.59Zm-2.53,8.02c-.27,0-.52.04-.75.13-.23.09-.44.24-.61.45-.17.21-.31.49-.41.85-.1.36-.15.81-.15,1.35v1.94c0,.97.16,1.71.49,2.21.33.5.86.76,1.6.76s1.27-.26,1.59-.77c.32-.51.47-1.26.47-2.23v-1.93c0-.52-.04-.96-.13-1.31-.09-.35-.21-.64-.38-.85s-.36-.37-.6-.46c-.23-.09-.5-.14-.79-.14h-.33Z"/></g><g><path class="cls-1" d="m69.57,42.68c-1.9,0-5.82,2.32-9.56,4.04-.11.05-.21.09-.32.14.21-.47.42-.95.64-1.44,1.72-3.74,3.86-7.79,3.86-9.69,0-3.69-2.99-6.68-6.68-6.68s-6.68,2.99-6.68,6.68c0,1.9,2.32,5.82,4.04,9.56.26.57.5,1.14.73,1.69-.2-.09-.39-.17-.59-.26-3.74-1.72-7.66-4.04-9.56-4.04-3.69,0-6.68,2.99-6.68,6.68s2.99,6.68,6.68,6.68c1.9,0,5.95-2.14,9.69-3.86.32-.15.64-.29.95-.43l-2.77,13.14h4.21s4.18,0,4.18,0l-2.83-13.16c.33.15.67.29,1.01.45,3.74,1.72,7.79,3.86,9.69,3.86,3.69,0,6.68-2.99,6.68-6.68s-2.99-6.68-6.68-6.68Z"/><path class="cls-1" d="m45.46,249.96c1.9,0,5.82-2.32,9.56-4.04.11-.05.21-.09.32-.14-.21.47-.42.95-.64,1.44-1.72,3.74-3.86,7.79-3.86,9.69,0,3.69,2.99,6.68,6.68,6.68s6.68-2.99,6.68-6.68c0-1.9-2.32-5.82-4.04-9.56-.26-.57-.5-1.14-.73-1.69.2.09.39.17.59.26,3.74,1.72,7.66,4.04,9.56,4.04,3.69,0,6.68-2.99,6.68-6.68s-2.99-6.68-6.68-6.68c-1.9,0-5.95,2.14-9.69,3.86-.32.15-.64.29-.95.43l2.77-13.14h-4.21s-4.18,0-4.18,0l2.83,13.16c-.33-.15-.67-.29-1.01-.45-3.74-1.72-7.79-3.86-9.69-3.86-3.69,0-6.68,2.99-6.68,6.68s2.99,6.68,6.68,6.68Z"/><path class="cls-1" d="m145.25,42.68c-1.9,0-5.82,2.32-9.56,4.04-.11.05-.21.09-.32.14.21-.47.42-.95.64-1.44,1.72-3.74,3.86-7.79,3.86-9.69,0-3.69-2.99-6.68-6.68-6.68s-6.68,2.99-6.68,6.68c0,1.9,2.32,5.82,4.04,9.56.26.57.5,1.14.73,1.69-.2-.09-.39-.17-.59-.26-3.74-1.72-7.66-4.04-9.56-4.04-3.69,0-6.68,2.99-6.68,6.68s2.99,6.68,6.68,6.68c1.9,0,5.95-2.14,9.69-3.86.32-.15.64-.29.95-.43l-2.77,13.14h4.21s4.18,0,4.18,0l-2.83-13.16c.33.15.67.29,1.01.45,3.74,1.72,7.79,3.86,9.69,3.86,3.69,0,6.68-2.99,6.68-6.68s-2.99-6.68-6.68-6.68Z"/><path class="cls-1" d="m69.57,142.03c-1.9,0-5.82,2.32-9.56,4.04-.11.05-.21.09-.32.14.21-.47.42-.95.64-1.44,1.72-3.74,3.86-7.79,3.86-9.69,0-3.69-2.99-6.68-6.68-6.68s-6.68,2.99-6.68,6.68c0,1.9,2.32,5.82,4.04,9.56.26.57.5,1.14.73,1.69-.2-.09-.39-.17-.59-.26-3.74-1.72-7.66-4.04-9.56-4.04-3.69,0-6.68,2.99-6.68,6.68s2.99,6.68,6.68,6.68c1.9,0,5.95-2.14,9.69-3.86.32-.15.64-.29.95-.43l-2.77,13.14h4.21s4.18,0,4.18,0l-2.83-13.16c.33.15.67.29,1.01.45,3.74,1.72,7.79,3.86,9.69,3.86,3.69,0,6.68-2.99,6.68-6.68s-2.99-6.68-6.68-6.68Z"/><path class="cls-1" d="m145.25,142.03c-1.9,0-5.82,2.32-9.56,4.04-.11.05-.21.09-.32.14.21-.47.42-.95.64-1.44,1.72-3.74,3.86-7.79,3.86-9.69,0-3.69-2.99-6.68-6.68-6.68s-6.68,2.99-6.68,6.68c0,1.9,2.32,5.82,4.04,9.56.26.57.5,1.14.73,1.69-.2-.09-.39-.17-.59-.26-3.74-1.72-7.66-4.04-9.56-4.04-3.69,0-6.68,2.99-6.68,6.68s2.99,6.68,6.68,6.68c1.9,0,5.95-2.14,9.69-3.86.32-.15.64-.29.95-.43l-2.77,13.14h4.21s4.18,0,4.18,0l-2.83-13.16c.33.15.67.29,1.01.45,3.74,1.72,7.79,3.86,9.69,3.86,3.69,0,6.68-2.99,6.68-6.68s-2.99-6.68-6.68-6.68Z"/><path class="cls-1" d="m121.14,249.96c1.9,0,5.82-2.32,9.56-4.04.11-.05.21-.09.32-.14-.21.47-.42.95-.64,1.44-1.72,3.74-3.86,7.79-3.86,9.69,0,3.69,2.99,6.68,6.68,6.68s6.68-2.99,6.68-6.68c0-1.9-2.32-5.82-4.04-9.56-.26-.57-.5-1.14-.73-1.69.2.09.39.17.59.26,3.74,1.72,7.66,4.04,9.56,4.04,3.69,0,6.68-2.99,6.68-6.68s-2.99-6.68-6.68-6.68c-1.9,0-5.95,2.14-9.69,3.86-.32.15-.64.29-.95.43l2.77-13.14h-4.21s-4.18,0-4.18,0l2.83,13.16c-.33-.15-.67-.29-1.01-.45-3.74-1.72-7.79-3.86-9.69-3.86-3.69,0-6.68,2.99-6.68,6.68s2.99,6.68,6.68,6.68Z"/><path class="cls-1" d="m107.41,92.35c-1.9,0-5.82,2.32-9.56,4.04-.11.05-.21.09-.32.14.21-.47.42-.95.64-1.44,1.72-3.74,3.86-7.79,3.86-9.69,0-3.69-2.99-6.68-6.68-6.68s-6.68,2.99-6.68,6.68c0,1.9,2.32,5.82,4.04,9.56.26.57.5,1.14.73,1.69-.2-.09-.39-.17-.59-.26-3.74-1.72-7.66-4.04-9.56-4.04-3.69,0-6.68,2.99-6.68,6.68s2.99,6.68,6.68,6.68c1.9,0,5.95-2.14,9.69-3.86.32-.15.64-.29.95-.43l-2.77,13.14h4.21s4.18,0,4.18,0l-2.83-13.16c.33.15.67.29,1.01.45,3.74,1.72,7.79,3.86,9.69,3.86,3.69,0,6.68-2.99,6.68-6.68s-2.99-6.68-6.68-6.68Z"/><path class="cls-1" d="m83.3,200.29c1.9,0,5.82-2.32,9.56-4.04.11-.05.21-.09.32-.14-.21.47-.42.95-.64,1.44-1.72,3.74-3.86,7.79-3.86,9.69,0,3.69,2.99,6.68,6.68,6.68s6.68-2.99,6.68-6.68c0-1.9-2.32-5.82-4.04-9.56-.26-.57-.5-1.14-.73-1.69.2.09.39.17.59.26,3.74,1.72,7.66,4.04,9.56,4.04,3.69,0,6.68-2.99,6.68-6.68s-2.99-6.68-6.68-6.68c-1.9,0-5.95,2.14-9.69,3.86-.32.15-.64.29-.95.43l2.77-13.14h-4.21s-4.18,0-4.18,0l2.83,13.16c-.33-.15-.67-.29-1.01-.45-3.74-1.72-7.79-3.86-9.69-3.86-3.69,0-6.68,2.99-6.68,6.68s2.99,6.68,6.68,6.68Z"/></g></g></g></svg>