<?xml version="1.0" encoding="UTF-8"?><svg id="Layer_2" xmlns="http://www.w3.org/2000/svg" viewBox="0 0 190.71 292.64"><defs><style>.cls-1{fill:#b4171e;}</style></defs><g id="_ÎÓÈ_1"><g><g><path d="m11.28,0h168.15c6.23,0,11.28,5.05,11.28,11.28v270.08c0,6.23-5.05,11.28-11.28,11.28H11.28c-6.23,0-11.28-5.05-11.28-11.28V11.28C0,5.05,5.05,0,11.28,0Z"/><path class="cls-1" d="m12.6,30.87c0-.69.07-1.3.22-1.83.15-.53.35-1,.61-1.4.26-.4.57-.75.93-1.04s.74-.54,1.16-.75v-.11c-.3-.16-.61-.37-.91-.62-.31-.25-.58-.55-.83-.91s-.45-.79-.61-1.28c-.16-.49-.23-1.05-.23-1.68v-1.65c0-.76.09-1.42.27-1.98.18-.56.42-1.04.72-1.43s.64-.71,1.04-.96c.39-.24.8-.43,1.22-.57.42-.14.83-.23,1.25-.28.42-.05.8-.07,1.15-.07s.74.02,1.16.07c.41.05.83.14,1.25.28s.83.33,1.22.57c.39.24.74.56,1.04.95.3.39.55.86.73,1.42.18.56.28,1.22.28,1.98v1.65c0,.63-.08,1.19-.23,1.68-.16.49-.36.92-.6,1.28-.25.36-.52.67-.83.91-.31.25-.61.45-.91.62v.11c.42.21.81.46,1.16.75.35.29.66.63.92,1.04.26.4.47.87.61,1.4s.22,1.14.22,1.83v1.44c0,.81-.08,1.51-.25,2.12-.16.6-.39,1.13-.68,1.57-.29.44-.63.8-1.01,1.09s-.8.51-1.24.68c-.44.17-.91.29-1.39.36-.48.07-.96.1-1.44.1s-.95-.03-1.43-.1c-.48-.07-.94-.19-1.38-.35-.44-.16-.86-.39-1.24-.68-.39-.29-.72-.65-1-1.09-.28-.44-.5-.96-.67-1.56-.16-.61-.25-1.31-.25-2.12v-1.44Zm3.62,1.73c0,.6.07,1.08.2,1.46.13.38.31.68.52.89.22.22.47.36.75.45s.58.12.88.12.6-.04.89-.12c.29-.08.54-.23.76-.45.22-.22.4-.52.54-.9.14-.38.21-.87.21-1.46v-2.59c0-.51-.05-.95-.16-1.31s-.25-.66-.45-.89c-.19-.23-.43-.4-.7-.51-.27-.11-.58-.16-.91-.16h-.34c-.67,0-1.2.23-1.6.69-.39.46-.59,1.19-.59,2.19v2.59Zm2.53-8.02c.27,0,.52-.04.75-.13.23-.09.44-.24.61-.45.17-.21.31-.49.41-.85.1-.36.15-.81.15-1.35v-1.94c0-.97-.16-1.71-.49-2.21-.33-.5-.86-.76-1.6-.76s-1.27.26-1.59.77c-.32.51-.47,1.26-.47,2.23v1.93c0,.52.04.96.13,1.31.09.35.21.64.38.85.17.22.36.37.6.46.23.09.5.14.79.14h.33Z"/><path class="cls-1" d="m178.11,261.77c0,.69-.07,1.3-.22,1.83-.15.53-.35,1-.61,1.4-.26.4-.57.75-.93,1.04s-.74.54-1.16.75v.11c.3.16.61.37.91.62.31.25.58.55.83.91s.45.79.61,1.28c.16.49.23,1.05.23,1.68v1.65c0,.76-.09,1.42-.27,1.98-.18.56-.42,1.04-.72,1.43s-.64.71-1.04.96c-.39.24-.8.43-1.22.57-.42.14-.83.23-1.25.28-.42.05-.8.07-1.15.07s-.74-.02-1.16-.07c-.41-.05-.83-.14-1.25-.28s-.83-.33-1.22-.57c-.39-.24-.74-.56-1.04-.95-.3-.39-.55-.86-.73-1.42-.18-.56-.28-1.22-.28-1.98v-1.65c0-.63.08-1.19.23-1.68.16-.49.36-.92.6-1.28.25-.36.52-.67.83-.91.31-.25.61-.45.91-.62v-.11c-.42-.21-.81-.46-1.16-.75-.35-.29-.66-.63-.92-1.04-.26-.4-.47-.87-.61-1.4s-.22-1.14-.22-1.83v-1.44c0-.81.08-1.51.25-2.12.17-.6.39-1.13.68-1.57.29-.44.63-.8,1.01-1.09s.8-.51,1.24-.68c.44-.17.91-.29,1.39-.36.48-.07.96-.1,1.44-.1s.95.03,1.43.1c.48.07.94.19,1.38.35.44.16.86.39,1.24.68.39.29.72.65,1,1.09.28.44.5.96.67,1.56.17.61.25,1.31.25,2.12v1.44Zm-3.62-1.73c0-.6-.07-1.08-.2-1.46-.13-.38-.31-.68-.52-.89-.22-.22-.47-.36-.75-.45s-.58-.12-.88-.12-.6.04-.89.12c-.29.08-.54.23-.76.45-.22.22-.4.52-.54.9-.14.38-.21.87-.21,1.46v2.59c0,.51.05.95.16,1.31s.25.66.45.89c.19.23.43.4.7.51.27.11.58.16.91.16h.34c.67,0,1.2-.23,1.6-.69.39-.46.59-1.19.59-2.19v-2.59Zm-2.53,8.02c-.27,0-.52.04-.75.13-.23.09-.44.24-.61.45-.17.21-.31.49-.41.85-.1.36-.15.81-.15,1.35v1.94c0,.97.16,1.71.49,2.21.33.5.86.76,1.6.76s1.27-.26,1.59-.77c.32-.51.47-1.26.47-2.23v-1.93c0-.52-.04-.96-.13-1.31-.09-.35-.21-.64-.38-.85-.17-.22-.36-.37-.6-.46-.23-.09-.5-.14-.79-.14h-.33Z"/></g><g><polygon class="cls-1" points="18.59 52.7 13.31 46.21 18.59 39.73 23.86 46.21 18.59 52.7"/><polygon class="cls-1" points="172.12 239.94 177.39 246.43 172.12 252.91 166.84 246.43 172.12 239.94"/></g><g><g><polygon class="cls-1" points="57.51 68.07 41.64 48.56 57.51 29.05 73.38 48.56 57.51 68.07"/><polygon class="cls-1" points="57.51 165.83 41.64 146.32 57.51 126.81 73.38 146.32 57.51 165.83"/><polygon class="cls-1" points="133.2 165.83 117.32 146.32 133.2 126.81 149.07 146.32 133.2 165.83"/><polygon class="cls-1" points="57.51 224.57 73.38 244.08 57.51 263.59 41.64 244.08 57.51 224.57"/></g><g><polygon class="cls-1" points="133.2 68.07 117.32 48.56 133.2 29.05 149.07 48.56 133.2 68.07"/><polygon class="cls-1" points="95.35 116.95 79.48 97.44 95.35 77.93 111.23 97.44 95.35 116.95"/><polygon class="cls-1" points="95.35 175.69 111.23 195.2 95.35 214.71 79.48 195.2 95.35 175.69"/><polygon class="cls-1" points="133.2 224.57 149.07 244.08 133.2 263.59 117.32 244.08 133.2 224.57"/></g></g></g></g></svg>