<?xml version="1.0" encoding="UTF-8"?><svg id="Layer_2" xmlns="http://www.w3.org/2000/svg" viewBox="0 0 190.71 292.64"><defs><style>.cls-1{fill:#eac26b;}</style></defs><g id="_ÎÓÈ_1"><g><g><g><rect width="190.71" height="292.64" rx="11.28" ry="11.28"/><path class="cls-1" d="m22.95,44.66c-.69,0-2.11.84-3.46,1.46-.04.02-.08.03-.12.05.07-.17.15-.34.23-.52.62-1.35,1.4-2.82,1.4-3.51,0-1.33-1.08-2.42-2.42-2.42s-2.42,1.08-2.42,2.42c0,.69.84,2.11,1.46,3.46.1.21.18.41.26.61-.07-.03-.14-.06-.21-.09-1.35-.62-2.77-1.46-3.46-1.46-1.33,0-2.42,1.08-2.42,2.42s1.08,2.42,2.42,2.42c.69,0,2.15-.78,3.51-1.4.12-.05.23-.1.34-.15l-1,4.75h1.52s1.51,0,1.51,0l-1.02-4.76c.12.05.24.11.36.16,1.35.62,2.82,1.4,3.5,1.4,1.33,0,2.42-1.08,2.42-2.42s-1.08-2.42-2.42-2.42Z"/></g><path class="cls-1" d="m24.36,31.15c0,1.08-.1,2.01-.29,2.78-.19.77-.45,1.42-.77,1.95-.32.53-.69.94-1.09,1.25-.41.31-.83.54-1.27.71s-.87.27-1.3.32c-.43.05-.82.07-1.18.07-.97,0-1.8-.12-2.49-.36-.69-.24-1.25-.57-1.68-.98-.43-.41-.75-.88-.95-1.42s-.3-1.11-.3-1.71c0-.32.03-.67.09-1.06.06-.39.15-.77.28-1.16h2.71v.51c0,.72.05,1.3.14,1.75.09.45.23.8.43,1.07.19.26.44.44.73.54.29.1.64.14,1.05.14.73,0,1.3-.27,1.7-.8.4-.54.6-1.4.6-2.58v-4.32c-.35.39-.8.71-1.35.97-.55.26-1.2.39-1.94.39-.53,0-1.07-.08-1.62-.25-.55-.17-1.05-.47-1.5-.91-.45-.44-.82-1.03-1.1-1.77-.28-.75-.43-1.7-.43-2.87v-2.28c0-1.25.13-2.3.39-3.17.26-.87.63-1.57,1.12-2.1.49-.54,1.07-.92,1.75-1.16.68-.24,1.45-.36,2.3-.36.96,0,1.81.12,2.55.36.74.24,1.36.64,1.87,1.19.51.55.89,1.27,1.16,2.17.26.9.39,2,.39,3.31v9.79Zm-3.6-11.37c0-.53-.05-.98-.14-1.35s-.23-.67-.42-.89-.43-.39-.72-.49c-.29-.1-.64-.15-1.05-.15-.71,0-1.22.25-1.55.76-.33.5-.5,1.26-.5,2.27v3.6c0,.57.05,1.05.15,1.43.1.39.24.69.43.93.18.23.4.4.66.5.26.1.55.15.87.15.25,0,.48-.04.71-.11.22-.07.43-.17.63-.29s.37-.26.52-.41.29-.31.41-.47v-5.47Z"/><path class="cls-1" d="m167.76,247.98c.69,0,2.11-.84,3.46-1.46.04-.02.08-.03.12-.05-.07.17-.15.34-.23.52-.62,1.35-1.4,2.82-1.4,3.51,0,1.33,1.08,2.42,2.42,2.42s2.42-1.08,2.42-2.42c0-.69-.84-2.11-1.46-3.46-.1-.21-.18-.41-.26-.61.07.03.14.06.21.09,1.35.62,2.77,1.46,3.46,1.46,1.33,0,2.42-1.08,2.42-2.42s-1.08-2.42-2.42-2.42c-.69,0-2.15.78-3.5,1.4-.12.05-.23.1-.34.15l1-4.75h-1.52s-1.51,0-1.51,0l1.02,4.76c-.12-.05-.24-.11-.36-.16-1.35-.62-2.82-1.4-3.5-1.4-1.33,0-2.42,1.08-2.42,2.42s1.08,2.42,2.42,2.42Z"/><path class="cls-1" d="m166.35,261.49c0-1.08.1-2.01.29-2.78.19-.77.45-1.42.77-1.95.32-.53.69-.94,1.09-1.25.41-.31.83-.54,1.27-.71s.87-.27,1.3-.32c.43-.05.82-.07,1.18-.07.97,0,1.8.12,2.49.36.69.24,1.25.57,1.68.98.43.41.75.88.95,1.42s.3,1.11.3,1.71c0,.32-.03.67-.09,1.06-.06.38-.15.77-.28,1.16h-2.71v-.51c0-.72-.05-1.3-.14-1.75-.09-.45-.23-.8-.43-1.07-.19-.26-.44-.44-.73-.54-.29-.1-.64-.14-1.05-.14-.73,0-1.3.27-1.7.8-.4.54-.6,1.4-.6,2.58v4.32c.35-.39.8-.71,1.35-.97.55-.26,1.2-.39,1.94-.39.53,0,1.07.08,1.62.25.55.17,1.05.47,1.5.91.45.44.82,1.03,1.1,1.77.28.75.43,1.7.43,2.87v2.28c0,1.25-.13,2.3-.39,3.17-.26.87-.63,1.57-1.12,2.1-.49.54-1.07.92-1.75,1.16-.68.24-1.45.36-2.3.36-.96,0-1.81-.12-2.55-.36-.74-.24-1.36-.64-1.87-1.19-.51-.55-.89-1.27-1.16-2.17-.26-.9-.39-2-.39-3.31v-9.79Zm3.6,11.37c0,.53.05.98.14,1.35s.23.67.42.89.43.39.72.49c.29.1.64.15,1.05.15.71,0,1.22-.25,1.55-.76.33-.5.5-1.26.5-2.27v-3.6c0-.57-.05-1.05-.15-1.43-.1-.39-.24-.69-.43-.93-.18-.23-.4-.4-.66-.5-.26-.1-.55-.15-.87-.15-.25,0-.48.04-.71.11-.22.07-.43.17-.63.29s-.37.26-.52.41-.29.31-.41.47v5.47Z"/></g><g><path class="cls-1" d="m69.57,42.68c-1.9,0-5.82,2.32-9.56,4.04-.11.05-.21.09-.32.14.21-.47.42-.95.64-1.44,1.72-3.74,3.86-7.79,3.86-9.69,0-3.69-2.99-6.68-6.68-6.68s-6.68,2.99-6.68,6.68c0,1.9,2.32,5.82,4.04,9.56.26.57.5,1.14.73,1.69-.2-.09-.39-.17-.59-.26-3.74-1.72-7.66-4.04-9.56-4.04-3.69,0-6.68,2.99-6.68,6.68s2.99,6.68,6.68,6.68c1.9,0,5.95-2.14,9.69-3.86.32-.15.64-.29.95-.43l-2.77,13.14h4.21s4.18,0,4.18,0l-2.83-13.16c.33.15.67.29,1.01.45,3.74,1.72,7.79,3.86,9.69,3.86,3.69,0,6.68-2.99,6.68-6.68s-2.99-6.68-6.68-6.68Z"/><path class="cls-1" d="m45.46,249.96c1.9,0,5.82-2.32,9.56-4.04.11-.05.21-.09.32-.14-.21.47-.42.95-.64,1.44-1.72,3.74-3.86,7.79-3.86,9.69,0,3.69,2.99,6.68,6.68,6.68s6.68-2.99,6.68-6.68c0-1.9-2.32-5.82-4.04-9.56-.26-.57-.5-1.14-.73-1.69.2.09.39.17.59.26,3.74,1.72,7.66,4.04,9.56,4.04,3.69,0,6.68-2.99,6.68-6.68s-2.99-6.68-6.68-6.68c-1.9,0-5.95,2.14-9.69,3.86-.32.15-.64.29-.95.43l2.77-13.14h-4.21s-4.18,0-4.18,0l2.83,13.16c-.33-.15-.67-.29-1.01-.45-3.74-1.72-7.79-3.86-9.69-3.86-3.69,0-6.68,2.99-6.68,6.68s2.99,6.68,6.68,6.68Z"/><path class="cls-1" d="m145.25,42.68c-1.9,0-5.82,2.32-9.56,4.04-.11.05-.21.09-.32.14.21-.47.42-.95.64-1.44,1.72-3.74,3.86-7.79,3.86-9.69,0-3.69-2.99-6.68-6.68-6.68s-6.68,2.99-6.68,6.68c0,1.9,2.32,5.82,4.04,9.56.26.57.5,1.14.73,1.69-.2-.09-.39-.17-.59-.26-3.74-1.72-7.66-4.04-9.56-4.04-3.69,0-6.68,2.99-6.68,6.68s2.99,6.68,6.68,6.68c1.9,0,5.95-2.14,9.69-3.86.32-.15.64-.29.95-.43l-2.77,13.14h4.21s4.18,0,4.18,0l-2.83-13.16c.33.15.67.29,1.01.45,3.74,1.72,7.79,3.86,9.69,3.86,3.69,0,6.68-2.99,6.68-6.68s-2.99-6.68-6.68-6.68Z"/><path class="cls-1" d="m69.57,108.91c-1.9,0-5.82,2.32-9.56,4.04-.11.05-.21.09-.32.14.21-.47.42-.95.64-1.44,1.72-3.74,3.86-7.79,3.86-9.69,0-3.69-2.99-6.68-6.68-6.68s-6.68,2.99-6.68,6.68c0,1.9,2.32,5.82,4.04,9.56.26.57.5,1.14.73,1.69-.2-.09-.39-.17-.59-.26-3.74-1.72-7.66-4.04-9.56-4.04-3.69,0-6.68,2.99-6.68,6.68s2.99,6.68,6.68,6.68c1.9,0,5.95-2.14,9.69-3.86.32-.15.64-.29.95-.43l-2.77,13.14h4.21s4.18,0,4.18,0l-2.83-13.16c.33.15.67.29,1.01.45,3.74,1.72,7.79,3.86,9.69,3.86,3.69,0,6.68-2.99,6.68-6.68s-2.99-6.68-6.68-6.68Z"/><path class="cls-1" d="m145.25,108.91c-1.9,0-5.82,2.32-9.56,4.04-.11.05-.21.09-.32.14.21-.47.42-.95.64-1.44,1.72-3.74,3.86-7.79,3.86-9.69,0-3.69-2.99-6.68-6.68-6.68s-6.68,2.99-6.68,6.68c0,1.9,2.32,5.82,4.04,9.56.26.57.5,1.14.73,1.69-.2-.09-.39-.17-.59-.26-3.74-1.72-7.66-4.04-9.56-4.04-3.69,0-6.68,2.99-6.68,6.68s2.99,6.68,6.68,6.68c1.9,0,5.95-2.14,9.69-3.86.32-.15.64-.29.95-.43l-2.77,13.14h4.21s4.18,0,4.18,0l-2.83-13.16c.33.15.67.29,1.01.45,3.74,1.72,7.79,3.86,9.69,3.86,3.69,0,6.68-2.99,6.68-6.68s-2.99-6.68-6.68-6.68Z"/><path class="cls-1" d="m121.14,249.96c1.9,0,5.82-2.32,9.56-4.04.11-.05.21-.09.32-.14-.21.47-.42.95-.64,1.44-1.72,3.74-3.86,7.79-3.86,9.69,0,3.69,2.99,6.68,6.68,6.68s6.68-2.99,6.68-6.68c0-1.9-2.32-5.82-4.04-9.56-.26-.57-.5-1.14-.73-1.69.2.09.39.17.59.26,3.74,1.72,7.66,4.04,9.56,4.04,3.69,0,6.68-2.99,6.68-6.68s-2.99-6.68-6.68-6.68c-1.9,0-5.95,2.14-9.69,3.86-.32.15-.64.29-.95.43l2.77-13.14h-4.21s-4.18,0-4.18,0l2.83,13.16c-.33-.15-.67-.29-1.01-.45-3.74-1.72-7.79-3.86-9.69-3.86-3.69,0-6.68,2.99-6.68,6.68s2.99,6.68,6.68,6.68Z"/><path class="cls-1" d="m107.41,142.03c-1.9,0-5.82,2.32-9.56,4.04-.11.05-.21.09-.32.14.21-.47.42-.95.64-1.44,1.72-3.74,3.86-7.79,3.86-9.69,0-3.69-2.99-6.68-6.68-6.68s-6.68,2.99-6.68,6.68c0,1.9,2.32,5.82,4.04,9.56.26.57.5,1.14.73,1.69-.2-.09-.39-.17-.59-.26-3.74-1.72-7.66-4.04-9.56-4.04-3.69,0-6.68,2.99-6.68,6.68s2.99,6.68,6.68,6.68c1.9,0,5.95-2.14,9.69-3.86.32-.15.64-.29.95-.43l-2.77,13.14h4.21s4.18,0,4.18,0l-2.83-13.16c.33.15.67.29,1.01.45,3.74,1.72,7.79,3.86,9.69,3.86,3.69,0,6.68-2.99,6.68-6.68s-2.99-6.68-6.68-6.68Z"/><path class="cls-1" d="m45.46,183.73c1.9,0,5.82-2.32,9.56-4.04.11-.05.21-.09.32-.14-.21.47-.42.95-.64,1.44-1.72,3.74-3.86,7.79-3.86,9.69,0,3.69,2.99,6.68,6.68,6.68s6.68-2.99,6.68-6.68c0-1.9-2.32-5.82-4.04-9.56-.26-.57-.5-1.14-.73-1.69.2.09.39.17.59.26,3.74,1.72,7.66,4.04,9.56,4.04,3.69,0,6.68-2.99,6.68-6.68s-2.99-6.68-6.68-6.68c-1.9,0-5.95,2.14-9.69,3.86-.32.15-.64.29-.95.43l2.77-13.14h-4.21s-4.18,0-4.18,0l2.83,13.16c-.33-.15-.67-.29-1.01-.45-3.74-1.72-7.79-3.86-9.69-3.86-3.69,0-6.68,2.99-6.68,6.68s2.99,6.68,6.68,6.68Z"/><path class="cls-1" d="m121.14,183.73c1.9,0,5.82-2.32,9.56-4.04.11-.05.21-.09.32-.14-.21.47-.42.95-.64,1.44-1.72,3.74-3.86,7.79-3.86,9.69,0,3.69,2.99,6.68,6.68,6.68s6.68-2.99,6.68-6.68c0-1.9-2.32-5.82-4.04-9.56-.26-.57-.5-1.14-.73-1.69.2.09.39.17.59.26,3.74,1.72,7.66,4.04,9.56,4.04,3.69,0,6.68-2.99,6.68-6.68s-2.99-6.68-6.68-6.68c-1.9,0-5.95,2.14-9.69,3.86-.32.15-.64.29-.95.43l2.77-13.14h-4.21s-4.18,0-4.18,0l2.83,13.16c-.33-.15-.67-.29-1.01-.45-3.74-1.72-7.79-3.86-9.69-3.86-3.69,0-6.68,2.99-6.68,6.68s2.99,6.68,6.68,6.68Z"/></g></g></g></svg>