<?xml version="1.0" encoding="UTF-8"?><svg id="Layer_2" xmlns="http://www.w3.org/2000/svg" viewBox="0 0 190.71 292.64"><defs><style>.cls-1{fill:#b4171e;}</style></defs><g id="_ÎÓÈ_1"><g><g><path d="m11.28,0h168.15C185.65,0,190.71,5.05,190.71,11.28v270.08c0,6.23-5.05,11.28-11.28,11.28H11.28C5.05,292.64,0,287.59,0,281.36V11.28C0,5.05,5.05,0,11.28,0Z"/><path class="cls-1" d="m24.36,31.15c0,1.08-.1,2.01-.29,2.78s-.45,1.42-.77,1.95c-.32.53-.69.94-1.09,1.25-.41.31-.83.54-1.27.71-.44.16-.87.27-1.3.32-.43.05-.82.07-1.18.07-.97,0-1.8-.12-2.49-.36-.69-.24-1.25-.57-1.68-.98s-.75-.88-.95-1.42c-.2-.54-.3-1.11-.3-1.71,0-.32.03-.67.09-1.06.06-.39.15-.77.28-1.16h2.71v.51c0,.72.05,1.3.14,1.75s.23.8.43,1.07c.19.26.44.44.73.54.29.1.64.14,1.05.14.73,0,1.3-.27,1.7-.8.4-.54.6-1.4.6-2.58v-4.32c-.35.39-.8.71-1.35.97-.55.26-1.2.39-1.94.39-.53,0-1.07-.08-1.62-.25-.55-.17-1.05-.47-1.5-.91s-.82-1.03-1.1-1.77c-.28-.75-.43-1.7-.43-2.87v-2.28c0-1.25.13-2.3.39-3.17.26-.87.63-1.57,1.12-2.1.49-.54,1.07-.92,1.75-1.16.68-.24,1.45-.36,2.3-.36.96,0,1.81.12,2.55.36.74.24,1.36.64,1.87,1.19.51.55.89,1.27,1.16,2.17.26.9.39,2,.39,3.31v9.79Zm-3.6-11.37c0-.53-.05-.98-.14-1.35-.09-.37-.23-.67-.42-.89-.19-.22-.43-.39-.72-.49-.29-.1-.64-.15-1.05-.15-.71,0-1.22.25-1.55.76-.33.5-.5,1.26-.5,2.27v3.6c0,.57.05,1.05.15,1.43.1.39.24.69.43.93.18.23.4.4.66.5.26.1.55.15.87.15.25,0,.48-.04.71-.11.22-.07.43-.17.63-.29.19-.12.37-.26.52-.41s.29-.31.41-.47v-5.47Z"/><path class="cls-1" d="m166.35,261.49c0-1.08.1-2.01.29-2.78s.45-1.42.77-1.95c.32-.53.69-.94,1.09-1.25.41-.31.83-.54,1.27-.71.44-.16.87-.27,1.3-.32.43-.05.82-.07,1.18-.07.97,0,1.8.12,2.49.36.69.24,1.25.57,1.68.98s.75.88.95,1.42c.2.54.3,1.11.3,1.71,0,.32-.03.67-.09,1.06-.06.39-.15.77-.28,1.16h-2.71v-.51c0-.72-.05-1.3-.14-1.75s-.23-.8-.43-1.07c-.19-.26-.44-.44-.73-.54-.29-.1-.64-.14-1.05-.14-.73,0-1.3.27-1.7.8-.4.54-.6,1.4-.6,2.58v4.32c.35-.39.8-.71,1.35-.97.55-.26,1.2-.39,1.94-.39.53,0,1.07.08,1.62.25.55.17,1.05.47,1.5.91s.82,1.03,1.1,1.77c.28.75.43,1.7.43,2.87v2.28c0,1.25-.13,2.3-.39,3.17-.26.87-.63,1.57-1.12,2.1-.49.54-1.07.92-1.75,1.16-.68.24-1.45.36-2.3.36-.96,0-1.81-.12-2.55-.36-.74-.24-1.36-.64-1.87-1.19-.51-.55-.89-1.27-1.16-2.17-.26-.9-.39-2-.39-3.31v-9.79Zm3.6,11.37c0,.53.05.98.14,1.35.09.37.23.67.42.89.19.22.43.39.72.49.29.1.64.15,1.05.15.71,0,1.22-.25,1.55-.76.33-.5.5-1.26.5-2.27v-3.6c0-.57-.05-1.05-.15-1.43-.1-.39-.24-.69-.43-.93-.18-.23-.4-.4-.66-.5-.26-.1-.55-.15-.87-.15-.25,0-.48.04-.71.11-.22.07-.43.17-.63.29-.19.12-.37.26-.52.41s-.29.31-.41.47v5.47Z"/></g><g><polygon class="cls-1" points="18.59 52.7 13.31 46.21 18.59 39.73 23.86 46.21 18.59 52.7"/><polygon class="cls-1" points="172.12 239.94 177.39 246.43 172.12 252.91 166.84 246.43 172.12 239.94"/></g><g><g><polygon class="cls-1" points="57.51 68.07 41.64 48.56 57.51 29.05 73.38 48.56 57.51 68.07"/><polygon class="cls-1" points="57.51 133.25 41.64 113.73 57.51 94.22 73.38 113.73 57.51 133.25"/><polygon class="cls-1" points="133.2 198.42 117.32 178.91 133.2 159.39 149.07 178.91 133.2 198.42"/><polygon class="cls-1" points="57.51 224.57 73.38 244.08 57.51 263.59 41.64 244.08 57.51 224.57"/></g><g><polygon class="cls-1" points="133.2 68.07 117.32 48.56 133.2 29.05 149.07 48.56 133.2 68.07"/><polygon class="cls-1" points="95.35 165.83 79.48 146.32 95.35 126.81 111.23 146.32 95.35 165.83"/><polygon class="cls-1" points="133.2 133.25 117.32 113.73 133.2 94.22 149.07 113.73 133.2 133.25"/><polygon class="cls-1" points="57.51 159.39 73.38 178.91 57.51 198.42 41.64 178.91 57.51 159.39"/><polygon class="cls-1" points="133.2 224.57 149.07 244.08 133.2 263.59 117.32 244.08 133.2 224.57"/></g></g></g></g></svg>