<?xml version="1.0" encoding="UTF-8"?><svg id="Layer_2" xmlns="http://www.w3.org/2000/svg" viewBox="0 0 190.71 292.64"><defs><style>.cls-1{fill:#eac26b;}</style></defs><g id="_ÎÓÈ_1"><g><g><g><rect width="190.71" height="292.64" rx="11.28" ry="11.28"/><path class="cls-1" d="m24.36,31.15c0,1.08-.1,2.01-.29,2.78s-.45,1.42-.77,1.95c-.32.53-.69.94-1.09,1.25-.41.31-.83.54-1.27.71-.44.16-.87.27-1.3.32-.43.05-.82.07-1.18.07-.97,0-1.8-.12-2.49-.36-.69-.24-1.25-.57-1.68-.98s-.75-.88-.95-1.42c-.2-.54-.3-1.11-.3-1.71,0-.32.03-.67.09-1.06.06-.39.15-.77.28-1.16h2.71v.51c0,.72.05,1.3.14,1.75s.23.8.43,1.07c.19.26.44.44.73.54.29.1.64.14,1.05.14.73,0,1.3-.27,1.7-.8.4-.54.6-1.4.6-2.58v-4.32c-.35.39-.8.71-1.35.97-.55.26-1.2.39-1.94.39-.53,0-1.07-.08-1.62-.25-.55-.17-1.05-.47-1.5-.91s-.82-1.03-1.1-1.77c-.28-.75-.43-1.7-.43-2.87v-2.28c0-1.25.13-2.3.39-3.17.26-.87.63-1.57,1.12-2.1.49-.54,1.07-.92,1.75-1.16.68-.24,1.45-.36,2.3-.36.96,0,1.81.12,2.55.36.74.24,1.36.64,1.87,1.19.51.55.89,1.27,1.16,2.17.26.9.39,2,.39,3.31v9.79Zm-3.6-11.37c0-.53-.05-.98-.14-1.35-.09-.37-.23-.67-.42-.89-.19-.22-.43-.39-.72-.49-.29-.1-.64-.15-1.05-.15-.71,0-1.22.25-1.55.76-.33.5-.5,1.26-.5,2.27v3.6c0,.57.05,1.05.15,1.43.1.39.24.69.43.93.18.23.4.4.66.5.26.1.55.15.87.15.25,0,.48-.04.71-.11.22-.07.43-.17.63-.29.19-.12.37-.26.52-.41s.29-.31.41-.47v-5.47Z"/><path class="cls-1" d="m166.35,261.49c0-1.08.1-2.01.29-2.78s.45-1.42.77-1.95c.32-.53.69-.94,1.09-1.25.41-.31.83-.54,1.27-.71.44-.16.87-.27,1.3-.32.43-.05.82-.07,1.18-.07.97,0,1.8.12,2.49.36.69.24,1.25.57,1.68.98s.75.88.95,1.42c.2.54.3,1.11.3,1.71,0,.32-.03.67-.09,1.06-.06.39-.15.77-.28,1.16h-2.71v-.51c0-.72-.05-1.3-.14-1.75s-.23-.8-.43-1.07c-.19-.26-.44-.44-.73-.54-.29-.1-.64-.14-1.05-.14-.73,0-1.3.27-1.7.8-.4.54-.6,1.4-.6,2.58v4.32c.35-.39.8-.71,1.35-.97.55-.26,1.2-.39,1.94-.39.53,0,1.07.08,1.62.25.55.17,1.05.47,1.5.91s.82,1.03,1.1,1.77c.28.75.43,1.7.43,2.87v2.28c0,1.25-.13,2.3-.39,3.17-.26.87-.63,1.57-1.12,2.1-.49.54-1.07.92-1.75,1.16-.68.24-1.45.36-2.3.36-.96,0-1.81-.12-2.55-.36-.74-.24-1.36-.64-1.87-1.19-.51-.55-.89-1.27-1.16-2.17-.26-.9-.39-2-.39-3.31v-9.79Zm3.6,11.37c0,.53.05.98.14,1.35.09.37.23.67.42.89.19.22.43.39.72.49.29.1.64.15,1.05.15.71,0,1.22-.25,1.55-.76.33-.5.5-1.26.5-2.27v-3.6c0-.57-.05-1.05-.15-1.43-.1-.39-.24-.69-.43-.93-.18-.23-.4-.4-.66-.5-.26-.1-.55-.15-.87-.15-.25,0-.48.04-.71.11-.22.07-.43.17-.63.29-.19.12-.37.26-.52.41s-.29.31-.41.47v5.47Z"/></g><g><path class="cls-1" d="m24.34,45.96c-1.27-2.8-5.75-6.23-5.75-6.23,0,0-4.48,3.43-5.75,6.23-1.11,2.44-.76,5.63,2.77,5.16,1.17-.15,2.02-.93,2.51-1.51l-.86,3.09h1.33s1.32,0,1.32,0l-.9-3.14c.48.58,1.35,1.41,2.56,1.57,3.53.47,3.88-2.72,2.77-5.16Z"/><path class="cls-1" d="m166.37,246.68c1.27,2.8,5.75,6.23,5.75,6.23,0,0,4.48-3.43,5.75-6.23,1.11-2.44.76-5.63-2.77-5.16-1.17.15-2.02.93-2.51,1.51l.86-3.09h-1.33s-1.32,0-1.32,0l.9,3.14c-.48-.58-1.35-1.41-2.56-1.57-3.53-.47-3.88,2.72-2.77,5.16Z"/></g></g><g><g><path class="cls-1" d="m73.4,46.26c-3.51-7.75-15.89-17.21-15.89-17.21,0,0-12.38,9.47-15.89,17.21-3.06,6.75-2.09,15.56,7.65,14.27,3.23-.43,5.59-2.58,6.94-4.19l-2.38,8.53h3.68s3.64,0,3.64,0l-2.47-8.69c1.32,1.62,3.74,3.9,7.07,4.34,9.75,1.29,10.71-7.53,7.65-14.27Z"/><path class="cls-1" d="m111.24,145.61c-3.51-7.75-15.89-17.21-15.89-17.21,0,0-12.38,9.47-15.89,17.21-3.06,6.75-2.09,15.56,7.65,14.27,3.23-.43,5.59-2.58,6.94-4.19l-2.38,8.53h3.68s3.64,0,3.64,0l-2.47-8.69c1.32,1.62,3.74,3.9,7.07,4.34,9.75,1.29,10.71-7.53,7.65-14.27Z"/><path class="cls-1" d="m41.62,180.14c3.51,7.75,15.89,17.21,15.89,17.21,0,0,12.38-9.47,15.89-17.21,3.06-6.75,2.09-15.56-7.65-14.27-3.23.43-5.59,2.58-6.94,4.19l2.38-8.53h-3.68s-3.64,0-3.64,0l2.47,8.69c-1.32-1.62-3.74-3.9-7.07-4.34-9.75-1.29-10.71,7.53-7.65,14.27Z"/><path class="cls-1" d="m117.31,180.14c3.51,7.75,15.89,17.21,15.89,17.21,0,0,12.38-9.47,15.89-17.21,3.06-6.75,2.09-15.56-7.65-14.27-3.23.43-5.59,2.58-6.94,4.19l2.38-8.53h-3.68s-3.64,0-3.64,0l2.47,8.69c-1.32-1.62-3.74-3.9-7.07-4.34-9.75-1.29-10.71,7.53-7.65,14.27Z"/><path class="cls-1" d="m41.62,246.38c3.51,7.75,15.89,17.21,15.89,17.21,0,0,12.38-9.47,15.89-17.21,3.06-6.75,2.09-15.56-7.65-14.27-3.23.43-5.59,2.58-6.94,4.19l2.38-8.53h-3.68s-3.64,0-3.64,0l2.47,8.69c-1.32-1.62-3.74-3.9-7.07-4.34-9.75-1.29-10.71,7.53-7.65,14.27Z"/></g><g><path class="cls-1" d="m149.09,46.26c-3.51-7.75-15.89-17.21-15.89-17.21,0,0-12.38,9.47-15.89,17.21-3.06,6.75-2.09,15.56,7.65,14.27,3.23-.43,5.59-2.58,6.94-4.19l-2.38,8.53h3.68s3.64,0,3.64,0l-2.47-8.69c1.32,1.62,3.74,3.9,7.07,4.34,9.75,1.29,10.71-7.53,7.65-14.27Z"/><path class="cls-1" d="m73.4,112.5c-3.51-7.75-15.89-17.21-15.89-17.21,0,0-12.38,9.47-15.89,17.21-3.06,6.75-2.09,15.56,7.65,14.27,3.23-.43,5.59-2.58,6.94-4.19l-2.38,8.53h3.68s3.64,0,3.64,0l-2.47-8.69c1.32,1.62,3.74,3.9,7.07,4.34,9.75,1.29,10.71-7.53,7.65-14.27Z"/><path class="cls-1" d="m149.09,112.5c-3.51-7.75-15.89-17.21-15.89-17.21,0,0-12.38,9.47-15.89,17.21-3.06,6.75-2.09,15.56,7.65,14.27,3.23-.43,5.59-2.58,6.94-4.19l-2.38,8.53h3.68s3.64,0,3.64,0l-2.47-8.69c1.32,1.62,3.74,3.9,7.07,4.34,9.75,1.29,10.71-7.53,7.65-14.27Z"/><path class="cls-1" d="m117.31,246.38c3.51,7.75,15.89,17.21,15.89,17.21,0,0,12.38-9.47,15.89-17.21,3.06-6.75,2.09-15.56-7.65-14.27-3.23.43-5.59,2.58-6.94,4.19l2.38-8.53h-3.68s-3.64,0-3.64,0l2.47,8.69c-1.32-1.62-3.74-3.9-7.07-4.34-9.75-1.29-10.71,7.53-7.65,14.27Z"/></g></g></g></g></svg>