<?xml version="1.0" encoding="UTF-8"?><svg id="Layer_2" xmlns="http://www.w3.org/2000/svg" xmlns:xlink="http://www.w3.org/1999/xlink" viewBox="0 0 190.71 292.64"><defs><style>.cls-1{fill:url(#_ÂÁ_Ï_ÌÌ_È_ËÂÌÚ_519-2);}.cls-2{fill:url(#_ÂÁ_Ï_ÌÌ_È_ËÂÌÚ_498-3);}.cls-3{fill:url(#_ÂÁ_Ï_ÌÌ_È_ËÂÌÚ_498-6);}.cls-4{fill:url(#_ÂÁ_Ï_ÌÌ_È_ËÂÌÚ_498-8);}.cls-5{fill:url(#_ÂÁ_Ï_ÌÌ_È_ËÂÌÚ_498-7);}.cls-6{fill:url(#_ÂÁ_Ï_ÌÌ_È_ËÂÌÚ_498-2);}.cls-7{fill:url(#_ÂÁ_Ï_ÌÌ_È_ËÂÌÚ_498-5);}.cls-8{fill:url(#_ÂÁ_Ï_ÌÌ_È_ËÂÌÚ_498-4);}.cls-9{fill:url(#_ÂÁ_Ï_ÌÌ_È_ËÂÌÚ_570-7);}.cls-10{fill:url(#_ÂÁ_Ï_ÌÌ_È_ËÂÌÚ_570-5);}.cls-11{fill:url(#_ÂÁ_Ï_ÌÌ_È_ËÂÌÚ_570-6);}.cls-12{fill:url(#_ÂÁ_Ï_ÌÌ_È_ËÂÌÚ_570-3);}.cls-13{fill:url(#_ÂÁ_Ï_ÌÌ_È_ËÂÌÚ_570-2);}.cls-14{fill:url(#_ÂÁ_Ï_ÌÌ_È_ËÂÌÚ_570-4);}.cls-15{fill:url(#_ÂÁ_Ï_ÌÌ_È_ËÂÌÚ_570-9);}.cls-16{fill:url(#_ÂÁ_Ï_ÌÌ_È_ËÂÌÚ_570-8);}.cls-17{fill:url(#_ÂÁ_Ï_ÌÌ_È_ËÂÌÚ_160-9);}.cls-18{fill:url(#_ÂÁ_Ï_ÌÌ_È_ËÂÌÚ_160-4);}.cls-19{fill:url(#_ÂÁ_Ï_ÌÌ_È_ËÂÌÚ_160-7);}.cls-20{fill:url(#_ÂÁ_Ï_ÌÌ_È_ËÂÌÚ_160-5);}.cls-21{fill:url(#_ÂÁ_Ï_ÌÌ_È_ËÂÌÚ_160-8);}.cls-22{fill:url(#_ÂÁ_Ï_ÌÌ_È_ËÂÌÚ_160-2);}.cls-23{fill:url(#_ÂÁ_Ï_ÌÌ_È_ËÂÌÚ_160-3);}.cls-24{fill:url(#_ÂÁ_Ï_ÌÌ_È_ËÂÌÚ_160-6);}.cls-25{fill:url(#_ÂÁ_Ï_ÌÌ_È_ËÂÌÚ_210-8);}.cls-26{fill:url(#_ÂÁ_Ï_ÌÌ_È_ËÂÌÚ_210-6);}.cls-27{fill:url(#_ÂÁ_Ï_ÌÌ_È_ËÂÌÚ_210-9);}.cls-28{fill:url(#_ÂÁ_Ï_ÌÌ_È_ËÂÌÚ_210-4);}.cls-29{fill:url(#_ÂÁ_Ï_ÌÌ_È_ËÂÌÚ_210-3);}.cls-30{fill:url(#_ÂÁ_Ï_ÌÌ_È_ËÂÌÚ_210-7);}.cls-31{fill:url(#_ÂÁ_Ï_ÌÌ_È_ËÂÌÚ_210-2);}.cls-32{fill:url(#_ÂÁ_Ï_ÌÌ_È_ËÂÌÚ_210-5);}.cls-33{fill:#eac26b;}.cls-34{fill:#fff;}.cls-35{fill:#661919;}.cls-36{fill:#b4171e;}.cls-37{fill:#e1111d;}.cls-38{fill:#a1d2df;}.cls-39{fill:url(#_ÂÁ_Ï_ÌÌ_È_ËÂÌÚ_160-12);}.cls-40{fill:url(#_ÂÁ_Ï_ÌÌ_È_ËÂÌÚ_160-13);}.cls-41{fill:url(#_ÂÁ_Ï_ÌÌ_È_ËÂÌÚ_160-10);}.cls-42{fill:url(#_ÂÁ_Ï_ÌÌ_È_ËÂÌÚ_160-11);}.cls-43{fill:url(#_ÂÁ_Ï_ÌÌ_È_ËÂÌÚ_160-14);}.cls-44{fill:url(#_ÂÁ_Ï_ÌÌ_È_ËÂÌÚ_570-11);}.cls-45{fill:url(#_ÂÁ_Ï_ÌÌ_È_ËÂÌÚ_570-10);}.cls-46{fill:url(#_ÂÁ_Ï_ÌÌ_È_ËÂÌÚ_570-12);}.cls-47{fill:url(#_ÂÁ_Ï_ÌÌ_È_ËÂÌÚ_210-12);}.cls-48{fill:url(#_ÂÁ_Ï_ÌÌ_È_ËÂÌÚ_210-14);}.cls-49{fill:url(#_ÂÁ_Ï_ÌÌ_È_ËÂÌÚ_210-11);}.cls-50{fill:url(#_ÂÁ_Ï_ÌÌ_È_ËÂÌÚ_210-13);}.cls-51{fill:url(#_ÂÁ_Ï_ÌÌ_È_ËÂÌÚ_210-10);}.cls-52{fill:url(#_ÂÁ_Ï_ÌÌ_È_ËÂÌÚ_519);}.cls-53{fill:url(#_ÂÁ_Ï_ÌÌ_È_ËÂÌÚ_570);}.cls-54{fill:url(#_ÂÁ_Ï_ÌÌ_È_ËÂÌÚ_498);}.cls-55{fill:url(#_ÂÁ_Ï_ÌÌ_È_ËÂÌÚ_210);}.cls-56{fill:url(#_ÂÁ_Ï_ÌÌ_È_ËÂÌÚ_160);}</style><linearGradient id="_ÂÁ_Ï_ÌÌ_È_ËÂÌÚ_570" x1="57.42" y1="41.31" x2="77.52" y2="41.31" gradientTransform="translate(-9.45 59.81) rotate(-45)" gradientUnits="userSpaceOnUse"><stop offset="0" stop-color="#4ba9b5"/><stop offset=".19" stop-color="#3697a4"/><stop offset=".59" stop-color="#006b79"/><stop offset=".59" stop-color="#006b79"/><stop offset="1" stop-color="#083854"/></linearGradient><linearGradient id="_ÂÁ_Ï_ÌÌ_È_ËÂÌÚ_570-2" x1="36.89" x2="56.99" gradientTransform="translate(-15.46 45.29) rotate(-45)" xlink:href="#_ÂÁ_Ï_ÌÌ_È_ËÂÌÚ_570"/><linearGradient id="_ÂÁ_Ï_ÌÌ_È_ËÂÌÚ_570-3" x1="77.97" x2="98.07" gradientTransform="translate(-3.43 74.34) rotate(-45)" xlink:href="#_ÂÁ_Ï_ÌÌ_È_ËÂÌÚ_570"/><linearGradient id="_ÂÁ_Ï_ÌÌ_È_ËÂÌÚ_570-4" x1="98.52" x2="118.62" gradientTransform="translate(2.59 88.87) rotate(-45)" xlink:href="#_ÂÁ_Ï_ÌÌ_È_ËÂÌÚ_570"/><linearGradient id="_ÂÁ_Ï_ÌÌ_È_ËÂÌÚ_570-5" x1="119.07" x2="139.17" gradientTransform="translate(8.61 103.4) rotate(-45)" xlink:href="#_ÂÁ_Ï_ÌÌ_È_ËÂÌÚ_570"/><linearGradient id="_ÂÁ_Ï_ÌÌ_È_ËÂÌÚ_570-6" x1="139.63" x2="159.73" gradientTransform="translate(14.63 117.94) rotate(-45)" xlink:href="#_ÂÁ_Ï_ÌÌ_È_ËÂÌÚ_570"/><linearGradient id="_ÂÁ_Ï_ÌÌ_È_ËÂÌÚ_498" x1="28.47" y1="37.81" x2="67.47" y2="37.81" gradientUnits="userSpaceOnUse"><stop offset="0" stop-color="#e79d41"/><stop offset=".23" stop-color="#edb571"/><stop offset=".47" stop-color="#f3cc9d"/><stop offset=".69" stop-color="#f8dcbe"/><stop offset=".88" stop-color="#fbe6d1"/><stop offset="1" stop-color="#fcead9"/></linearGradient><linearGradient id="_ÂÁ_Ï_ÌÌ_È_ËÂÌÚ_160" x1="67.47" y1="40.47" x2="108.57" y2="40.47" gradientUnits="userSpaceOnUse"><stop offset="0" stop-color="#fcead9"/><stop offset=".12" stop-color="#fbe6d1"/><stop offset=".31" stop-color="#f8dcbe"/><stop offset=".53" stop-color="#f3cc9d"/><stop offset=".77" stop-color="#edb571"/><stop offset="1" stop-color="#e79d41"/></linearGradient><linearGradient id="_ÂÁ_Ï_ÌÌ_È_ËÂÌÚ_498-2" x1="108.57" y1="40.47" x2="149.68" y2="40.47" xlink:href="#_ÂÁ_Ï_ÌÌ_È_ËÂÌÚ_498"/><linearGradient id="_ÂÁ_Ï_ÌÌ_È_ËÂÌÚ_160-2" x1="35.34" y1="45.97" x2="48.51" y2="45.97" xlink:href="#_ÂÁ_Ï_ÌÌ_È_ËÂÌÚ_160"/><linearGradient id="_ÂÁ_Ï_ÌÌ_È_ËÂÌÚ_498-3" x1="47.89" y1="40.47" x2="88.02" y2="40.47" xlink:href="#_ÂÁ_Ï_ÌÌ_È_ËÂÌÚ_498"/><linearGradient id="_ÂÁ_Ï_ÌÌ_È_ËÂÌÚ_160-3" x1="88.02" x2="129.12" xlink:href="#_ÂÁ_Ï_ÌÌ_È_ËÂÌÚ_160"/><linearGradient id="_ÂÁ_Ï_ÌÌ_È_ËÂÌÚ_498-4" x1="129.12" y1="40.47" x2="168.84" y2="40.47" xlink:href="#_ÂÁ_Ï_ÌÌ_È_ËÂÌÚ_498"/><linearGradient id="_ÂÁ_Ï_ÌÌ_È_ËÂÌÚ_160-4" x1="30.22" y1="35.79" x2="34.68" y2="35.79" xlink:href="#_ÂÁ_Ï_ÌÌ_È_ËÂÌÚ_160"/><linearGradient id="_ÂÁ_Ï_ÌÌ_È_ËÂÌÚ_160-5" x1="31.25" y1="35.31" x2="32.36" y2="35.31" xlink:href="#_ÂÁ_Ï_ÌÌ_È_ËÂÌÚ_160"/><linearGradient id="_ÂÁ_Ï_ÌÌ_È_ËÂÌÚ_210" x1="108.88" y1="35.23" x2="127.32" y2="35.23" gradientUnits="userSpaceOnUse"><stop offset="0" stop-color="#e79d41"/><stop offset=".05" stop-color="#ebae62"/><stop offset=".11" stop-color="#f0be82"/><stop offset=".17" stop-color="#f3cb9d"/><stop offset=".25" stop-color="#f6d7b3"/><stop offset=".33" stop-color="#f9dfc4"/><stop offset=".44" stop-color="#fae5d0"/><stop offset=".59" stop-color="#fbe9d7"/><stop offset="1" stop-color="#fcead9"/></linearGradient><linearGradient id="_ÂÁ_Ï_ÌÌ_È_ËÂÌÚ_210-2" x1="108.24" y1="45.75" x2="89.79" y2="45.75" xlink:href="#_ÂÁ_Ï_ÌÌ_È_ËÂÌÚ_210"/><linearGradient id="_ÂÁ_Ï_ÌÌ_È_ËÂÌÚ_210-3" x1="128.78" y1="45.78" x2="110.33" y2="45.78" xlink:href="#_ÂÁ_Ï_ÌÌ_È_ËÂÌÚ_210"/><linearGradient id="_ÂÁ_Ï_ÌÌ_È_ËÂÌÚ_210-4" x1="149.34" y1="45.78" x2="130.9" y2="45.78" xlink:href="#_ÂÁ_Ï_ÌÌ_È_ËÂÌÚ_210"/><linearGradient id="_ÂÁ_Ï_ÌÌ_È_ËÂÌÚ_210-5" x1="48.16" y1="35.58" x2="66.01" y2="35.58" xlink:href="#_ÂÁ_Ï_ÌÌ_È_ËÂÌÚ_210"/><linearGradient id="_ÂÁ_Ï_ÌÌ_È_ËÂÌÚ_210-6" x1="129.51" x2="147.96" xlink:href="#_ÂÁ_Ï_ÌÌ_È_ËÂÌÚ_210"/><linearGradient id="_ÂÁ_Ï_ÌÌ_È_ËÂÌÚ_210-7" x1="28.43" y1="36.39" x2="31.69" y2="36.39" xlink:href="#_ÂÁ_Ï_ÌÌ_È_ËÂÌÚ_210"/><linearGradient id="_ÂÁ_Ï_ÌÌ_È_ËÂÌÚ_160-6" x1="36.64" y1="30.51" x2="39.35" y2="30.51" xlink:href="#_ÂÁ_Ï_ÌÌ_È_ËÂÌÚ_160"/><linearGradient id="_ÂÁ_Ï_ÌÌ_È_ËÂÌÚ_160-7" x1="34.48" y1="41.43" x2="37.01" y2="41.43" xlink:href="#_ÂÁ_Ï_ÌÌ_È_ËÂÌÚ_160"/><linearGradient id="_ÂÁ_Ï_ÌÌ_È_ËÂÌÚ_519" x1="31.87" y1="29.27" x2="171.76" y2="29.27" gradientUnits="userSpaceOnUse"><stop offset="0" stop-color="#374228"/><stop offset=".24" stop-color="#6a7254"/><stop offset=".45" stop-color="#929877"/><stop offset=".56" stop-color="#a2a785"/><stop offset=".66" stop-color="#8d9670"/><stop offset=".84" stop-color="#6f7d52"/><stop offset=".94" stop-color="#647447"/></linearGradient><linearGradient id="_ÂÁ_Ï_ÌÌ_È_ËÂÌÚ_570-7" x1="153.47" y1="-1076.92" x2="173.57" y2="-1076.92" gradientTransform="translate(769.11 1128.45) rotate(-45)" xlink:href="#_ÂÁ_Ï_ÌÌ_È_ËÂÌÚ_570"/><linearGradient id="_ÂÁ_Ï_ÌÌ_È_ËÂÌÚ_570-8" x1="132.95" y1="-1076.92" x2="153.05" y2="-1076.92" gradientTransform="translate(804.14 1113.94) rotate(-45)" xlink:href="#_ÂÁ_Ï_ÌÌ_È_ËÂÌÚ_570"/><linearGradient id="_ÂÁ_Ï_ÌÌ_È_ËÂÌÚ_570-9" x1="174.02" y1="-1076.92" x2="194.12" y2="-1076.92" gradientTransform="translate(734.03 1142.99) rotate(-45)" xlink:href="#_ÂÁ_Ï_ÌÌ_È_ËÂÌÚ_570"/><linearGradient id="_ÂÁ_Ï_ÌÌ_È_ËÂÌÚ_570-10" x1="194.58" y1="-1076.92" x2="214.68" y2="-1076.92" gradientTransform="translate(698.94 1157.52) rotate(-45)" xlink:href="#_ÂÁ_Ï_ÌÌ_È_ËÂÌÚ_570"/><linearGradient id="_ÂÁ_Ï_ÌÌ_È_ËÂÌÚ_570-11" x1="215.13" y1="-1076.92" x2="235.23" y2="-1076.92" gradientTransform="translate(663.86 1172.05) rotate(-45)" xlink:href="#_ÂÁ_Ï_ÌÌ_È_ËÂÌÚ_570"/><linearGradient id="_ÂÁ_Ï_ÌÌ_È_ËÂÌÚ_570-12" x1="235.68" y1="-1076.92" x2="255.78" y2="-1076.92" gradientTransform="translate(628.77 1186.58) rotate(-45)" xlink:href="#_ÂÁ_Ï_ÌÌ_È_ËÂÌÚ_570"/><linearGradient id="_ÂÁ_Ï_ÌÌ_È_ËÂÌÚ_498-5" x1="124.53" y1="-1080.42" x2="163.52" y2="-1080.42" gradientTransform="translate(286.76 -825.58) rotate(-180)" xlink:href="#_ÂÁ_Ï_ÌÌ_È_ËÂÌÚ_498"/><linearGradient id="_ÂÁ_Ï_ÌÌ_È_ËÂÌÚ_160-8" x1="163.52" y1="-1077.75" x2="204.63" y2="-1077.75" gradientTransform="translate(286.76 -825.58) rotate(-180)" xlink:href="#_ÂÁ_Ï_ÌÌ_È_ËÂÌÚ_160"/><linearGradient id="_ÂÁ_Ï_ÌÌ_È_ËÂÌÚ_498-6" x1="204.63" y1="-1077.75" x2="245.73" y2="-1077.75" gradientTransform="translate(286.76 -825.58) rotate(-180)" xlink:href="#_ÂÁ_Ï_ÌÌ_È_ËÂÌÚ_498"/><linearGradient id="_ÂÁ_Ï_ÌÌ_È_ËÂÌÚ_160-9" x1="131.39" y1="-1072.26" x2="144.56" y2="-1072.26" gradientTransform="translate(286.76 -825.58) rotate(-180)" xlink:href="#_ÂÁ_Ï_ÌÌ_È_ËÂÌÚ_160"/><linearGradient id="_ÂÁ_Ï_ÌÌ_È_ËÂÌÚ_498-7" x1="143.94" y1="-1077.75" x2="184.07" y2="-1077.75" gradientTransform="translate(286.76 -825.58) rotate(-180)" xlink:href="#_ÂÁ_Ï_ÌÌ_È_ËÂÌÚ_498"/><linearGradient id="_ÂÁ_Ï_ÌÌ_È_ËÂÌÚ_160-10" x1="184.07" y1="-1077.75" x2="225.18" y2="-1077.75" gradientTransform="translate(286.76 -825.58) rotate(-180)" xlink:href="#_ÂÁ_Ï_ÌÌ_È_ËÂÌÚ_160"/><linearGradient id="_ÂÁ_Ï_ÌÌ_È_ËÂÌÚ_498-8" x1="225.18" y1="-1077.75" x2="264.89" y2="-1077.75" gradientTransform="translate(286.76 -825.58) rotate(-180)" xlink:href="#_ÂÁ_Ï_ÌÌ_È_ËÂÌÚ_498"/><linearGradient id="_ÂÁ_Ï_ÌÌ_È_ËÂÌÚ_160-11" x1="126.27" y1="-1082.44" x2="130.74" y2="-1082.44" gradientTransform="translate(286.76 -825.58) rotate(-180)" xlink:href="#_ÂÁ_Ï_ÌÌ_È_ËÂÌÚ_160"/><linearGradient id="_ÂÁ_Ï_ÌÌ_È_ËÂÌÚ_160-12" x1="127.3" y1="-1082.92" x2="128.41" y2="-1082.92" gradientTransform="translate(286.76 -825.58) rotate(-180)" xlink:href="#_ÂÁ_Ï_ÌÌ_È_ËÂÌÚ_160"/><linearGradient id="_ÂÁ_Ï_ÌÌ_È_ËÂÌÚ_210-8" x1="204.93" y1="-1083" x2="223.37" y2="-1083" gradientTransform="translate(286.76 -825.58) rotate(-180)" xlink:href="#_ÂÁ_Ï_ÌÌ_È_ËÂÌÚ_210"/><linearGradient id="_ÂÁ_Ï_ÌÌ_È_ËÂÌÚ_210-9" x1="204.29" y1="-1072.47" x2="185.85" y2="-1072.47" gradientTransform="translate(286.76 -825.58) rotate(-180)" xlink:href="#_ÂÁ_Ï_ÌÌ_È_ËÂÌÚ_210"/><linearGradient id="_ÂÁ_Ï_ÌÌ_È_ËÂÌÚ_210-10" x1="224.83" y1="-1072.44" x2="206.39" y2="-1072.44" gradientTransform="translate(286.76 -825.58) rotate(-180)" xlink:href="#_ÂÁ_Ï_ÌÌ_È_ËÂÌÚ_210"/><linearGradient id="_ÂÁ_Ï_ÌÌ_È_ËÂÌÚ_210-11" x1="245.4" y1="-1072.44" x2="226.95" y2="-1072.44" gradientTransform="translate(286.76 -825.58) rotate(-180)" xlink:href="#_ÂÁ_Ï_ÌÌ_È_ËÂÌÚ_210"/><linearGradient id="_ÂÁ_Ï_ÌÌ_È_ËÂÌÚ_210-12" x1="144.21" y1="-1082.65" x2="162.06" y2="-1082.65" gradientTransform="translate(286.76 -825.58) rotate(-180)" xlink:href="#_ÂÁ_Ï_ÌÌ_È_ËÂÌÚ_210"/><linearGradient id="_ÂÁ_Ï_ÌÌ_È_ËÂÌÚ_210-13" x1="225.57" y1="-1083" x2="244.01" y2="-1083" gradientTransform="translate(286.76 -825.58) rotate(-180)" xlink:href="#_ÂÁ_Ï_ÌÌ_È_ËÂÌÚ_210"/><linearGradient id="_ÂÁ_Ï_ÌÌ_È_ËÂÌÚ_210-14" x1="124.48" y1="-1081.84" x2="127.74" y2="-1081.84" gradientTransform="translate(286.76 -825.58) rotate(-180)" xlink:href="#_ÂÁ_Ï_ÌÌ_È_ËÂÌÚ_210"/><linearGradient id="_ÂÁ_Ï_ÌÌ_È_ËÂÌÚ_160-13" x1="132.69" y1="-1087.72" x2="135.4" y2="-1087.72" gradientTransform="translate(286.76 -825.58) rotate(-180)" xlink:href="#_ÂÁ_Ï_ÌÌ_È_ËÂÌÚ_160"/><linearGradient id="_ÂÁ_Ï_ÌÌ_È_ËÂÌÚ_160-14" x1="130.54" y1="-1076.8" x2="133.06" y2="-1076.8" gradientTransform="translate(286.76 -825.58) rotate(-180)" xlink:href="#_ÂÁ_Ï_ÌÌ_È_ËÂÌÚ_160"/><linearGradient id="_ÂÁ_Ï_ÌÌ_È_ËÂÌÚ_519-2" x1="127.92" y1="-1088.96" x2="267.81" y2="-1088.96" gradientTransform="translate(286.76 -825.58) rotate(-180)" xlink:href="#_ÂÁ_Ï_ÌÌ_È_ËÂÌÚ_519"/></defs><g id="_ÎÓÈ_1"><g><g><g><rect width="190.71" height="292.64" rx="11.28" ry="11.28"/><g><path class="cls-36" d="m16.52,14.31h4.13l4.38,23.69h-3.63l-.65-4.25h-4.33l-.62,4.25h-3.65l4.37-23.69Zm3.81,16.74l-1.66-11.81h-.15l-1.68,11.81h3.5Z"/><path class="cls-36" d="m174.19,278.33h-4.13l-4.38-23.69h3.63l.65,4.25h4.33l.62-4.25h3.65l-4.37,23.69Zm-3.82-16.74l1.66,11.81h.15l1.68-11.81h-3.5Z"/></g></g><g><polygon class="cls-36" points="18.59 52.7 13.31 46.21 18.59 39.73 23.86 46.21 18.59 52.7"/><polygon class="cls-36" points="172.12 239.94 177.39 246.43 172.12 252.91 166.84 246.43 172.12 239.94"/></g></g><polygon class="cls-36" points="95.35 174.82 72.17 146.32 95.35 117.82 118.54 146.32 95.35 174.82"/></g><g><g><g><g><g><g><rect class="cls-53" x="60.36" y="34.21" width="14.21" height="14.21" transform="translate(48.97 -35.61) rotate(45)"/><path class="cls-35" d="m67.47,51.72l-10.41-10.41,10.41-10.41,10.41,10.41-10.41,10.41Zm-9.69-10.41l9.69,9.69,9.69-9.69-9.69-9.69-9.69,9.69Z"/></g><g><rect class="cls-13" x="39.84" y="34.21" width="14.21" height="14.21" transform="translate(42.96 -21.09) rotate(45)"/><path class="cls-35" d="m46.94,51.72l-10.41-10.41,10.41-10.41,10.41,10.41-10.41,10.41Zm-9.69-10.41l9.69,9.69,9.69-9.69-9.69-9.69-9.69,9.69Z"/></g><g><rect class="cls-12" x="80.91" y="34.21" width="14.21" height="14.21" transform="translate(54.99 -50.14) rotate(45)"/><path class="cls-35" d="m88.02,51.72l-10.41-10.41,10.41-10.41,10.41,10.41-10.41,10.41Zm-9.69-10.41l9.69,9.69,9.69-9.69-9.69-9.69-9.69,9.69Z"/></g><g><rect class="cls-14" x="101.47" y="34.21" width="14.21" height="14.21" transform="translate(61.01 -64.67) rotate(45)"/><path class="cls-35" d="m108.57,51.72l-10.41-10.41,10.41-10.41,10.41,10.41-10.41,10.41Zm-9.69-10.41l9.69,9.69,9.69-9.69-9.69-9.69-9.69,9.69Z"/></g><g><rect class="cls-10" x="122.02" y="34.21" width="14.21" height="14.21" transform="translate(67.03 -79.2) rotate(45)"/><path class="cls-35" d="m129.12,51.72l-10.41-10.41,10.41-10.41,10.41,10.41-10.41,10.41Zm-9.69-10.41l9.69,9.69,9.69-9.69-9.69-9.69-9.69,9.69Z"/></g><g><rect class="cls-11" x="142.57" y="34.21" width="14.21" height="14.21" transform="translate(73.05 -93.74) rotate(45)"/><path class="cls-35" d="m149.68,51.72l-10.41-10.41,10.41-10.41,10.41,10.41-10.41,10.41Zm-9.69-10.41l9.69,9.69,9.69-9.69-9.69-9.69-9.69,9.69Z"/></g><path class="cls-38" d="m57.84,41.31c.74-.83,1.51-1.63,2.28-2.43.77-.8,1.55-1.59,2.33-2.37.78-.79,1.58-1.56,2.37-2.34l2.4-2.31.27-.26.27.26,2.38,2.31c.78.78,1.58,1.55,2.35,2.34.78.78,1.55,1.58,2.32,2.37.76.8,1.53,1.6,2.27,2.43-.86-.7-1.69-1.43-2.53-2.15-.83-.73-1.66-1.46-2.47-2.21-.82-.74-1.63-1.5-2.44-2.24l-2.41-2.28h.53s-2.42,2.28-2.42,2.28c-.82.75-1.63,1.51-2.45,2.24-.82.74-1.65,1.48-2.49,2.21-.84.73-1.68,1.45-2.54,2.15Z"/><path class="cls-38" d="m37.33,41.31c.74-.83,1.51-1.63,2.28-2.43.77-.8,1.55-1.59,2.33-2.37.78-.79,1.58-1.56,2.37-2.34l2.4-2.31.27-.26.27.26,2.38,2.31c.78.78,1.58,1.55,2.35,2.34.78.78,1.55,1.58,2.32,2.37.76.8,1.53,1.6,2.27,2.43-.86-.7-1.69-1.43-2.53-2.15-.83-.73-1.66-1.46-2.47-2.21-.82-.74-1.63-1.5-2.44-2.24l-2.41-2.28h.53s-2.42,2.28-2.42,2.28c-.82.75-1.63,1.51-2.45,2.24-.82.74-1.65,1.48-2.49,2.21-.84.73-1.68,1.45-2.54,2.15Z"/><path class="cls-38" d="m78.41,41.31c.74-.83,1.51-1.63,2.28-2.43.77-.8,1.55-1.59,2.33-2.37.78-.79,1.58-1.56,2.37-2.34l2.4-2.31.27-.26.27.26,2.38,2.31c.78.78,1.58,1.55,2.35,2.34.78.78,1.55,1.58,2.32,2.37.76.8,1.53,1.6,2.27,2.43-.86-.7-1.69-1.43-2.53-2.15-.83-.73-1.66-1.46-2.47-2.21-.82-.74-1.63-1.5-2.44-2.24l-2.41-2.28h.53s-2.42,2.28-2.42,2.28c-.82.75-1.63,1.51-2.45,2.24-.82.74-1.65,1.48-2.49,2.21-.84.73-1.68,1.45-2.54,2.15Z"/><path class="cls-38" d="m98.97,41.31c.74-.83,1.51-1.63,2.28-2.43.77-.8,1.55-1.59,2.33-2.37.78-.79,1.58-1.56,2.37-2.34l2.4-2.31.27-.26.27.26,2.38,2.31c.78.78,1.58,1.55,2.35,2.34.78.78,1.55,1.58,2.32,2.37.76.8,1.53,1.6,2.27,2.43-.86-.7-1.69-1.43-2.53-2.15-.83-.73-1.66-1.46-2.47-2.21-.82-.74-1.63-1.5-2.44-2.24l-2.41-2.28h.53s-2.42,2.28-2.42,2.28c-.82.75-1.63,1.51-2.45,2.24-.82.74-1.65,1.48-2.49,2.21-.84.73-1.68,1.45-2.54,2.15Z"/><path class="cls-38" d="m119.53,41.31c.74-.83,1.51-1.63,2.28-2.43.77-.8,1.55-1.59,2.33-2.37.78-.79,1.58-1.56,2.37-2.34l2.4-2.31.27-.26.27.26,2.38,2.31c.78.78,1.58,1.55,2.35,2.34.78.78,1.55,1.58,2.32,2.37.76.8,1.53,1.6,2.27,2.43-.86-.7-1.69-1.43-2.53-2.15-.83-.73-1.66-1.46-2.47-2.21-.82-.74-1.63-1.5-2.44-2.24l-2.41-2.28h.53s-2.42,2.28-2.42,2.28c-.82.75-1.63,1.51-2.45,2.24-.82.74-1.65,1.48-2.49,2.21-.84.73-1.68,1.45-2.54,2.15Z"/><path class="cls-38" d="m140.1,41.31c.74-.83,1.51-1.63,2.28-2.43.77-.8,1.55-1.59,2.33-2.37.78-.79,1.58-1.56,2.37-2.34l2.4-2.31.27-.26.27.26,2.38,2.31c.78.78,1.58,1.55,2.35,2.34.78.78,1.55,1.58,2.32,2.37.76.8,1.53,1.6,2.27,2.43-.86-.7-1.69-1.43-2.53-2.15-.83-.73-1.66-1.46-2.47-2.21-.82-.74-1.63-1.5-2.44-2.24l-2.41-2.28h.53s-2.42,2.28-2.42,2.28c-.82.75-1.63,1.51-2.45,2.24-.82.74-1.65,1.48-2.49,2.21-.84.73-1.68,1.45-2.54,2.15Z"/><path class="cls-38" d="m57.84,41.33c.86.7,1.7,1.43,2.54,2.15.83.73,1.67,1.46,2.49,2.21.83.74,1.64,1.5,2.45,2.24l2.42,2.27h-.53s2.41-2.27,2.41-2.27c.81-.75,1.62-1.51,2.44-2.24.82-.74,1.64-1.48,2.47-2.21.84-.73,1.67-1.45,2.53-2.15-.74.83-1.5,1.63-2.27,2.43-.77.8-1.54,1.59-2.32,2.37-.77.79-1.57,1.56-2.35,2.34l-2.38,2.3-.27.26-.27-.26-2.4-2.31c-.79-.78-1.59-1.55-2.37-2.34-.79-.78-1.56-1.58-2.33-2.37-.77-.8-1.54-1.6-2.28-2.43Z"/><path class="cls-38" d="m37.33,41.33c.86.7,1.7,1.43,2.54,2.15.83.73,1.67,1.46,2.49,2.21.83.74,1.64,1.5,2.45,2.24l2.42,2.27h-.53s2.41-2.27,2.41-2.27c.81-.75,1.62-1.51,2.44-2.24.82-.74,1.64-1.48,2.47-2.21.84-.73,1.67-1.45,2.53-2.15-.74.83-1.5,1.63-2.27,2.43-.77.8-1.54,1.59-2.32,2.37-.77.79-1.57,1.56-2.35,2.34l-2.38,2.3-.27.26-.27-.26-2.4-2.31c-.79-.78-1.59-1.55-2.37-2.34-.79-.78-1.56-1.58-2.33-2.37-.77-.8-1.54-1.6-2.28-2.43Z"/><path class="cls-38" d="m78.41,41.33c.86.7,1.7,1.43,2.54,2.15.83.73,1.67,1.46,2.49,2.21.83.74,1.64,1.5,2.45,2.24l2.42,2.27h-.53s2.41-2.27,2.41-2.27c.81-.75,1.62-1.51,2.44-2.24.82-.74,1.64-1.48,2.47-2.21.84-.73,1.67-1.45,2.53-2.15-.74.83-1.5,1.63-2.27,2.43-.77.8-1.54,1.59-2.32,2.37-.77.79-1.57,1.56-2.35,2.34l-2.38,2.3-.27.26-.27-.26-2.4-2.31c-.79-.78-1.59-1.55-2.37-2.34-.79-.78-1.56-1.58-2.33-2.37-.77-.8-1.54-1.6-2.28-2.43Z"/><path class="cls-38" d="m98.97,41.33c.86.7,1.7,1.43,2.54,2.15.83.73,1.67,1.46,2.49,2.21.83.74,1.64,1.5,2.45,2.24l2.42,2.27h-.53s2.41-2.27,2.41-2.27c.81-.75,1.62-1.51,2.44-2.24.82-.74,1.64-1.48,2.47-2.21.84-.73,1.67-1.45,2.53-2.15-.74.83-1.5,1.63-2.27,2.43-.77.8-1.54,1.59-2.32,2.37-.77.79-1.57,1.56-2.35,2.34l-2.38,2.3-.27.26-.27-.26-2.4-2.31c-.79-.78-1.59-1.55-2.37-2.34-.79-.78-1.56-1.58-2.33-2.37-.77-.8-1.54-1.6-2.28-2.43Z"/><path class="cls-38" d="m119.53,41.33c.86.7,1.7,1.43,2.54,2.15.83.73,1.67,1.46,2.49,2.21.83.74,1.64,1.5,2.45,2.24l2.42,2.27h-.53s2.41-2.27,2.41-2.27c.81-.75,1.62-1.51,2.44-2.24.82-.74,1.64-1.48,2.47-2.21.84-.73,1.67-1.45,2.53-2.15-.74.83-1.5,1.63-2.27,2.43-.77.8-1.54,1.59-2.32,2.37-.77.79-1.57,1.56-2.35,2.34l-2.38,2.3-.27.26-.27-.26-2.4-2.31c-.79-.78-1.59-1.55-2.37-2.34-.79-.78-1.56-1.58-2.33-2.37-.77-.8-1.54-1.6-2.28-2.43Z"/><path class="cls-38" d="m140.1,41.33c.86.7,1.7,1.43,2.54,2.15.83.73,1.67,1.46,2.49,2.21.83.74,1.64,1.5,2.45,2.24l2.42,2.27h-.53s2.41-2.27,2.41-2.27c.81-.75,1.62-1.51,2.44-2.24.82-.74,1.64-1.48,2.47-2.21.84-.73,1.67-1.45,2.53-2.15-.74.83-1.5,1.63-2.27,2.43-.77.8-1.54,1.59-2.32,2.37-.77.79-1.57,1.56-2.35,2.34l-2.38,2.3-.27.26-.27-.26-2.4-2.31c-.79-.78-1.59-1.55-2.37-2.34-.79-.78-1.56-1.58-2.33-2.37-.77-.8-1.54-1.6-2.28-2.43Z"/><g><path class="cls-35" d="m67.47,51.72l-10.41-10.41,10.41-10.41,10.41,10.41-10.41,10.41Zm-9.69-10.41l9.69,9.69,9.69-9.69-9.69-9.69-9.69,9.69Z"/><path class="cls-35" d="m46.94,51.72l-10.41-10.41,10.41-10.41,10.41,10.41-10.41,10.41Zm-9.69-10.41l9.69,9.69,9.69-9.69-9.69-9.69-9.69,9.69Z"/><path class="cls-35" d="m88.02,51.72l-10.41-10.41,10.41-10.41,10.41,10.41-10.41,10.41Zm-9.69-10.41l9.69,9.69,9.69-9.69-9.69-9.69-9.69,9.69Z"/><path class="cls-35" d="m108.57,51.72l-10.41-10.41,10.41-10.41,10.41,10.41-10.41,10.41Zm-9.69-10.41l9.69,9.69,9.69-9.69-9.69-9.69-9.69,9.69Z"/><path class="cls-35" d="m129.12,51.72l-10.41-10.41,10.41-10.41,10.41,10.41-10.41,10.41Zm-9.69-10.41l9.69,9.69,9.69-9.69-9.69-9.69-9.69,9.69Z"/><path class="cls-35" d="m149.68,51.72l-10.41-10.41,10.41-10.41,10.41,10.41-10.41,10.41Zm-9.69-10.41l9.69,9.69,9.69-9.69-9.69-9.69-9.69,9.69Z"/></g></g><g><path class="cls-54" d="m36.2,39.05c-3.05.6-2.16,6.32-2.16,6.32-3.96-1.6-4.02-4.89-4.02-4.89-4.39-6.06,1.73-8.59,3.77-9.33,2.04-.74,3.71-3.46,3.71-3.46,3.15,1.85,1.47,5.49,1.47,5.49,4.16.59,6.79,2.71,8.91,4.68.28.26.54.51.8.76,1.05,1,2.01,1.92,3.08,2.63,1.43.95,3.07,1.56,5.42,1.56,2.93,0,4.75-.94,6.44-2.32.68.56,1.35,1.19,2.06,1.86.56.53,1.14,1.09,1.78,1.64-2.36,2.04-5.41,3.97-10.28,3.97-3.84,0-6.55-1.2-8.68-2.71-1.3-.92-2.38-1.95-3.37-2.89-.18-.16-.35-.33-.52-.49-1.9-1.79-3.6-3.22-6.45-3.59,0,0-.6,1.13-.56,2.62.02.74-.11,2.33-.6,3.07,0,0-.44-1.7-2.5-3.58"/><path class="cls-35" d="m57.19,48.2c-3.37,0-6.17-.88-8.83-2.76-1.3-.92-2.39-1.96-3.36-2.88l-.04-.04c-.12-.11-.24-.22-.35-.34l-.16-.16c-1.84-1.74-3.47-3.1-6.12-3.5-.15.35-.48,1.25-.46,2.33.02.75-.1,2.39-.65,3.21l-.32.48-.14-.55s-.41-1.5-2.15-3.19c-.73,1.79-.33,4.48-.32,4.52l.07.44-.42-.17c-3.76-1.52-4.14-4.49-4.17-5.04-1.39-1.94-1.85-3.72-1.37-5.29.56-1.82,2.34-3.3,5.3-4.37,1.93-.7,3.56-3.33,3.58-3.36l.13-.21.22.13c2.76,1.62,2.03,4.55,1.7,5.5,3.92.64,6.51,2.63,8.73,4.7.25.23.49.46.73.69l.08.07c1.03.98,2,1.9,3.05,2.6,1.57,1.05,3.2,1.51,5.28,1.51,3.08,0,4.84-1.09,6.28-2.26l.16-.13.16.13c.69.56,1.35,1.19,2.05,1.86.54.52,1.14,1.09,1.79,1.64l.22.19-.22.19c-2.17,1.88-5.32,4.03-10.44,4.03Zm-19.16-10.22l.18.02c2.91.38,4.63,1.82,6.59,3.66l.16.16c.12.11.23.22.35.33l.04.04c.95.91,2.03,1.93,3.3,2.83,2.57,1.82,5.28,2.66,8.54,2.66,4.78,0,7.79-1.94,9.89-3.72-.57-.5-1.09-1-1.56-1.45-.66-.62-1.26-1.2-1.88-1.72-1.49,1.18-3.32,2.24-6.44,2.24-2.18,0-3.9-.49-5.56-1.6-1.09-.72-2.07-1.66-3.11-2.65l-.08-.08c-.24-.22-.48-.45-.73-.69-2.22-2.07-4.82-4.06-8.77-4.62l-.34-.05.14-.31c.06-.14,1.47-3.28-1.16-5.03-.45.67-1.92,2.71-3.7,3.35-2.8,1.02-4.48,2.38-4.99,4.04-.44,1.42.01,3.07,1.34,4.9l.05.06v.08c0,.12.11,2.93,3.46,4.49-.15-1.41-.34-5.62,2.42-6.15l.1.5c-.64.12-1.09.51-1.4,1.03,1.26,1.2,1.89,2.3,2.18,2.95.25-.74.33-1.79.32-2.41-.03-1.53.57-2.69.59-2.74l.08-.16Z"/></g><g><path class="cls-56" d="m108.57,43.98c-2.36,2.04-5.42,3.97-10.28,3.97s-7.91-1.93-10.27-3.97c-.64-.55-1.22-1.1-1.78-1.64-.71-.67-1.37-1.31-2.06-1.86-1.69-1.38-3.52-2.32-6.44-2.32s-4.75.93-6.44,2.32c-.68-.56-1.35-1.19-2.06-1.86-.56-.53-1.14-1.08-1.77-1.64,2.36-2.04,5.42-3.97,10.28-3.97s7.92,1.93,10.28,3.97c.64.55,1.22,1.11,1.77,1.64.71.67,1.37,1.31,2.06,1.86,1.69,1.38,3.52,2.32,6.44,2.32s4.75-.93,6.44-2.32c.69.56,1.35,1.19,2.06,1.86.56.53,1.14,1.09,1.78,1.64Z"/><path class="cls-35" d="m98.29,48.2c-5.12,0-8.27-2.15-10.44-4.03-.66-.57-1.26-1.14-1.79-1.64-.71-.68-1.37-1.3-2.04-1.85-1.44-1.17-3.2-2.26-6.28-2.26s-4.84,1.09-6.28,2.26l-.16.13-.16-.13c-.71-.58-1.4-1.24-2.07-1.88l-.11-.11c-.52-.5-1.06-1.01-1.65-1.52l-.22-.19.22-.19c2.17-1.88,5.32-4.03,10.44-4.03s8.27,2.15,10.44,4.03c.6.52,1.14,1.04,1.67,1.54l.11.11c.66.63,1.35,1.29,2.04,1.85,1.44,1.17,3.19,2.26,6.28,2.26s4.84-1.09,6.28-2.26l.16-.13.16.13c.67.55,1.31,1.15,2.07,1.88.52.5,1.12,1.07,1.77,1.63l.22.19-.22.19c-2.17,1.88-5.32,4.03-10.45,4.03Zm-20.55-10.3c3.24,0,5.09,1.14,6.61,2.38.69.56,1.35,1.19,2.05,1.86.54.52,1.14,1.08,1.78,1.64,2.1,1.82,5.15,3.91,10.11,3.91s7.79-1.94,9.89-3.72c-.57-.5-1.09-1-1.56-1.45-.69-.66-1.28-1.22-1.88-1.72-1.48,1.18-3.31,2.24-6.44,2.24s-5.09-1.14-6.6-2.38c-.71-.58-1.4-1.24-2.07-1.88l-.11-.11c-.52-.5-1.06-1.01-1.65-1.52-2.1-1.82-5.15-3.91-10.11-3.91s-7.79,1.94-9.89,3.72c.51.45.99.9,1.45,1.34l.11.11c.61.58,1.24,1.19,1.88,1.72,1.48-1.18,3.31-2.24,6.44-2.24Z"/></g><g><path class="cls-6" d="m149.68,43.98c-2.36,2.04-5.41,3.97-10.28,3.97s-7.92-1.93-10.28-3.97c-.64-.55-1.22-1.1-1.78-1.64-.71-.67-1.37-1.31-2.06-1.86-1.69-1.38-3.52-2.32-6.44-2.32s-4.75.93-6.44,2.32c-.69-.56-1.35-1.19-2.06-1.86-.56-.53-1.14-1.08-1.77-1.64,2.36-2.04,5.41-3.97,10.27-3.97s7.92,1.93,10.28,3.97c.64.55,1.22,1.11,1.77,1.64.71.67,1.37,1.31,2.06,1.86,1.69,1.38,3.52,2.32,6.44,2.32s4.75-.94,6.44-2.32c.69.56,1.35,1.19,2.06,1.86.56.53,1.14,1.09,1.78,1.64Z"/><path class="cls-35" d="m139.4,48.2c-5.12,0-8.27-2.15-10.44-4.03-.66-.57-1.26-1.14-1.79-1.64-.75-.72-1.38-1.31-2.04-1.85-1.44-1.17-3.2-2.26-6.28-2.26s-4.84,1.09-6.28,2.26l-.16.13-.16-.13c-.71-.58-1.4-1.24-2.07-1.88l-.11-.1c-.52-.5-1.07-1.01-1.66-1.53l-.22-.19.22-.19c2.17-1.88,5.32-4.03,10.44-4.03s8.28,2.15,10.45,4.03c.6.52,1.14,1.04,1.67,1.54l.11.11c.66.63,1.35,1.29,2.04,1.85,1.44,1.17,3.2,2.26,6.28,2.26s4.84-1.09,6.28-2.26l.16-.13.16.13c.69.56,1.35,1.19,2.05,1.86.54.52,1.14,1.08,1.78,1.64l.22.19-.22.19c-2.17,1.88-5.32,4.03-10.44,4.03Zm-20.56-10.3c3.25,0,5.09,1.14,6.61,2.38.67.55,1.31,1.15,2.07,1.88.53.5,1.12,1.07,1.77,1.63,2.1,1.82,5.15,3.91,10.11,3.91s7.79-1.94,9.89-3.72c-.57-.5-1.09-1-1.56-1.45-.65-.62-1.26-1.2-1.88-1.72-1.49,1.18-3.32,2.24-6.44,2.24s-5.09-1.14-6.61-2.38c-.71-.58-1.4-1.24-2.07-1.88l-.11-.11c-.52-.5-1.06-1.01-1.65-1.52-2.1-1.82-5.15-3.91-10.11-3.91s-7.79,1.94-9.88,3.72c.51.45.99.91,1.45,1.35l.11.1c.61.58,1.24,1.19,1.88,1.72,1.48-1.18,3.31-2.24,6.44-2.24Z"/></g><g><path class="cls-22" d="m35.34,47.94c3.48-.38,7.87-4.56,9.28-6.1.17.16.34.33.52.49.99.94,2.07,1.97,3.37,2.89-1.86,2.04-8.25,8.04-13.17,2.71Z"/><path class="cls-35" d="m39.89,50.35c-1.78,0-3.37-.75-4.74-2.23l-.34-.37.5-.05c3.17-.34,7.35-4.08,9.12-6.01l.18-.19.35.34c.12.11.23.22.35.33l.04.04c.95.91,2.03,1.93,3.3,2.83l.24.17-.19.21c-1.05,1.16-4.79,4.93-8.78,4.95h-.02Zm-4.02-2.23c1.19,1.14,2.54,1.72,4.02,1.72h.02c3.57-.01,6.98-3.26,8.21-4.57-1.19-.88-2.21-1.85-3.12-2.71l-.04-.04c-.11-.1-.22-.21-.33-.31-.92.97-5.1,5.18-8.76,5.91Z"/></g><g><path class="cls-2" d="m88.02,43.98c-2.36,2.04-5.41,3.97-10.28,3.97s-7.92-1.93-10.28-3.97c-.64-.55-1.22-1.1-1.78-1.64-.71-.67-1.37-1.31-2.06-1.86-1.69-1.38-3.52-2.32-6.44-2.32-2.41,0-3.73,1.05-5.42,3.08-1.07-.71-2.03-1.63-3.08-2.63-.26-.25-.53-.5-.8-.76,2.1-2.51,4.72-4.84,9.3-4.84,4.86,0,7.92,1.93,10.28,3.97.64.55,1.22,1.11,1.77,1.64.71.67,1.37,1.31,2.06,1.86,1.69,1.38,3.52,2.32,6.44,2.32s4.75-.94,6.44-2.32c.69.56,1.35,1.19,2.06,1.86.56.53,1.14,1.09,1.78,1.64Z"/><path class="cls-35" d="m77.74,48.2c-5.12,0-8.27-2.15-10.44-4.03-.65-.56-1.26-1.14-1.79-1.64-.71-.68-1.37-1.3-2.04-1.85-1.44-1.17-3.2-2.26-6.28-2.26-2.31,0-3.57,1.01-5.22,2.99l-.15.18-.19-.13c-1.09-.72-2.07-1.66-3.11-2.65l-.08-.08c-.24-.22-.48-.45-.73-.69l-.18-.17.16-.19c2.15-2.56,4.78-4.94,9.5-4.94,5.12,0,8.27,2.15,10.44,4.03.6.52,1.14,1.04,1.67,1.54l.11.11c.66.63,1.35,1.29,2.04,1.85,1.44,1.17,3.2,2.26,6.28,2.26s4.84-1.09,6.28-2.26l.16-.13.16.13c.69.56,1.35,1.19,2.05,1.86.54.52,1.14,1.08,1.78,1.64l.22.19-.22.19c-2.17,1.88-5.32,4.03-10.44,4.03Zm-20.55-10.3c3.24,0,5.09,1.14,6.61,2.38.69.56,1.35,1.19,2.05,1.86.54.52,1.14,1.09,1.79,1.64,2.1,1.82,5.15,3.91,10.11,3.91s7.79-1.94,9.89-3.72c-.57-.5-1.09-1-1.56-1.45-.65-.62-1.26-1.2-1.88-1.72-1.48,1.18-3.32,2.24-6.44,2.24s-5.09-1.14-6.61-2.38c-.71-.58-1.4-1.24-2.07-1.88l-.11-.11c-.52-.5-1.06-1.01-1.65-1.52-2.1-1.82-5.15-3.91-10.11-3.91-4.39,0-6.91,2.17-8.95,4.57.19.18.37.35.55.52l.08.07c.97.92,1.88,1.79,2.86,2.47,1.65-1.94,3.04-2.99,5.46-2.99Z"/></g><g><path class="cls-23" d="m129.12,43.98c-2.36,2.04-5.42,3.97-10.28,3.97s-7.91-1.93-10.27-3.97c-.64-.55-1.22-1.1-1.78-1.64-.71-.67-1.37-1.31-2.06-1.86-1.69-1.38-3.52-2.32-6.44-2.32s-4.75.93-6.44,2.32c-.69-.56-1.35-1.19-2.06-1.86-.56-.53-1.14-1.08-1.77-1.64,2.36-2.04,5.41-3.97,10.27-3.97s7.92,1.93,10.28,3.97c.64.55,1.22,1.11,1.77,1.64.71.67,1.37,1.31,2.06,1.86,1.69,1.38,3.52,2.32,6.44,2.32s4.75-.93,6.44-2.32c.69.56,1.35,1.19,2.06,1.86.56.53,1.14,1.09,1.78,1.64Z"/><path class="cls-35" d="m118.84,48.2c-5.12,0-8.27-2.15-10.44-4.03-.66-.57-1.26-1.14-1.79-1.64-.75-.72-1.38-1.32-2.04-1.85-1.44-1.17-3.2-2.26-6.28-2.26s-4.84,1.09-6.28,2.26l-.16.13-.16-.13c-.71-.58-1.4-1.24-2.07-1.88l-.11-.11c-.52-.5-1.06-1.01-1.65-1.52l-.22-.19.22-.19c2.17-1.88,5.32-4.03,10.44-4.03s8.28,2.15,10.45,4.03c.6.52,1.15,1.04,1.68,1.54l.11.1c.66.63,1.35,1.29,2.04,1.85,1.44,1.17,3.19,2.26,6.28,2.26s4.84-1.09,6.28-2.26l.16-.13.16.13c.67.55,1.31,1.15,2.07,1.88.53.5,1.12,1.07,1.77,1.63l.22.19-.22.19c-2.17,1.88-5.32,4.03-10.45,4.03Zm-20.55-10.3c3.25,0,5.09,1.14,6.61,2.38.67.55,1.31,1.15,2.07,1.88.52.5,1.12,1.07,1.77,1.63,2.1,1.82,5.15,3.91,10.11,3.91s7.79-1.94,9.89-3.72c-.57-.5-1.09-1-1.56-1.45-.69-.66-1.28-1.22-1.88-1.72-1.48,1.18-3.31,2.24-6.44,2.24s-5.09-1.14-6.6-2.38c-.71-.58-1.4-1.24-2.07-1.88l-.11-.1c-.52-.5-1.07-1.01-1.66-1.53-2.1-1.82-5.15-3.91-10.11-3.91s-7.79,1.94-9.88,3.72c.51.45.99.9,1.45,1.34l.11.11c.61.58,1.24,1.19,1.88,1.72,1.48-1.18,3.31-2.24,6.44-2.24Z"/></g><g><path class="cls-8" d="m153.51,40.48c1.63-1.33,3.38-2.24,6.12-2.31,1.56.01,2.89.43,3.56,1.13.36.38.52.84.5,1.45-.02.51-.09,2.05-3.73,2.05-2.93,0-4.75-.93-6.44-2.32-.69-.56-1.35-1.19-2.06-1.86-.56-.53-1.14-1.09-1.77-1.64-2.36-2.04-5.41-3.97-10.28-3.97s-7.92,1.93-10.28,3.97c.64.55,1.22,1.11,1.77,1.64.71.67,1.37,1.31,2.06,1.86,1.69-1.38,3.52-2.32,6.44-2.32s4.75.94,6.44,2.32c.69.56,1.35,1.19,2.06,1.86.56.53,1.14,1.09,1.78,1.64,2.36,2.04,5.42,3.97,10.28,3.97,6.33,0,8.74-3.61,8.88-6.99.08-2.02-.58-3.83-1.93-5.23-1.61-1.67-4.06-2.63-6.95-2.71h-.4c-4.62.1-7.58,1.97-9.87,3.96"/><path class="cls-35" d="m159.95,48.2c-5.12,0-8.27-2.15-10.44-4.03-.66-.57-1.26-1.14-1.79-1.64-.71-.68-1.37-1.3-2.04-1.85-1.44-1.17-3.2-2.26-6.28-2.26s-4.84,1.09-6.28,2.26l-.16.13-.16-.13c-.71-.58-1.4-1.24-2.07-1.88l-.11-.11c-.52-.5-1.06-1.01-1.65-1.52l-.22-.19.22-.19c2.17-1.88,5.32-4.03,10.44-4.03s8.11,2.05,10.28,3.89c2.09-1.78,5.1-3.77,9.87-3.88h.41c2.96.09,5.49,1.08,7.14,2.79,1.39,1.45,2.08,3.33,2,5.42-.15,3.5-2.62,7.23-9.13,7.23Zm-20.55-10.3c3.24,0,5.09,1.14,6.61,2.38.69.56,1.35,1.19,2.05,1.86.54.52,1.14,1.08,1.78,1.64,2.1,1.82,5.15,3.91,10.11,3.91,6.15,0,8.49-3.48,8.62-6.74.08-1.95-.56-3.69-1.85-5.04-1.55-1.62-3.96-2.55-6.78-2.63h-.4c-4.56.1-7.46,1.99-9.48,3.7.54.48,1.05.96,1.53,1.42l.03.02c.61.58,1.24,1.18,1.88,1.72,1.36-1.09,3.17-2.16,6.11-2.24,1.64.01,3.04.47,3.75,1.21.42.43.6.95.57,1.64-.02.57-.1,2.29-3.99,2.29-3.25,0-5.09-1.14-6.61-2.38-.71-.58-1.4-1.24-2.07-1.88l-.03-.02c-.55-.52-1.12-1.07-1.74-1.6-2.1-1.82-5.15-3.91-10.11-3.91s-7.79,1.94-9.89,3.72c.51.45.99.9,1.45,1.34l.11.11c.61.58,1.24,1.19,1.88,1.72,1.48-1.18,3.31-2.24,6.44-2.24Zm14.52,2.57c1.39,1.1,3.12,2.06,6.04,2.06,3.4,0,3.46-1.36,3.48-1.8.02-.54-.11-.93-.43-1.26-.62-.65-1.88-1.04-3.38-1.05-2.72.07-4.37,1-5.71,2.06Z"/></g><g><path class="cls-37" d="m139.4,45.62c-5.24,0-7.89-2.52-10.45-4.96-2.6-2.48-5.06-4.82-10.1-4.82-4.03,0-6.43,1.58-8.25,3.12l-.33-.39c1.89-1.6,4.38-3.24,8.58-3.24,5.24,0,7.89,2.52,10.45,4.96,2.6,2.48,5.06,4.82,10.1,4.82,4.02,0,6.41-1.57,8.22-3.1l.33.39c-1.88,1.59-4.36,3.22-8.55,3.22Z"/><path class="cls-37" d="m98.29,45.62c-5.24,0-7.89-2.52-10.45-4.96-2.6-2.48-5.06-4.82-10.1-4.82-4.02,0-6.4,1.56-8.21,3.09l-.33-.39c1.88-1.59,4.36-3.21,8.54-3.21,5.24,0,7.89,2.52,10.45,4.96,2.6,2.48,5.06,4.82,10.1,4.82,4.02,0,6.4-1.56,8.21-3.09l.33.39c-1.87,1.59-4.36,3.21-8.54,3.21Z"/><path class="cls-37" d="m36.64,35.58c1.36-.18,2.76-.05,4.09.35,1.33.42,2.56,1.11,3.66,1.94,2.21,1.66,3.94,3.81,6.18,5.26,1.11.73,2.32,1.28,3.61,1.58,1.28.3,2.63.39,3.95.31,1.33-.08,2.63-.35,3.86-.86,1.22-.51,2.34-1.25,3.37-2.1l.33.39c-1.03.9-2.19,1.7-3.47,2.25-1.28.55-2.66.87-4.05.95-1.38.09-2.78,0-4.14-.32-1.36-.31-2.66-.89-3.82-1.66-2.33-1.55-4.04-3.73-6.16-5.35-1.05-.82-2.22-1.47-3.48-1.9-1.26-.43-2.57-.67-3.93-.85Z"/><path class="cls-37" d="m77.74,45.62c-5.24,0-7.89-2.52-10.45-4.96-2.6-2.48-5.06-4.82-10.1-4.82-3.27,0-5.23,1.54-7.16,3.86l-.39-.33c2.02-2.43,4.08-4.05,7.55-4.05,5.24,0,7.89,2.52,10.45,4.96,2.6,2.48,5.06,4.82,10.1,4.82,4.03,0,6.42-1.57,8.24-3.11l.33.39c-1.88,1.6-4.37,3.24-8.57,3.24Z"/><path class="cls-37" d="m118.85,45.62c-5.24,0-7.89-2.52-10.45-4.96-2.6-2.48-5.06-4.82-10.1-4.82-4,0-6.36,1.54-8.15,3.04l-.33-.39c1.86-1.56,4.32-3.16,8.48-3.16,5.24,0,7.89,2.52,10.45,4.96,2.6,2.48,5.06,4.82,10.1,4.82,4,0,6.38-1.55,8.17-3.06l.33.39c-1.87,1.57-4.34,3.18-8.5,3.18Z"/><path class="cls-37" d="m159.95,45.62c-5.24,0-7.89-2.52-10.45-4.96-2.6-2.48-5.06-4.82-10.1-4.82-4.02,0-6.4,1.56-8.21,3.09l-.33-.39c1.88-1.59,4.36-3.21,8.54-3.21,5.24,0,7.89,2.52,10.45,4.96,2.6,2.48,5.06,4.82,10.1,4.82v.51Z"/><path class="cls-37" d="m159.95,45.62v-.51c3.79,0,5.93-1.52,6.05-4.27.05-1.25-.33-2.31-1.14-3.15-1.13-1.17-3.06-1.85-5.31-1.85v-.51c2.42,0,4.44.71,5.68,2,.9.93,1.34,2.15,1.28,3.53-.13,3.03-2.52,4.76-6.56,4.76Z"/></g><path class="cls-37" d="m46.47,43.93c-.42.5-.87.98-1.36,1.42-.49.44-1.02.84-1.59,1.18-.56.34-1.15.65-1.77.88-.62.23-1.25.4-1.9.48.58-.3,1.16-.57,1.73-.87.56-.3,1.12-.61,1.64-.96,1.05-.71,1.98-1.56,2.87-2.47l.38.34Z"/><path class="cls-37" d="m151.81,38.87l-.33-.39c1.86-1.56,4.32-3.16,8.47-3.16v.51c-3.99,0-6.36,1.53-8.14,3.04Z"/></g><g><path class="cls-18" d="m31.13,37.69c-.26.43-.85.24-.89-.27-.06-.66-.02-1.4.3-1.95.6-1.06,2.04-2.32,3.81-1.65.43.16.44.83.03,1.03-.94.44-2.32,1.29-3.25,2.83Z"/><path class="cls-35" d="m30.74,38.19c-.05,0-.11,0-.16-.02-.32-.08-.56-.36-.59-.72-.07-.87.04-1.58.33-2.1.75-1.32,2.35-2.43,4.13-1.76.29.11.48.39.5.73.01.34-.17.64-.45.77-.94.43-2.25,1.26-3.13,2.73h0c-.14.23-.37.36-.61.36Zm2.61-4.29c-1.25,0-2.18,1-2.59,1.71-.24.42-.33,1.04-.26,1.8.01.16.12.25.2.27.05.01.15.01.22-.11.95-1.58,2.35-2.47,3.36-2.93.12-.06.16-.19.16-.29,0-.1-.05-.22-.17-.27-.32-.12-.63-.17-.91-.17Z"/></g></g><g><line class="cls-20" x1="31.25" y1="34.67" x2="32.36" y2="35.95"/><rect class="cls-35" x="31.42" y="34.46" width=".77" height="1.69" transform="translate(-15.38 29.65) rotate(-41.15)"/></g><path class="cls-35" d="m39.89,50.35c-1.78,0-3.37-.75-4.74-2.23l-.34-.37.5-.05c3.17-.34,7.35-4.08,9.12-6.01l.18-.19.35.34c.12.11.23.22.35.33l.04.04c.95.91,2.03,1.93,3.3,2.83l.24.17-.19.21c-1.05,1.16-4.79,4.93-8.78,4.95h-.02Zm-4.02-2.23c1.19,1.14,2.54,1.72,4.02,1.72h.02c3.57-.01,6.98-3.26,8.21-4.57-1.19-.88-2.21-1.85-3.12-2.71l-.04-.04c-.11-.1-.22-.21-.33-.31-.92.97-5.1,5.18-8.76,5.91Z"/><path class="cls-55" d="m108.9,37c1.23-1.14,2.65-2,4.17-2.66,1.52-.66,3.15-1.04,4.8-1.17.83-.06,1.66-.02,2.48.07.82.08,1.63.26,2.42.49.39.13.78.24,1.16.4.19.08.38.14.57.23l.56.26.28.13.27.15.54.29c.35.2.69.43,1.04.64-.37-.18-.72-.37-1.09-.55l-.55-.25-.28-.12-.28-.11-.56-.22c-.19-.07-.38-.13-.57-.19-.38-.13-.77-.23-1.16-.33-1.56-.37-3.18-.52-4.77-.37-1.59.13-3.15.54-4.62,1.16-.74.31-1.45.67-2.13,1.09-.69.4-1.35.87-1.95,1.37l-.3-.32Z"/><path class="cls-31" d="m108.21,43.99c-1.23,1.14-2.65,2-4.17,2.66-1.52.66-3.15,1.05-4.8,1.17-.83.06-1.66.02-2.48-.07-.82-.08-1.63-.26-2.42-.49-.39-.13-.78-.24-1.16-.4-.19-.08-.38-.14-.57-.23l-.56-.26-.28-.13-.27-.15-.54-.29c-.35-.2-.69-.43-1.04-.64.37.18.72.37,1.09.55l.56.25.28.12.28.11.56.22c.19.07.38.13.57.19.38.13.77.23,1.16.33,1.56.37,3.18.52,4.77.37,1.59-.13,3.15-.54,4.62-1.16.74-.31,1.45-.67,2.13-1.09.69-.4,1.35-.87,1.95-1.37l.3.32Z"/><path class="cls-29" d="m128.75,44.02c-1.23,1.14-2.65,2-4.17,2.66-1.52.66-3.15,1.05-4.8,1.17-.83.06-1.66.02-2.48-.07-.82-.08-1.63-.26-2.42-.49-.39-.13-.78-.24-1.16-.4-.19-.08-.38-.14-.57-.23l-.56-.26-.28-.13-.27-.15-.54-.29c-.35-.2-.69-.43-1.04-.64.37.18.72.37,1.09.55l.55.25.28.12.28.11.56.22c.19.07.38.13.57.19.38.13.77.23,1.16.33,1.56.37,3.18.52,4.77.37,1.59-.13,3.15-.54,4.62-1.16.74-.31,1.45-.67,2.13-1.09.69-.4,1.35-.87,1.95-1.37l.3.32Z"/><path class="cls-28" d="m149.31,44.02c-1.23,1.14-2.65,2-4.17,2.66-1.52.66-3.15,1.05-4.8,1.17-.83.06-1.66.02-2.48-.07-.82-.08-1.63-.26-2.42-.49-.39-.13-.78-.24-1.16-.4-.19-.08-.38-.14-.57-.23l-.56-.26-.28-.13-.27-.15-.54-.29c-.35-.2-.69-.43-1.04-.64.37.18.72.37,1.09.55l.56.25.28.12.28.11.56.22c.19.07.38.13.57.19.38.13.77.23,1.16.33,1.56.37,3.18.52,4.77.37,1.59-.13,3.15-.54,4.62-1.16.74-.31,1.45-.67,2.14-1.09.69-.4,1.35-.87,1.95-1.37l.3.32Z"/><path class="cls-32" d="m48.19,37.8c1-1.35,2.29-2.42,3.73-3.24,1.45-.81,3.08-1.31,4.73-1.43,1.66-.1,3.32.14,4.87.68.78.26,1.52.6,2.25.96.36.19.71.4,1.06.6.34.22.68.44,1.02.67l-1.07-.58c-.37-.17-.73-.35-1.1-.51-.74-.32-1.49-.61-2.27-.82-1.54-.45-3.15-.65-4.73-.49-1.58.12-3.12.64-4.51,1.4-.69.38-1.35.83-1.96,1.34-.61.5-1.19,1.07-1.68,1.67l-.36-.25Z"/><path class="cls-26" d="m129.54,37c1.23-1.14,2.65-2,4.17-2.66,1.52-.66,3.15-1.04,4.8-1.17.83-.06,1.66-.02,2.48.07.82.08,1.63.26,2.42.49.39.13.78.24,1.16.4.19.08.38.14.57.23l.56.26.28.13.27.15.54.29c.35.2.69.43,1.04.64-.37-.18-.72-.37-1.09-.55l-.56-.25-.28-.12-.28-.11-.56-.22c-.19-.07-.38-.13-.57-.19-.38-.13-.77-.23-1.16-.33-1.56-.37-3.18-.52-4.77-.37-1.59.13-3.15.54-4.62,1.16-.74.31-1.45.67-2.13,1.09-.69.4-1.35.87-1.95,1.37l-.3-.32Z"/><path class="cls-35" d="m159.95,48.2c-5.12,0-8.27-2.15-10.44-4.03-.66-.57-1.26-1.14-1.79-1.64-.71-.68-1.37-1.3-2.04-1.85-1.44-1.17-3.2-2.26-6.28-2.26s-4.84,1.09-6.28,2.26l-.16.13-.16-.13c-.71-.58-1.4-1.24-2.07-1.88l-.11-.11c-.52-.5-1.06-1.01-1.65-1.52l-.22-.19.22-.19c2.17-1.88,5.32-4.03,10.44-4.03s8.11,2.05,10.28,3.89c2.09-1.78,5.1-3.77,9.87-3.88h.41c2.96.09,5.49,1.08,7.14,2.79,1.39,1.45,2.08,3.33,2,5.42-.15,3.5-2.62,7.23-9.13,7.23Zm-20.55-10.3c3.24,0,5.09,1.14,6.61,2.38.69.56,1.35,1.19,2.05,1.86.54.52,1.14,1.08,1.78,1.64,2.1,1.82,5.15,3.91,10.11,3.91,6.15,0,8.49-3.48,8.62-6.74.08-1.95-.56-3.69-1.85-5.04-1.55-1.62-3.96-2.55-6.78-2.63h-.4c-4.56.1-7.46,1.99-9.48,3.7.54.48,1.05.96,1.53,1.42l.03.02c.61.58,1.24,1.18,1.88,1.72,1.36-1.09,3.17-2.16,6.11-2.24,1.64.01,3.04.47,3.75,1.21.42.43.6.95.57,1.64-.02.57-.1,2.29-3.99,2.29-3.25,0-5.09-1.14-6.61-2.38-.71-.58-1.4-1.24-2.07-1.88l-.03-.02c-.55-.52-1.12-1.07-1.74-1.6-2.1-1.82-5.15-3.91-10.11-3.91s-7.79,1.94-9.89,3.72c.51.45.99.9,1.45,1.34l.11.11c.61.58,1.24,1.19,1.88,1.72,1.48-1.18,3.31-2.24,6.44-2.24Zm14.52,2.57c1.39,1.1,3.12,2.06,6.04,2.06,3.4,0,3.46-1.36,3.48-1.8.02-.54-.11-.93-.43-1.26-.62-.65-1.88-1.04-3.38-1.05-2.72.07-4.37,1-5.71,2.06Z"/><path class="cls-35" d="m77.74,48.2c-5.12,0-8.27-2.15-10.44-4.03-.65-.56-1.26-1.14-1.79-1.64-.71-.68-1.37-1.3-2.04-1.85-1.44-1.17-3.2-2.26-6.28-2.26-2.31,0-3.57,1.01-5.22,2.99l-.15.18-.19-.13c-1.09-.72-2.07-1.66-3.11-2.65l-.08-.08c-.24-.22-.48-.45-.73-.69l-.18-.17.16-.19c2.15-2.56,4.78-4.94,9.5-4.94,5.12,0,8.27,2.15,10.44,4.03.6.52,1.14,1.04,1.67,1.54l.11.11c.66.63,1.35,1.29,2.04,1.85,1.44,1.17,3.2,2.26,6.28,2.26s4.84-1.09,6.28-2.26l.16-.13.16.13c.69.56,1.35,1.19,2.05,1.86.54.52,1.14,1.08,1.78,1.64l.22.19-.22.19c-2.17,1.88-5.32,4.03-10.44,4.03Zm-20.55-10.3c3.24,0,5.09,1.14,6.61,2.38.69.56,1.35,1.19,2.05,1.86.54.52,1.14,1.09,1.79,1.64,2.1,1.82,5.15,3.91,10.11,3.91s7.79-1.94,9.89-3.72c-.57-.5-1.09-1-1.56-1.45-.65-.62-1.26-1.2-1.88-1.72-1.48,1.18-3.32,2.24-6.44,2.24s-5.09-1.14-6.61-2.38c-.71-.58-1.4-1.24-2.07-1.88l-.11-.11c-.52-.5-1.06-1.01-1.65-1.52-2.1-1.82-5.15-3.91-10.11-3.91-4.39,0-6.91,2.17-8.95,4.57.19.18.37.35.55.52l.08.07c.97.92,1.88,1.79,2.86,2.47,1.65-1.94,3.04-2.99,5.46-2.99Z"/><path class="cls-35" d="m98.29,48.2c-5.12,0-8.27-2.15-10.44-4.03-.66-.57-1.26-1.14-1.79-1.64-.71-.68-1.37-1.3-2.04-1.85-1.44-1.17-3.2-2.26-6.28-2.26s-4.84,1.09-6.28,2.26l-.16.13-.16-.13c-.71-.58-1.4-1.24-2.07-1.88l-.11-.11c-.52-.5-1.06-1.01-1.65-1.52l-.22-.19.22-.19c2.17-1.88,5.32-4.03,10.44-4.03s8.27,2.15,10.44,4.03c.6.52,1.14,1.04,1.67,1.54l.11.11c.66.63,1.35,1.29,2.04,1.85,1.44,1.17,3.19,2.26,6.28,2.26s4.84-1.09,6.28-2.26l.16-.13.16.13c.67.55,1.31,1.15,2.07,1.88.52.5,1.12,1.07,1.77,1.63l.22.19-.22.19c-2.17,1.88-5.32,4.03-10.45,4.03Zm-20.55-10.3c3.24,0,5.09,1.14,6.61,2.38.69.56,1.35,1.19,2.05,1.86.54.52,1.14,1.08,1.78,1.64,2.1,1.82,5.15,3.91,10.11,3.91s7.79-1.94,9.89-3.72c-.57-.5-1.09-1-1.56-1.45-.69-.66-1.28-1.22-1.88-1.72-1.48,1.18-3.31,2.24-6.44,2.24s-5.09-1.14-6.6-2.38c-.71-.58-1.4-1.24-2.07-1.88l-.11-.11c-.52-.5-1.06-1.01-1.65-1.52-2.1-1.82-5.15-3.91-10.11-3.91s-7.79,1.94-9.89,3.72c.51.45.99.9,1.45,1.34l.11.11c.61.58,1.24,1.19,1.88,1.72,1.48-1.18,3.31-2.24,6.44-2.24Z"/><path class="cls-35" d="m118.84,48.2c-5.12,0-8.27-2.15-10.44-4.03-.66-.57-1.26-1.14-1.79-1.64-.75-.72-1.38-1.32-2.04-1.85-1.44-1.17-3.2-2.26-6.28-2.26s-4.84,1.09-6.28,2.26l-.16.13-.16-.13c-.71-.58-1.4-1.24-2.07-1.88l-.11-.11c-.52-.5-1.06-1.01-1.65-1.52l-.22-.19.22-.19c2.17-1.88,5.32-4.03,10.44-4.03s8.28,2.15,10.45,4.03c.6.52,1.15,1.04,1.68,1.54l.11.1c.66.63,1.35,1.29,2.04,1.85,1.44,1.17,3.19,2.26,6.28,2.26s4.84-1.09,6.28-2.26l.16-.13.16.13c.67.55,1.31,1.15,2.07,1.88.53.5,1.12,1.07,1.77,1.63l.22.19-.22.19c-2.17,1.88-5.32,4.03-10.45,4.03Zm-20.55-10.3c3.25,0,5.09,1.14,6.61,2.38.67.55,1.31,1.15,2.07,1.88.52.5,1.12,1.07,1.77,1.63,2.1,1.82,5.15,3.91,10.11,3.91s7.79-1.94,9.89-3.72c-.57-.5-1.09-1-1.56-1.45-.69-.66-1.28-1.22-1.88-1.72-1.48,1.18-3.31,2.24-6.44,2.24s-5.09-1.14-6.6-2.38c-.71-.58-1.4-1.24-2.07-1.88l-.11-.1c-.52-.5-1.07-1.01-1.66-1.53-2.1-1.82-5.15-3.91-10.11-3.91s-7.79,1.94-9.88,3.72c.51.45.99.9,1.45,1.34l.11.11c.61.58,1.24,1.19,1.88,1.72,1.48-1.18,3.31-2.24,6.44-2.24Z"/><path class="cls-35" d="m139.4,48.2c-5.12,0-8.27-2.15-10.44-4.03-.66-.57-1.26-1.14-1.79-1.64-.75-.72-1.38-1.31-2.04-1.85-1.44-1.17-3.2-2.26-6.28-2.26s-4.84,1.09-6.28,2.26l-.16.13-.16-.13c-.71-.58-1.4-1.24-2.07-1.88l-.11-.1c-.52-.5-1.07-1.01-1.66-1.53l-.22-.19.22-.19c2.17-1.88,5.32-4.03,10.44-4.03s8.28,2.15,10.45,4.03c.6.52,1.14,1.04,1.67,1.54l.11.11c.66.63,1.35,1.29,2.04,1.85,1.44,1.17,3.2,2.26,6.28,2.26s4.84-1.09,6.28-2.26l.16-.13.16.13c.69.56,1.35,1.19,2.05,1.86.54.52,1.14,1.08,1.78,1.64l.22.19-.22.19c-2.17,1.88-5.32,4.03-10.44,4.03Zm-20.56-10.3c3.25,0,5.09,1.14,6.61,2.38.67.55,1.31,1.15,2.07,1.88.53.5,1.12,1.07,1.77,1.63,2.1,1.82,5.15,3.91,10.11,3.91s7.79-1.94,9.89-3.72c-.57-.5-1.09-1-1.56-1.45-.65-.62-1.26-1.2-1.88-1.72-1.49,1.18-3.32,2.24-6.44,2.24s-5.09-1.14-6.61-2.38c-.71-.58-1.4-1.24-2.07-1.88l-.11-.11c-.52-.5-1.06-1.01-1.65-1.52-2.1-1.82-5.15-3.91-10.11-3.91s-7.79,1.94-9.88,3.72c.51.45.99.91,1.45,1.35l.11.1c.61.58,1.24,1.19,1.88,1.72,1.48-1.18,3.31-2.24,6.44-2.24Z"/><path class="cls-30" d="m30.22,40.28c-.58-.53-1.03-1.2-1.35-1.93-.32-.73-.5-1.56-.42-2.4.04-.42.15-.83.32-1.22.18-.38.42-.73.7-1.03.57-.59,1.28-1,2.04-1.21-.6.5-1.15,1.01-1.57,1.6-.2.3-.37.61-.49.93-.12.32-.19.66-.23,1.01-.07.69.03,1.41.22,2.12.19.71.47,1.42.78,2.13Z"/><path class="cls-24" d="m38.63,33.35s.88-2.26-2-4.18l.87-1.48s3.24,2.02,1.13,5.67Z"/><path class="cls-19" d="m35.63,39.24s1.8,2.07,1.29,4.37c0,0-1-2.44-2.43-3.14l1.15-1.23Z"/><path class="cls-35" d="m57.19,48.2c-3.37,0-6.17-.88-8.83-2.76-1.3-.92-2.39-1.96-3.36-2.88l-.04-.04c-.12-.11-.24-.22-.35-.34l-.16-.16c-1.84-1.74-3.47-3.1-6.12-3.5-.15.35-.48,1.25-.46,2.33.02.75-.1,2.39-.65,3.21l-.35.53-.11-.63s-.29-1.46-2.13-3.2c-.74,1.79-.34,4.51-.33,4.55l.07.44-.42-.17c-3.76-1.52-4.14-4.49-4.17-5.04-1.39-1.94-1.85-3.72-1.37-5.29.56-1.82,2.34-3.3,5.3-4.37,1.93-.7,3.56-3.33,3.58-3.36l.13-.21.22.13c2.76,1.62,2.03,4.55,1.7,5.5,3.92.64,6.51,2.63,8.73,4.7.25.23.49.46.73.69l.08.07c1.03.98,2,1.9,3.05,2.6,1.57,1.05,3.2,1.51,5.28,1.51,3.08,0,4.84-1.09,6.28-2.26l.16-.13.16.13c.69.56,1.35,1.19,2.05,1.86.54.52,1.14,1.09,1.79,1.64l.22.19-.22.19c-2.17,1.88-5.32,4.03-10.44,4.03Zm-19.16-10.22l.18.02c2.91.38,4.63,1.82,6.59,3.66l.16.16c.12.11.23.22.35.33l.04.04c.95.91,2.03,1.93,3.3,2.83,2.57,1.82,5.28,2.66,8.54,2.66,4.78,0,7.79-1.94,9.89-3.72-.57-.5-1.09-1-1.56-1.45-.66-.62-1.26-1.2-1.88-1.72-1.49,1.18-3.32,2.24-6.44,2.24-2.18,0-3.9-.49-5.56-1.6-1.09-.72-2.07-1.66-3.11-2.65l-.08-.08c-.24-.22-.48-.45-.73-.69-2.22-2.07-4.82-4.06-8.77-4.62l-.34-.05.14-.31c.06-.14,1.47-3.28-1.16-5.03-.45.67-1.92,2.71-3.7,3.35-2.8,1.02-4.48,2.38-4.99,4.04-.44,1.42.01,3.07,1.34,4.9l.05.06v.08c0,.12.11,2.93,3.46,4.49-.15-1.41-.34-5.62,2.42-6.15l.1.5c-.63.12-1.08.5-1.39,1.01,1.31,1.19,1.91,2.27,2.18,2.93.24-.74.32-1.76.31-2.36-.03-1.53.57-2.69.59-2.74l.08-.16Z"/><g><path class="cls-52" d="m171.76,19.85v18.83h-.18c-.14-.73-.35-1.43-.64-2.09-.46-1.05-1.1-2.02-1.93-2.88-2.13-2.23-5.32-3.51-8.97-3.61h-.47s-.09-.01-.09-.01c-2.07.05-3.98.4-5.78,1.06l-4.02-4.02-4.02,4.02c-1.94-.72-4.01-1.07-6.26-1.07s-4.32.35-6.26,1.07l-4.02-4.02-4.02,4.02c-1.94-.72-4-1.07-6.26-1.07s-4.31.35-6.25,1.07l-4.02-4.02-4.02,4.02c-1.94-.72-4.01-1.07-6.26-1.07s-4.31.35-6.25,1.07l-4.02-4.02-4.02,4.02c-1.94-.72-4.01-1.07-6.26-1.07s-4.31.35-6.25,1.07l-4.02-4.02-4.02,4.02c-1.94-.72-4.01-1.07-6.26-1.07s-4.17.43-5.99,1.31l-4.26-4.26-4.02,4.03c-.2-.07-.39-.14-.59-.21-.03-2.08-.88-4.34-3.35-5.79l-2.45-1.43-1.51,2.41c-.55.89-1.6,2.03-2.22,2.26-.32.11-.63.23-.93.36v-8.91h139.89Z"/><path class="cls-34" d="m171.96,38.6l-.2.04-.18.04-.38.07c-.07-.35-.15-.69-.26-1.03-.42-1.4-1.16-2.65-2.21-3.75-2.06-2.15-5.15-3.39-8.71-3.49h-.53c-2.04.05-3.89.39-5.66,1.04l-.23.08-3.92-3.92-3.92,3.92-.24-.09c-1.9-.7-3.9-1.04-6.12-1.04s-4.22.34-6.12,1.04l-.24.09-3.92-3.92-3.92,3.92-.23-.09c-1.9-.7-3.91-1.04-6.13-1.04s-4.22.34-6.12,1.04l-.23.09-3.92-3.92-3.92,3.92-.23-.09c-1.9-.7-3.91-1.04-6.13-1.04s-4.22.34-6.12,1.04l-.23.09-3.92-3.92-3.92,3.92-.23-.09c-1.91-.7-3.91-1.04-6.13-1.04s-4.22.34-6.12,1.04l-.23.09-3.92-3.92-3.92,3.92-.24-.09c-1.9-.7-3.9-1.04-6.12-1.04s-4.05.42-5.82,1.27l-.25.12-4.18-4.18-3.92,3.93-.24-.09c-.18-.07-.38-.14-.57-.2l-.26-.09v-.27c-.03-1.66-.59-3.96-3.16-5.47l-2.14-1.24-1.3,2.1c-.5.8-1.62,2.12-2.42,2.41-.37.13-.72.27-1.06.42v-.84c.26-.11.52-.21.79-.31.48-.17,1.47-1.19,2.03-2.09l1.71-2.73,2.78,1.62c2.17,1.27,3.41,3.34,3.53,5.84.04.01.07.03.11.04l4.12-4.13,4.34,4.34c1.81-.82,3.75-1.22,5.91-1.22s4.24.33,6.16,1l4.12-4.12,4.12,4.12c1.91-.67,3.93-1,6.15-1s4.24.33,6.16,1l4.12-4.12,4.12,4.12c1.92-.67,3.93-1,6.15-1s4.24.33,6.16,1l4.12-4.12,4.12,4.12c1.92-.67,3.93-1,6.15-1s4.24.33,6.16,1l4.12-4.12,4.12,4.12c1.92-.67,3.94-1,6.16-1s4.24.33,6.16,1l4.12-4.12,4.12,4.13c1.77-.63,3.63-.96,5.67-1h.57c3.76.11,7.05,1.43,9.25,3.73.67.7,1.22,1.45,1.65,2.27.35.64.62,1.32.82,2.04.08.28.15.56.2.85Z"/></g></g><g><g><g><g><g><rect class="cls-9" x="116.14" y="244.22" width="14.21" height="14.21" transform="translate(32.67 516.2) rotate(-135)"/><path class="cls-35" d="m123.24,240.92l10.41,10.41-10.41,10.41-10.41-10.41,10.41-10.41Zm9.69,10.41l-9.69-9.69-9.69,9.69,9.69,9.69,9.69-9.69Z"/></g><g><rect class="cls-16" x="136.66" y="244.22" width="14.21" height="14.21" transform="translate(67.71 530.71) rotate(-135)"/><path class="cls-35" d="m143.77,240.92l10.41,10.41-10.41,10.41-10.41-10.41,10.41-10.41Zm9.69,10.41l-9.69-9.69-9.69,9.69,9.69,9.69,9.69-9.69Z"/></g><g><rect class="cls-15" x="95.59" y="244.22" width="14.21" height="14.21" transform="translate(-2.41 501.66) rotate(-135)"/><path class="cls-35" d="m102.69,240.92l10.41,10.41-10.41,10.41-10.41-10.41,10.41-10.41Zm9.69,10.41l-9.69-9.69-9.69,9.69,9.69,9.69,9.69-9.69Z"/></g><g><rect class="cls-45" x="75.03" y="244.22" width="14.21" height="14.21" transform="translate(-37.5 487.13) rotate(-135)"/><path class="cls-35" d="m82.14,240.92l10.41,10.41-10.41,10.41-10.41-10.41,10.41-10.41Zm9.69,10.41l-9.69-9.69-9.69,9.69,9.69,9.69,9.69-9.69Z"/></g><g><rect class="cls-44" x="54.48" y="244.22" width="14.21" height="14.21" transform="translate(-72.58 472.6) rotate(-135)"/><path class="cls-35" d="m61.59,240.92l10.41,10.41-10.41,10.41-10.41-10.41,10.41-10.41Zm9.69,10.41l-9.69-9.69-9.69,9.69,9.69,9.69,9.69-9.69Z"/></g><g><rect class="cls-46" x="33.93" y="244.22" width="14.21" height="14.21" transform="translate(-107.67 458.06) rotate(-135)"/><path class="cls-35" d="m41.03,240.92l10.41,10.41-10.41,10.41-10.41-10.41,10.41-10.41Zm9.69,10.41l-9.69-9.69-9.69,9.69,9.69,9.69,9.69-9.69Z"/></g><path class="cls-38" d="m132.87,251.33c-.74.83-1.51,1.63-2.28,2.43-.77.8-1.55,1.59-2.33,2.37-.78.79-1.58,1.56-2.37,2.34l-2.4,2.31-.27.26-.27-.26-2.38-2.31c-.78-.78-1.58-1.55-2.35-2.34-.78-.78-1.55-1.58-2.32-2.37-.76-.8-1.53-1.6-2.27-2.43.86.7,1.69,1.43,2.53,2.15.83.73,1.66,1.46,2.47,2.21.82.74,1.63,1.5,2.44,2.24l2.41,2.28h-.53s2.42-2.28,2.42-2.28c.82-.75,1.63-1.51,2.45-2.24.82-.74,1.65-1.48,2.49-2.21.84-.73,1.68-1.45,2.54-2.15Z"/><path class="cls-38" d="m153.38,251.33c-.74.83-1.51,1.63-2.28,2.43-.77.8-1.55,1.59-2.33,2.37-.78.79-1.58,1.56-2.37,2.34l-2.4,2.31-.27.26-.27-.26-2.38-2.31c-.78-.78-1.58-1.55-2.35-2.34-.78-.78-1.55-1.58-2.32-2.37-.76-.8-1.53-1.6-2.27-2.43.86.7,1.69,1.43,2.53,2.15.83.73,1.66,1.46,2.47,2.21.82.74,1.63,1.5,2.44,2.24l2.41,2.28h-.53s2.42-2.28,2.42-2.28c.82-.75,1.63-1.51,2.45-2.24.82-.74,1.65-1.48,2.49-2.21.84-.73,1.68-1.45,2.54-2.15Z"/><path class="cls-38" d="m112.31,251.33c-.74.83-1.51,1.63-2.28,2.43-.77.8-1.55,1.59-2.33,2.37-.78.79-1.58,1.56-2.37,2.34l-2.4,2.31-.27.26-.27-.26-2.38-2.31c-.78-.78-1.58-1.55-2.35-2.34-.78-.78-1.55-1.58-2.32-2.37-.76-.8-1.53-1.6-2.27-2.43.86.7,1.69,1.43,2.53,2.15.83.73,1.66,1.46,2.47,2.21.82.74,1.63,1.5,2.44,2.24l2.41,2.28h-.53s2.42-2.28,2.42-2.28c.82-.75,1.63-1.51,2.45-2.24.82-.74,1.65-1.48,2.49-2.21.84-.73,1.68-1.45,2.54-2.15Z"/><path class="cls-38" d="m91.74,251.33c-.74.83-1.51,1.63-2.28,2.43-.77.8-1.55,1.59-2.33,2.37-.78.79-1.58,1.56-2.37,2.34l-2.4,2.31-.27.26-.27-.26-2.38-2.31c-.78-.78-1.58-1.55-2.35-2.34-.78-.78-1.55-1.58-2.32-2.37-.76-.8-1.53-1.6-2.27-2.43.86.7,1.69,1.43,2.53,2.15.83.73,1.66,1.46,2.47,2.21.82.74,1.63,1.5,2.44,2.24l2.41,2.28h-.53s2.42-2.28,2.42-2.28c.82-.75,1.63-1.51,2.45-2.24.82-.74,1.65-1.48,2.49-2.21.84-.73,1.68-1.45,2.54-2.15Z"/><path class="cls-38" d="m71.18,251.33c-.74.83-1.51,1.63-2.28,2.43-.77.8-1.55,1.59-2.33,2.37-.78.79-1.58,1.56-2.37,2.34l-2.4,2.31-.27.26-.27-.26-2.38-2.31c-.78-.78-1.58-1.55-2.35-2.34-.78-.78-1.55-1.58-2.32-2.37-.76-.8-1.53-1.6-2.27-2.43.86.7,1.69,1.43,2.53,2.15.83.73,1.66,1.46,2.47,2.21.82.74,1.63,1.5,2.44,2.24l2.41,2.28h-.53s2.42-2.28,2.42-2.28c.82-.75,1.63-1.51,2.45-2.24.82-.74,1.65-1.48,2.49-2.21.84-.73,1.68-1.45,2.54-2.15Z"/><path class="cls-38" d="m50.61,251.33c-.74.83-1.51,1.63-2.28,2.43-.77.8-1.55,1.59-2.33,2.37-.78.79-1.58,1.56-2.37,2.34l-2.4,2.31-.27.26-.27-.26-2.38-2.31c-.78-.78-1.58-1.55-2.35-2.34-.78-.78-1.55-1.58-2.32-2.37-.76-.8-1.53-1.6-2.27-2.43.86.7,1.69,1.43,2.53,2.15.83.73,1.66,1.46,2.47,2.21.82.74,1.63,1.5,2.44,2.24l2.41,2.28h-.53s2.42-2.28,2.42-2.28c.82-.75,1.63-1.51,2.45-2.24.82-.74,1.65-1.48,2.49-2.21.84-.73,1.68-1.45,2.54-2.15Z"/><path class="cls-38" d="m132.87,251.31c-.86-.7-1.7-1.43-2.54-2.15-.83-.73-1.67-1.46-2.49-2.21-.83-.74-1.64-1.5-2.45-2.24l-2.42-2.27h.53s-2.41,2.27-2.41,2.27c-.81.75-1.62,1.51-2.44,2.24-.82.74-1.64,1.48-2.47,2.21-.84.73-1.67,1.45-2.53,2.15.74-.83,1.5-1.63,2.27-2.43.77-.8,1.54-1.59,2.32-2.37.77-.79,1.57-1.56,2.35-2.34l2.38-2.31.27-.26.27.26,2.4,2.31c.79.78,1.59,1.55,2.37,2.34.79.78,1.56,1.58,2.33,2.37.77.8,1.54,1.6,2.28,2.43Z"/><path class="cls-38" d="m153.38,251.31c-.86-.7-1.7-1.43-2.54-2.15-.83-.73-1.67-1.46-2.49-2.21-.83-.74-1.64-1.5-2.45-2.24l-2.42-2.27h.53s-2.41,2.27-2.41,2.27c-.81.75-1.62,1.51-2.44,2.24-.82.74-1.64,1.48-2.47,2.21-.84.73-1.67,1.45-2.53,2.15.74-.83,1.5-1.63,2.27-2.43.77-.8,1.54-1.59,2.32-2.37.77-.79,1.57-1.56,2.35-2.34l2.38-2.31.27-.26.27.26,2.4,2.31c.79.78,1.59,1.55,2.37,2.34.79.78,1.56,1.58,2.33,2.37.77.8,1.54,1.6,2.28,2.43Z"/><path class="cls-38" d="m112.31,251.31c-.86-.7-1.7-1.43-2.54-2.15-.83-.73-1.67-1.46-2.49-2.21-.83-.74-1.64-1.5-2.45-2.24l-2.42-2.27h.53s-2.41,2.27-2.41,2.27c-.81.75-1.62,1.51-2.44,2.24-.82.74-1.64,1.48-2.47,2.21-.84.73-1.67,1.45-2.53,2.15.74-.83,1.5-1.63,2.27-2.43.77-.8,1.54-1.59,2.32-2.37.77-.79,1.57-1.56,2.35-2.34l2.38-2.31.27-.26.27.26,2.4,2.31c.79.78,1.59,1.55,2.37,2.34.79.78,1.56,1.58,2.33,2.37.77.8,1.54,1.6,2.28,2.43Z"/><path class="cls-38" d="m91.74,251.31c-.86-.7-1.7-1.43-2.54-2.15-.83-.73-1.67-1.46-2.49-2.21-.83-.74-1.64-1.5-2.45-2.24l-2.42-2.27h.53s-2.41,2.27-2.41,2.27c-.81.75-1.62,1.51-2.44,2.24-.82.74-1.64,1.48-2.47,2.21-.84.73-1.67,1.45-2.53,2.15.74-.83,1.5-1.63,2.27-2.43.77-.8,1.54-1.59,2.32-2.37.77-.79,1.57-1.56,2.35-2.34l2.38-2.31.27-.26.27.26,2.4,2.31c.79.78,1.59,1.55,2.37,2.34.79.78,1.56,1.58,2.33,2.37.77.8,1.54,1.6,2.28,2.43Z"/><path class="cls-38" d="m71.18,251.31c-.86-.7-1.7-1.43-2.54-2.15-.83-.73-1.67-1.46-2.49-2.21-.83-.74-1.64-1.5-2.45-2.24l-2.42-2.27h.53s-2.41,2.27-2.41,2.27c-.81.75-1.62,1.51-2.44,2.24-.82.74-1.64,1.48-2.47,2.21-.84.73-1.67,1.45-2.53,2.15.74-.83,1.5-1.63,2.27-2.43.77-.8,1.54-1.59,2.32-2.37.77-.79,1.57-1.56,2.35-2.34l2.38-2.31.27-.26.27.26,2.4,2.31c.79.78,1.59,1.55,2.37,2.34.79.78,1.56,1.58,2.33,2.37.77.8,1.54,1.6,2.28,2.43Z"/><path class="cls-38" d="m50.61,251.31c-.86-.7-1.7-1.43-2.54-2.15-.83-.73-1.67-1.46-2.49-2.21-.83-.74-1.64-1.5-2.45-2.24l-2.42-2.27h.53s-2.41,2.27-2.41,2.27c-.81.75-1.62,1.51-2.44,2.24-.82.74-1.64,1.48-2.47,2.21-.84.73-1.67,1.45-2.53,2.15.74-.83,1.5-1.63,2.27-2.43.77-.8,1.54-1.59,2.32-2.37.77-.79,1.57-1.56,2.35-2.34l2.38-2.31.27-.26.27.26,2.4,2.31c.79.78,1.59,1.55,2.37,2.34.79.78,1.56,1.58,2.33,2.37.77.8,1.54,1.6,2.28,2.43Z"/><g><path class="cls-35" d="m123.24,240.92l10.41,10.41-10.41,10.41-10.41-10.41,10.41-10.41Zm9.69,10.41l-9.69-9.69-9.69,9.69,9.69,9.69,9.69-9.69Z"/><path class="cls-35" d="m143.77,240.92l10.41,10.41-10.41,10.41-10.41-10.41,10.41-10.41Zm9.69,10.41l-9.69-9.69-9.69,9.69,9.69,9.69,9.69-9.69Z"/><path class="cls-35" d="m102.69,240.92l10.41,10.41-10.41,10.41-10.41-10.41,10.41-10.41Zm9.69,10.41l-9.69-9.69-9.69,9.69,9.69,9.69,9.69-9.69Z"/><path class="cls-35" d="m82.14,240.92l10.41,10.41-10.41,10.41-10.41-10.41,10.41-10.41Zm9.69,10.41l-9.69-9.69-9.69,9.69,9.69,9.69,9.69-9.69Z"/><path class="cls-35" d="m61.59,240.92l10.41,10.41-10.41,10.41-10.41-10.41,10.41-10.41Zm9.69,10.41l-9.69-9.69-9.69,9.69,9.69,9.69,9.69-9.69Z"/><path class="cls-35" d="m41.03,240.92l10.41,10.41-10.41,10.41-10.41-10.41,10.41-10.41Zm9.69,10.41l-9.69-9.69-9.69,9.69,9.69,9.69,9.69-9.69Z"/></g></g><g><path class="cls-7" d="m154.51,253.59c3.05-.6,2.16-6.32,2.16-6.32,3.96,1.6,4.02,4.89,4.02,4.89,4.39,6.06-1.73,8.59-3.77,9.33-2.04.74-3.71,3.46-3.71,3.46-3.15-1.85-1.47-5.49-1.47-5.49-4.16-.59-6.79-2.71-8.91-4.68-.28-.26-.54-.51-.8-.76-1.05-1-2.01-1.92-3.08-2.63-1.43-.95-3.07-1.56-5.42-1.56-2.93,0-4.75.94-6.44,2.32-.69-.56-1.35-1.19-2.06-1.86-.56-.53-1.14-1.09-1.78-1.64,2.36-2.04,5.41-3.97,10.28-3.97,3.84,0,6.55,1.2,8.68,2.71,1.3.92,2.38,1.95,3.37,2.89.17.16.34.33.52.49,1.9,1.79,3.6,3.22,6.45,3.59,0,0,.6-1.13.57-2.62-.02-.74.11-2.33.6-3.07,0,0,.44,1.7,2.5,3.58"/><path class="cls-35" d="m133.52,244.44c3.37,0,6.17.88,8.83,2.76,1.3.92,2.39,1.96,3.36,2.88l.04.04c.12.11.24.22.35.34l.16.16c1.84,1.74,3.47,3.1,6.12,3.5.15-.35.48-1.25.46-2.33-.02-.75.1-2.39.65-3.21l.32-.48.14.55s.41,1.5,2.15,3.19c.73-1.79.33-4.48.32-4.52l-.07-.44.42.17c3.76,1.52,4.14,4.49,4.17,5.04,1.39,1.94,1.85,3.72,1.37,5.29-.56,1.82-2.34,3.3-5.3,4.37-1.93.7-3.56,3.33-3.58,3.36l-.13.21-.22-.13c-2.76-1.62-2.03-4.55-1.7-5.5-3.92-.64-6.51-2.63-8.73-4.7-.25-.23-.49-.46-.73-.69l-.08-.07c-1.03-.98-2-1.9-3.05-2.6-1.57-1.05-3.2-1.51-5.28-1.51-3.08,0-4.84,1.09-6.28,2.26l-.16.13-.16-.13c-.69-.56-1.35-1.19-2.05-1.86-.54-.52-1.14-1.09-1.79-1.64l-.22-.19.22-.19c2.17-1.88,5.32-4.03,10.44-4.03Zm19.16,10.22l-.18-.02c-2.91-.38-4.63-1.82-6.59-3.66l-.16-.16c-.12-.11-.23-.22-.35-.33l-.04-.04c-.95-.91-2.03-1.93-3.3-2.83-2.57-1.82-5.28-2.66-8.54-2.66-4.78,0-7.79,1.94-9.89,3.72.57.5,1.09,1,1.56,1.45.66.62,1.26,1.2,1.88,1.72,1.49-1.18,3.32-2.24,6.44-2.24,2.18,0,3.9.49,5.56,1.6,1.09.72,2.07,1.66,3.11,2.65l.08.08c.24.22.48.45.73.69,2.22,2.07,4.82,4.06,8.77,4.62l.34.05-.14.31c-.06.14-1.47,3.28,1.16,5.03.45-.67,1.92-2.71,3.7-3.35,2.8-1.02,4.48-2.38,4.99-4.04.44-1.42-.01-3.07-1.34-4.9l-.05-.06v-.08c0-.12-.11-2.93-3.46-4.49.15,1.41.34,5.62-2.42,6.15l-.1-.5c.64-.12,1.09-.51,1.4-1.03-1.27-1.2-1.89-2.3-2.18-2.95-.25.74-.33,1.79-.32,2.41.03,1.53-.57,2.69-.59,2.74l-.08.16Z"/></g><g><path class="cls-21" d="m82.14,248.67c2.36-2.04,5.42-3.97,10.28-3.97s7.91,1.93,10.27,3.97c.64.55,1.22,1.1,1.78,1.64.71.67,1.37,1.31,2.06,1.86,1.69,1.38,3.52,2.32,6.44,2.32s4.75-.93,6.44-2.32c.69.56,1.35,1.19,2.06,1.86.56.53,1.14,1.08,1.77,1.64-2.36,2.04-5.42,3.97-10.28,3.97s-7.92-1.93-10.28-3.97c-.64-.55-1.22-1.11-1.77-1.64-.71-.67-1.37-1.31-2.06-1.86-1.69-1.38-3.52-2.32-6.44-2.32s-4.75.93-6.44,2.32c-.69-.56-1.35-1.19-2.06-1.86-.56-.53-1.14-1.09-1.78-1.64Z"/><path class="cls-35" d="m92.42,244.44c5.12,0,8.27,2.15,10.44,4.03.66.57,1.26,1.14,1.79,1.64.71.68,1.37,1.3,2.04,1.85,1.44,1.17,3.2,2.26,6.28,2.26s4.84-1.09,6.28-2.26l.16-.13.16.13c.71.58,1.4,1.24,2.07,1.88l.11.11c.52.5,1.06,1.01,1.65,1.52l.22.19-.22.19c-2.17,1.88-5.32,4.03-10.44,4.03s-8.27-2.15-10.44-4.03c-.6-.52-1.14-1.04-1.67-1.54l-.11-.11c-.66-.63-1.35-1.29-2.04-1.85-1.44-1.17-3.19-2.26-6.28-2.26s-4.84,1.09-6.28,2.26l-.16.13-.16-.13c-.67-.55-1.31-1.15-2.07-1.88-.52-.5-1.12-1.07-1.77-1.63l-.22-.19.22-.19c2.17-1.88,5.32-4.03,10.45-4.03Zm20.55,10.3c-3.24,0-5.09-1.14-6.61-2.38-.69-.56-1.35-1.19-2.05-1.86-.54-.52-1.14-1.08-1.78-1.64-2.1-1.82-5.15-3.91-10.11-3.91s-7.79,1.94-9.89,3.72c.57.5,1.09,1,1.56,1.45.69.66,1.28,1.22,1.88,1.72,1.48-1.18,3.31-2.24,6.44-2.24s5.09,1.14,6.6,2.38c.71.58,1.4,1.24,2.07,1.88l.11.11c.52.5,1.06,1.01,1.65,1.52,2.1,1.82,5.15,3.91,10.11,3.91s7.79-1.94,9.89-3.72c-.51-.45-.99-.9-1.45-1.34l-.11-.11c-.61-.58-1.24-1.19-1.88-1.72-1.48,1.18-3.31,2.24-6.44,2.24Z"/></g><g><path class="cls-3" d="m41.03,248.67c2.36-2.04,5.41-3.97,10.28-3.97s7.92,1.93,10.28,3.97c.64.55,1.22,1.1,1.78,1.64.71.67,1.37,1.31,2.06,1.86,1.69,1.38,3.52,2.32,6.44,2.32s4.75-.93,6.44-2.32c.69.56,1.35,1.19,2.06,1.86.56.53,1.14,1.08,1.77,1.64-2.36,2.04-5.41,3.97-10.27,3.97s-7.92-1.93-10.28-3.97c-.64-.55-1.22-1.11-1.77-1.64-.71-.67-1.37-1.31-2.06-1.86-1.69-1.38-3.52-2.32-6.44-2.32s-4.75.94-6.44,2.32c-.69-.56-1.35-1.19-2.06-1.86-.56-.53-1.14-1.09-1.78-1.64Z"/><path class="cls-35" d="m51.31,244.44c5.12,0,8.27,2.15,10.44,4.03.66.57,1.26,1.14,1.79,1.64.75.72,1.38,1.31,2.04,1.85,1.44,1.17,3.2,2.26,6.28,2.26s4.84-1.09,6.28-2.26l.16-.13.16.13c.71.58,1.4,1.24,2.07,1.88l.11.1c.52.5,1.07,1.01,1.66,1.53l.22.19-.22.19c-2.17,1.88-5.32,4.03-10.44,4.03s-8.28-2.15-10.45-4.03c-.6-.52-1.14-1.04-1.67-1.54l-.11-.11c-.66-.63-1.35-1.29-2.04-1.85-1.44-1.17-3.2-2.26-6.28-2.26s-4.84,1.09-6.28,2.26l-.16.13-.16-.13c-.69-.56-1.35-1.19-2.05-1.86-.54-.52-1.14-1.08-1.78-1.64l-.22-.19.22-.19c2.17-1.88,5.32-4.03,10.44-4.03Zm20.56,10.3c-3.25,0-5.09-1.14-6.61-2.38-.67-.55-1.31-1.15-2.07-1.88-.53-.5-1.12-1.07-1.77-1.63-2.1-1.82-5.15-3.91-10.11-3.91s-7.79,1.94-9.89,3.72c.57.5,1.09,1,1.56,1.45.65.62,1.26,1.2,1.88,1.72,1.48-1.18,3.32-2.24,6.44-2.24s5.09,1.14,6.61,2.38c.71.58,1.4,1.24,2.07,1.88l.11.11c.52.5,1.06,1.01,1.65,1.52,2.1,1.82,5.15,3.91,10.11,3.91s7.79-1.94,9.88-3.72c-.51-.45-.99-.91-1.45-1.35l-.11-.1c-.61-.58-1.24-1.19-1.88-1.72-1.48,1.18-3.31,2.24-6.44,2.24Z"/></g><g><path class="cls-17" d="m155.37,244.7c-3.48.38-7.87,4.56-9.28,6.1-.17-.16-.34-.33-.52-.49-.99-.94-2.07-1.97-3.37-2.89,1.86-2.04,8.25-8.04,13.17-2.71Z"/><path class="cls-35" d="m150.82,242.29c1.78,0,3.37.75,4.74,2.23l.34.37-.5.05c-3.17.34-7.35,4.08-9.12,6.01l-.18.19-.35-.34c-.12-.11-.23-.22-.35-.33l-.04-.04c-.95-.91-2.03-1.93-3.3-2.83l-.24-.17.19-.21c1.05-1.16,4.79-4.93,8.78-4.95h.02Zm4.02,2.23c-1.19-1.14-2.54-1.72-4.02-1.72h-.02c-3.57.01-6.98,3.26-8.21,4.57,1.19.88,2.21,1.85,3.12,2.71l.04.04c.11.1.22.21.33.31.92-.97,5.1-5.18,8.76-5.91Z"/></g><g><path class="cls-5" d="m102.69,248.67c2.36-2.04,5.41-3.97,10.28-3.97s7.92,1.93,10.28,3.97c.64.55,1.22,1.1,1.78,1.64.71.67,1.37,1.31,2.06,1.86,1.69,1.38,3.52,2.32,6.44,2.32,2.41,0,3.73-1.05,5.42-3.08,1.07.71,2.03,1.63,3.08,2.63.26.25.53.5.8.76-2.1,2.51-4.72,4.84-9.3,4.84-4.86,0-7.92-1.93-10.28-3.97-.64-.55-1.22-1.11-1.77-1.64-.71-.67-1.37-1.31-2.06-1.86-1.69-1.38-3.52-2.32-6.44-2.32s-4.75.94-6.44,2.32c-.69-.56-1.35-1.19-2.06-1.86-.56-.53-1.14-1.09-1.78-1.64Z"/><path class="cls-35" d="m112.97,244.44c5.12,0,8.27,2.15,10.44,4.03.65.56,1.26,1.14,1.79,1.64.71.68,1.37,1.3,2.04,1.85,1.44,1.17,3.2,2.26,6.28,2.26,2.31,0,3.57-1.01,5.22-2.99l.15-.18.19.13c1.09.72,2.07,1.66,3.11,2.65l.08.08c.24.22.48.45.73.69l.18.17-.16.19c-2.15,2.56-4.78,4.94-9.5,4.94-5.12,0-8.27-2.15-10.44-4.03-.6-.52-1.14-1.04-1.67-1.54l-.11-.11c-.66-.63-1.35-1.29-2.04-1.85-1.44-1.17-3.2-2.26-6.28-2.26s-4.84,1.09-6.28,2.26l-.16.13-.16-.13c-.69-.56-1.35-1.19-2.05-1.86-.54-.52-1.14-1.08-1.78-1.64l-.22-.19.22-.19c2.17-1.88,5.32-4.03,10.44-4.03Zm20.55,10.3c-3.24,0-5.09-1.14-6.61-2.38-.69-.56-1.35-1.19-2.05-1.86-.54-.52-1.14-1.09-1.79-1.64-2.1-1.82-5.15-3.91-10.11-3.91s-7.79,1.94-9.89,3.72c.57.5,1.09,1,1.56,1.45.65.62,1.26,1.2,1.88,1.72,1.48-1.18,3.32-2.24,6.44-2.24s5.09,1.14,6.61,2.38c.71.58,1.4,1.24,2.07,1.88l.11.11c.52.5,1.06,1.01,1.65,1.52,2.1,1.82,5.15,3.91,10.11,3.91,4.39,0,6.91-2.17,8.95-4.57-.19-.18-.37-.35-.55-.52l-.08-.07c-.97-.92-1.88-1.79-2.86-2.47-1.65,1.94-3.04,3-5.46,3Z"/></g><g><path class="cls-41" d="m61.59,248.67c2.36-2.04,5.42-3.97,10.28-3.97s7.91,1.93,10.27,3.97c.64.55,1.22,1.1,1.78,1.64.71.67,1.37,1.31,2.06,1.86,1.69,1.38,3.52,2.32,6.44,2.32s4.75-.93,6.44-2.32c.69.56,1.35,1.19,2.06,1.86.56.53,1.14,1.08,1.77,1.64-2.36,2.04-5.41,3.97-10.27,3.97s-7.92-1.93-10.28-3.97c-.64-.55-1.22-1.11-1.77-1.64-.71-.67-1.37-1.31-2.06-1.86-1.69-1.38-3.52-2.32-6.44-2.32s-4.75.93-6.44,2.32c-.69-.56-1.35-1.19-2.06-1.86-.56-.53-1.14-1.09-1.78-1.64Z"/><path class="cls-35" d="m71.87,244.44c5.12,0,8.27,2.15,10.44,4.03.66.57,1.26,1.14,1.79,1.64.75.72,1.38,1.32,2.04,1.85,1.44,1.17,3.2,2.26,6.28,2.26s4.84-1.09,6.28-2.26l.16-.13.16.13c.71.58,1.4,1.24,2.07,1.88l.11.11c.52.5,1.06,1.01,1.65,1.52l.22.19-.22.19c-2.17,1.88-5.32,4.03-10.44,4.03s-8.28-2.15-10.45-4.03c-.6-.52-1.15-1.04-1.68-1.54l-.11-.1c-.66-.63-1.35-1.29-2.04-1.85-1.44-1.17-3.19-2.26-6.28-2.26s-4.84,1.09-6.28,2.26l-.16.13-.16-.13c-.67-.55-1.31-1.15-2.07-1.88-.53-.5-1.12-1.07-1.77-1.63l-.22-.19.22-.19c2.17-1.88,5.32-4.03,10.45-4.03Zm20.55,10.3c-3.25,0-5.09-1.14-6.61-2.38-.67-.55-1.31-1.15-2.07-1.88-.52-.5-1.12-1.07-1.77-1.63-2.1-1.82-5.15-3.91-10.11-3.91s-7.79,1.94-9.89,3.72c.57.5,1.09,1,1.56,1.45.69.66,1.28,1.22,1.88,1.72,1.48-1.18,3.31-2.24,6.44-2.24s5.09,1.14,6.6,2.38c.71.58,1.4,1.24,2.07,1.88l.11.1c.52.5,1.07,1.01,1.66,1.53,2.1,1.82,5.15,3.91,10.11,3.91s7.79-1.94,9.88-3.72c-.51-.45-.99-.9-1.45-1.34l-.11-.11c-.61-.58-1.24-1.19-1.88-1.72-1.48,1.18-3.31,2.24-6.44,2.24Z"/></g><g><path class="cls-4" d="m37.2,252.17c-1.63,1.33-3.38,2.24-6.12,2.31-1.56-.01-2.89-.43-3.56-1.13-.36-.38-.52-.84-.5-1.45.02-.51.09-2.05,3.73-2.05,2.93,0,4.75.93,6.44,2.32.69.56,1.35,1.19,2.06,1.86.56.53,1.14,1.09,1.77,1.64,2.36,2.04,5.41,3.97,10.28,3.97s7.92-1.93,10.28-3.97c-.64-.55-1.22-1.11-1.77-1.64-.71-.67-1.37-1.31-2.06-1.86-1.69,1.38-3.52,2.32-6.44,2.32s-4.75-.94-6.44-2.32c-.69-.56-1.35-1.19-2.06-1.86-.56-.53-1.14-1.09-1.78-1.64-2.36-2.04-5.42-3.97-10.28-3.97-6.33,0-8.74,3.61-8.88,6.99-.08,2.02.58,3.83,1.93,5.23,1.61,1.67,4.06,2.63,6.95,2.71h.4c4.62-.1,7.58-1.97,9.87-3.96"/><path class="cls-35" d="m30.76,244.44c5.12,0,8.27,2.15,10.44,4.03.66.57,1.26,1.14,1.79,1.64.71.68,1.37,1.3,2.04,1.85,1.44,1.17,3.2,2.26,6.28,2.26s4.84-1.09,6.28-2.26l.16-.13.16.13c.71.58,1.4,1.24,2.07,1.88l.11.11c.52.5,1.06,1.01,1.65,1.52l.22.19-.22.19c-2.17,1.88-5.32,4.03-10.44,4.03s-8.11-2.05-10.28-3.89c-2.09,1.78-5.1,3.77-9.87,3.88h-.41c-2.96-.09-5.49-1.08-7.14-2.79-1.39-1.45-2.08-3.33-2-5.42.15-3.5,2.62-7.23,9.13-7.23Zm20.55,10.3c-3.24,0-5.09-1.14-6.61-2.38-.69-.56-1.35-1.19-2.05-1.86-.54-.52-1.14-1.08-1.78-1.64-2.1-1.82-5.15-3.91-10.11-3.91-6.15,0-8.49,3.48-8.62,6.74-.08,1.95.56,3.69,1.85,5.04,1.55,1.62,3.96,2.55,6.78,2.63h.4c4.56-.1,7.46-1.99,9.48-3.7-.54-.48-1.05-.96-1.53-1.42l-.03-.02c-.61-.58-1.24-1.18-1.88-1.72-1.36,1.09-3.17,2.16-6.11,2.24-1.64-.01-3.04-.47-3.75-1.21-.42-.43-.6-.95-.57-1.64.02-.57.1-2.29,3.99-2.29,3.25,0,5.09,1.14,6.61,2.38.71.58,1.4,1.24,2.07,1.88l.03.02c.55.52,1.12,1.07,1.74,1.6,2.1,1.82,5.15,3.91,10.11,3.91s7.79-1.94,9.89-3.72c-.51-.45-.99-.9-1.45-1.34l-.11-.11c-.61-.58-1.24-1.19-1.88-1.72-1.48,1.18-3.31,2.24-6.44,2.24Zm-14.52-2.57c-1.39-1.1-3.12-2.06-6.04-2.06-3.4,0-3.46,1.36-3.48,1.8-.02.54.11.93.43,1.26.62.65,1.88,1.04,3.38,1.05,2.72-.07,4.37-1,5.71-2.06Z"/></g><g><path class="cls-37" d="m51.31,247.02c5.24,0,7.89,2.52,10.45,4.96,2.6,2.48,5.06,4.82,10.1,4.82,4.03,0,6.43-1.58,8.25-3.12l.33.39c-1.89,1.6-4.38,3.24-8.58,3.24-5.24,0-7.89-2.52-10.45-4.96-2.6-2.48-5.06-4.82-10.1-4.82-4.02,0-6.41,1.57-8.22,3.1l-.33-.39c1.88-1.59,4.36-3.22,8.55-3.22Z"/><path class="cls-37" d="m92.42,247.02c5.24,0,7.89,2.52,10.45,4.96,2.6,2.48,5.06,4.82,10.1,4.82,4.02,0,6.4-1.56,8.21-3.09l.33.39c-1.88,1.59-4.36,3.21-8.54,3.21-5.24,0-7.89-2.52-10.45-4.96-2.6-2.48-5.06-4.82-10.1-4.82-4.02,0-6.4,1.56-8.21,3.09l-.33-.39c1.87-1.59,4.36-3.21,8.54-3.21Z"/><path class="cls-37" d="m154.07,257.06c-1.36.18-2.76.05-4.09-.35-1.33-.42-2.56-1.11-3.66-1.94-2.21-1.66-3.94-3.81-6.18-5.26-1.11-.73-2.32-1.28-3.61-1.58-1.28-.3-2.63-.39-3.95-.31-1.33.08-2.63.35-3.86.86-1.22.51-2.34,1.25-3.37,2.1l-.33-.39c1.03-.9,2.19-1.7,3.47-2.25,1.28-.55,2.66-.87,4.05-.95,1.38-.09,2.78,0,4.14.32,1.36.31,2.66.89,3.82,1.66,2.33,1.55,4.04,3.73,6.16,5.35,1.05.82,2.22,1.47,3.48,1.9,1.26.43,2.57.67,3.93.85Z"/><path class="cls-37" d="m112.97,247.02c5.24,0,7.89,2.52,10.45,4.96,2.6,2.48,5.06,4.82,10.1,4.82,3.27,0,5.23-1.54,7.16-3.86l.39.33c-2.02,2.43-4.08,4.05-7.55,4.05-5.24,0-7.89-2.52-10.45-4.96-2.6-2.48-5.06-4.82-10.1-4.82-4.03,0-6.42,1.57-8.24,3.11l-.33-.39c1.88-1.6,4.37-3.24,8.57-3.24Z"/><path class="cls-37" d="m71.86,247.02c5.24,0,7.89,2.52,10.45,4.96,2.6,2.48,5.06,4.82,10.1,4.82,4,0,6.36-1.54,8.15-3.04l.33.39c-1.86,1.56-4.32,3.16-8.48,3.16-5.24,0-7.89-2.52-10.45-4.96-2.6-2.48-5.06-4.82-10.1-4.82-4,0-6.38,1.55-8.17,3.06l-.33-.39c1.87-1.57,4.34-3.18,8.5-3.18Z"/><path class="cls-37" d="m30.76,247.02c5.24,0,7.89,2.52,10.45,4.96,2.6,2.48,5.06,4.82,10.1,4.82,4.02,0,6.4-1.56,8.21-3.09l.33.39c-1.88,1.59-4.36,3.21-8.54,3.21-5.24,0-7.89-2.52-10.45-4.96-2.6-2.48-5.06-4.82-10.1-4.82v-.51Z"/><path class="cls-37" d="m30.76,247.02v.51c-3.79,0-5.93,1.52-6.05,4.27-.05,1.25.33,2.31,1.14,3.15,1.13,1.17,3.06,1.85,5.31,1.85v.51c-2.42,0-4.44-.71-5.68-2-.9-.93-1.34-2.15-1.28-3.53.13-3.03,2.52-4.76,6.56-4.76Z"/></g><path class="cls-37" d="m144.24,248.72c.42-.5.87-.98,1.36-1.42.49-.44,1.02-.84,1.59-1.18.56-.34,1.15-.65,1.77-.88.62-.23,1.25-.4,1.9-.48-.59.3-1.16.57-1.73.87-.56.3-1.12.61-1.64.96-1.05.71-1.98,1.56-2.87,2.47l-.38-.34Z"/><path class="cls-37" d="m38.9,253.77l.33.39c-1.86,1.56-4.32,3.16-8.47,3.16v-.51c3.99,0,6.36-1.53,8.14-3.04Z"/></g><g><path class="cls-42" d="m159.58,254.95c.26-.43.85-.24.89.27.06.66.02,1.4-.3,1.95-.6,1.06-2.04,2.32-3.81,1.65-.43-.16-.44-.83-.03-1.03.94-.44,2.32-1.29,3.25-2.83Z"/><path class="cls-35" d="m159.97,254.45c.05,0,.11,0,.16.02.32.08.56.36.59.72.07.87-.04,1.58-.33,2.1-.75,1.32-2.35,2.43-4.13,1.76-.29-.11-.48-.39-.5-.73-.01-.34.17-.64.45-.77.94-.43,2.25-1.26,3.13-2.73h0c.14-.23.37-.36.61-.36Zm-2.61,4.29c1.25,0,2.18-1,2.59-1.71.24-.42.33-1.04.26-1.8-.01-.16-.12-.25-.2-.27-.05-.01-.15-.01-.22.11-.95,1.58-2.35,2.47-3.36,2.93-.12.06-.16.19-.16.29,0,.1.05.22.17.27.32.12.63.17.91.17Z"/></g></g><g><line class="cls-39" x1="159.46" y1="257.97" x2="158.35" y2="256.7"/><rect class="cls-35" x="158.52" y="256.49" width=".77" height="1.69" transform="translate(-130.08 168.14) rotate(-41.15)"/></g><path class="cls-35" d="m150.82,242.29c1.78,0,3.37.75,4.74,2.23l.34.37-.5.05c-3.17.34-7.35,4.08-9.12,6.01l-.18.19-.35-.34c-.12-.11-.23-.22-.35-.33l-.04-.04c-.95-.91-2.03-1.93-3.3-2.83l-.24-.17.19-.21c1.05-1.16,4.79-4.93,8.78-4.95h.02Zm4.02,2.23c-1.19-1.14-2.54-1.72-4.02-1.72h-.02c-3.57.01-6.98,3.26-8.21,4.57,1.19.88,2.21,1.85,3.12,2.71l.04.04c.11.1.22.21.33.31.92-.97,5.1-5.18,8.76-5.91Z"/><path class="cls-25" d="m81.81,255.64c-1.23,1.14-2.65,2-4.17,2.66-1.52.66-3.15,1.04-4.8,1.17-.83.06-1.66.02-2.48-.07-.82-.08-1.63-.26-2.42-.49-.39-.13-.78-.24-1.16-.4-.19-.08-.38-.14-.57-.23l-.56-.26-.28-.13-.27-.15-.54-.29c-.35-.2-.69-.43-1.04-.64.37.18.72.37,1.09.55l.56.25.28.12.28.11.56.22c.19.07.38.13.57.19.38.13.77.23,1.16.33,1.56.37,3.18.52,4.77.37,1.59-.13,3.15-.54,4.62-1.16.74-.31,1.45-.67,2.13-1.09.69-.4,1.35-.87,1.95-1.37l.3.32Z"/><path class="cls-27" d="m82.5,248.66c1.23-1.14,2.65-2,4.17-2.66,1.52-.66,3.15-1.05,4.8-1.17.83-.06,1.66-.02,2.48.07.82.08,1.63.26,2.42.49.39.13.78.24,1.16.4.19.08.38.14.57.23l.56.26.28.13.27.15.54.29c.35.2.69.43,1.04.64-.37-.18-.72-.37-1.09-.55l-.56-.25-.28-.12-.28-.11-.56-.22c-.19-.07-.38-.13-.57-.19-.38-.13-.77-.23-1.16-.33-1.56-.37-3.18-.52-4.77-.37-1.59.13-3.15.54-4.62,1.16-.74.31-1.45.67-2.13,1.09-.69.4-1.35.87-1.95,1.37l-.3-.32Z"/><path class="cls-51" d="m61.96,248.63c1.23-1.14,2.65-2,4.17-2.66,1.52-.66,3.15-1.05,4.8-1.17.83-.06,1.66-.02,2.48.07.82.08,1.63.26,2.42.49.39.13.78.24,1.16.4.19.08.38.14.57.23l.56.26.28.13.27.15.54.29c.35.2.69.43,1.04.64-.37-.18-.72-.37-1.09-.55l-.56-.25-.28-.12-.28-.11-.56-.22c-.19-.07-.38-.13-.57-.19-.38-.13-.77-.23-1.16-.33-1.56-.37-3.18-.52-4.77-.37-1.59.13-3.15.54-4.62,1.16-.74.31-1.45.67-2.13,1.09-.69.4-1.35.87-1.95,1.37l-.3-.32Z"/><path class="cls-49" d="m41.4,248.63c1.23-1.14,2.65-2,4.17-2.66,1.52-.66,3.15-1.05,4.8-1.17.83-.06,1.66-.02,2.48.07.82.08,1.63.26,2.42.49.39.13.78.24,1.16.4.19.08.38.14.57.23l.56.26.28.13.27.15.54.29c.35.2.69.43,1.04.64-.37-.18-.72-.37-1.09-.55l-.56-.25-.28-.12-.28-.11-.56-.22c-.19-.07-.38-.13-.57-.19-.38-.13-.77-.23-1.16-.33-1.56-.37-3.18-.52-4.77-.37-1.59.13-3.15.54-4.62,1.16-.74.31-1.45.67-2.13,1.09-.69.4-1.35.87-1.95,1.37l-.3-.32Z"/><path class="cls-47" d="m142.52,254.85c-1,1.35-2.29,2.42-3.73,3.24-1.45.81-3.08,1.31-4.73,1.43-1.66.1-3.32-.14-4.87-.68-.78-.26-1.52-.6-2.25-.96-.36-.19-.71-.4-1.06-.6-.34-.22-.68-.44-1.02-.67l1.07.58c.37.17.73.35,1.1.51.74.32,1.49.61,2.27.82,1.54.45,3.15.65,4.73.49,1.58-.12,3.12-.64,4.5-1.4.7-.38,1.36-.83,1.96-1.34.61-.5,1.19-1.07,1.68-1.67l.36.25Z"/><path class="cls-50" d="m61.17,255.64c-1.23,1.14-2.65,2-4.17,2.66-1.52.66-3.15,1.04-4.8,1.17-.83.06-1.66.02-2.48-.07-.82-.08-1.63-.26-2.42-.49-.39-.13-.78-.24-1.16-.4-.19-.08-.38-.14-.57-.23l-.56-.26-.28-.13-.27-.15-.54-.29c-.35-.2-.69-.43-1.04-.64.37.18.72.37,1.09.55l.55.25.28.12.28.11.56.22c.19.07.38.13.57.19.38.13.77.23,1.16.33,1.56.37,3.18.52,4.77.37,1.59-.13,3.15-.54,4.62-1.16.74-.31,1.45-.67,2.13-1.09.69-.4,1.35-.87,1.95-1.37l.3.32Z"/><path class="cls-35" d="m30.76,244.44c5.12,0,8.27,2.15,10.44,4.03.66.57,1.26,1.14,1.79,1.64.71.68,1.37,1.3,2.04,1.85,1.44,1.17,3.2,2.26,6.28,2.26s4.84-1.09,6.28-2.26l.16-.13.16.13c.71.58,1.4,1.24,2.07,1.88l.11.11c.52.5,1.06,1.01,1.65,1.52l.22.19-.22.19c-2.17,1.88-5.32,4.03-10.44,4.03s-8.11-2.05-10.28-3.89c-2.09,1.78-5.1,3.77-9.87,3.88h-.41c-2.96-.09-5.49-1.08-7.14-2.79-1.39-1.45-2.08-3.33-2-5.42.15-3.5,2.62-7.23,9.13-7.23Zm20.55,10.3c-3.24,0-5.09-1.14-6.61-2.38-.69-.56-1.35-1.19-2.05-1.86-.54-.52-1.14-1.08-1.78-1.64-2.1-1.82-5.15-3.91-10.11-3.91-6.15,0-8.49,3.48-8.62,6.74-.08,1.95.56,3.69,1.85,5.04,1.55,1.62,3.96,2.55,6.78,2.63h.4c4.56-.1,7.46-1.99,9.48-3.7-.54-.48-1.05-.96-1.53-1.42l-.03-.02c-.61-.58-1.24-1.18-1.88-1.72-1.36,1.09-3.17,2.16-6.11,2.24-1.64-.01-3.04-.47-3.75-1.21-.42-.43-.6-.95-.57-1.64.02-.57.1-2.29,3.99-2.29,3.25,0,5.09,1.14,6.61,2.38.71.58,1.4,1.24,2.07,1.88l.03.02c.55.52,1.12,1.07,1.74,1.6,2.1,1.82,5.15,3.91,10.11,3.91s7.79-1.94,9.89-3.72c-.51-.45-.99-.9-1.45-1.34l-.11-.11c-.61-.58-1.24-1.19-1.88-1.72-1.48,1.18-3.31,2.24-6.44,2.24Zm-14.52-2.57c-1.39-1.1-3.12-2.06-6.04-2.06-3.4,0-3.46,1.36-3.48,1.8-.02.54.11.93.43,1.26.62.65,1.88,1.04,3.38,1.05,2.72-.07,4.37-1,5.71-2.06Z"/><path class="cls-35" d="m112.97,244.44c5.12,0,8.27,2.15,10.44,4.03.65.56,1.26,1.14,1.79,1.64.71.68,1.37,1.3,2.04,1.85,1.44,1.17,3.2,2.26,6.28,2.26,2.31,0,3.57-1.01,5.22-2.99l.15-.18.19.13c1.09.72,2.07,1.66,3.11,2.65l.08.08c.24.22.48.45.73.69l.18.17-.16.19c-2.15,2.56-4.78,4.94-9.5,4.94-5.12,0-8.27-2.15-10.44-4.03-.6-.52-1.14-1.04-1.67-1.54l-.11-.11c-.66-.63-1.35-1.29-2.04-1.85-1.44-1.17-3.2-2.26-6.28-2.26s-4.84,1.09-6.28,2.26l-.16.13-.16-.13c-.69-.56-1.35-1.19-2.05-1.86-.54-.52-1.14-1.08-1.78-1.64l-.22-.19.22-.19c2.17-1.88,5.32-4.03,10.44-4.03Zm20.55,10.3c-3.24,0-5.09-1.14-6.61-2.38-.69-.56-1.35-1.19-2.05-1.86-.54-.52-1.14-1.09-1.79-1.64-2.1-1.82-5.15-3.91-10.11-3.91s-7.79,1.94-9.89,3.72c.57.5,1.09,1,1.56,1.45.65.62,1.26,1.2,1.88,1.72,1.48-1.18,3.32-2.24,6.44-2.24s5.09,1.14,6.61,2.38c.71.58,1.4,1.24,2.07,1.88l.11.11c.52.5,1.06,1.01,1.65,1.52,2.1,1.82,5.15,3.91,10.11,3.91,4.39,0,6.91-2.17,8.95-4.57-.19-.18-.37-.35-.55-.52l-.08-.07c-.97-.92-1.88-1.79-2.86-2.47-1.65,1.94-3.04,3-5.46,3Z"/><path class="cls-35" d="m92.42,244.44c5.12,0,8.27,2.15,10.44,4.03.66.57,1.26,1.14,1.79,1.64.71.68,1.37,1.3,2.04,1.85,1.44,1.17,3.2,2.26,6.28,2.26s4.84-1.09,6.28-2.26l.16-.13.16.13c.71.58,1.4,1.24,2.07,1.88l.11.11c.52.5,1.06,1.01,1.65,1.52l.22.19-.22.19c-2.17,1.88-5.32,4.03-10.44,4.03s-8.27-2.15-10.44-4.03c-.6-.52-1.14-1.04-1.67-1.54l-.11-.11c-.66-.63-1.35-1.29-2.04-1.85-1.44-1.17-3.19-2.26-6.28-2.26s-4.84,1.09-6.28,2.26l-.16.13-.16-.13c-.67-.55-1.31-1.15-2.07-1.88-.52-.5-1.12-1.07-1.77-1.63l-.22-.19.22-.19c2.17-1.88,5.32-4.03,10.45-4.03Zm20.55,10.3c-3.24,0-5.09-1.14-6.61-2.38-.69-.56-1.35-1.19-2.05-1.86-.54-.52-1.14-1.08-1.78-1.64-2.1-1.82-5.15-3.91-10.11-3.91s-7.79,1.94-9.89,3.72c.57.5,1.09,1,1.56,1.45.69.66,1.28,1.22,1.88,1.72,1.48-1.18,3.31-2.24,6.44-2.24s5.09,1.14,6.6,2.38c.71.58,1.4,1.24,2.07,1.88l.11.11c.52.5,1.06,1.01,1.65,1.52,2.1,1.82,5.15,3.91,10.11,3.91s7.79-1.94,9.89-3.72c-.51-.45-.99-.9-1.45-1.34l-.11-.11c-.61-.58-1.24-1.19-1.88-1.72-1.48,1.18-3.31,2.24-6.44,2.24Z"/><path class="cls-35" d="m71.87,244.44c5.12,0,8.27,2.15,10.44,4.03.66.57,1.26,1.14,1.79,1.64.75.72,1.38,1.32,2.04,1.85,1.44,1.17,3.2,2.26,6.28,2.26s4.84-1.09,6.28-2.26l.16-.13.16.13c.71.58,1.4,1.24,2.07,1.88l.11.11c.52.5,1.06,1.01,1.65,1.52l.22.19-.22.19c-2.17,1.88-5.32,4.03-10.44,4.03s-8.28-2.15-10.45-4.03c-.6-.52-1.15-1.04-1.68-1.54l-.11-.1c-.66-.63-1.35-1.29-2.04-1.85-1.44-1.17-3.19-2.26-6.28-2.26s-4.84,1.09-6.28,2.26l-.16.13-.16-.13c-.67-.55-1.31-1.15-2.07-1.88-.53-.5-1.12-1.07-1.77-1.63l-.22-.19.22-.19c2.17-1.88,5.32-4.03,10.45-4.03Zm20.55,10.3c-3.25,0-5.09-1.14-6.61-2.38-.67-.55-1.31-1.15-2.07-1.88-.52-.5-1.12-1.07-1.77-1.63-2.1-1.82-5.15-3.91-10.11-3.91s-7.79,1.94-9.89,3.72c.57.5,1.09,1,1.56,1.45.69.66,1.28,1.22,1.88,1.72,1.48-1.18,3.31-2.24,6.44-2.24s5.09,1.14,6.6,2.38c.71.58,1.4,1.24,2.07,1.88l.11.1c.52.5,1.07,1.01,1.66,1.53,2.1,1.82,5.15,3.91,10.11,3.91s7.79-1.94,9.88-3.72c-.51-.45-.99-.9-1.45-1.34l-.11-.11c-.61-.58-1.24-1.19-1.88-1.72-1.48,1.18-3.31,2.24-6.44,2.24Z"/><path class="cls-35" d="m51.31,244.44c5.12,0,8.27,2.15,10.44,4.03.66.57,1.26,1.14,1.79,1.64.75.72,1.38,1.31,2.04,1.85,1.44,1.17,3.2,2.26,6.28,2.26s4.84-1.09,6.28-2.26l.16-.13.16.13c.71.58,1.4,1.24,2.07,1.88l.11.1c.52.5,1.07,1.01,1.66,1.53l.22.19-.22.19c-2.17,1.88-5.32,4.03-10.44,4.03s-8.28-2.15-10.45-4.03c-.6-.52-1.14-1.04-1.67-1.54l-.11-.11c-.66-.63-1.35-1.29-2.04-1.85-1.44-1.17-3.2-2.26-6.28-2.26s-4.84,1.09-6.28,2.26l-.16.13-.16-.13c-.69-.56-1.35-1.19-2.05-1.86-.54-.52-1.14-1.08-1.78-1.64l-.22-.19.22-.19c2.17-1.88,5.32-4.03,10.44-4.03Zm20.56,10.3c-3.25,0-5.09-1.14-6.61-2.38-.67-.55-1.31-1.15-2.07-1.88-.53-.5-1.12-1.07-1.77-1.63-2.1-1.82-5.15-3.91-10.11-3.91s-7.79,1.94-9.89,3.72c.57.5,1.09,1,1.56,1.45.65.62,1.26,1.2,1.88,1.72,1.48-1.18,3.32-2.24,6.44-2.24s5.09,1.14,6.61,2.38c.71.58,1.4,1.24,2.07,1.88l.11.11c.52.5,1.06,1.01,1.65,1.52,2.1,1.82,5.15,3.91,10.11,3.91s7.79-1.94,9.88-3.72c-.51-.45-.99-.91-1.45-1.35l-.11-.1c-.61-.58-1.24-1.19-1.88-1.72-1.48,1.18-3.31,2.24-6.44,2.24Z"/><path class="cls-48" d="m160.49,252.36c.58.53,1.03,1.2,1.35,1.93.32.73.5,1.56.42,2.4-.04.42-.15.83-.32,1.22-.18.38-.42.73-.7,1.03-.57.59-1.28,1-2.04,1.21.6-.5,1.15-1.01,1.57-1.6.2-.3.37-.61.49-.93.12-.32.19-.66.23-1.01.07-.69-.03-1.41-.22-2.12-.19-.71-.47-1.42-.78-2.13Z"/><path class="cls-40" d="m152.08,259.3s-.88,2.26,2,4.18l-.87,1.48s-3.24-2.02-1.13-5.67Z"/><path class="cls-43" d="m155.08,253.4s-1.8-2.07-1.29-4.37c0,0,1,2.44,2.43,3.14l-1.15,1.23Z"/><path class="cls-35" d="m133.52,244.44c3.37,0,6.17.88,8.83,2.76,1.3.92,2.39,1.96,3.36,2.88l.04.04c.12.11.24.22.35.34l.16.16c1.84,1.74,3.47,3.1,6.12,3.5.15-.35.48-1.25.46-2.33-.02-.75.1-2.39.65-3.21l.35-.53.11.63s.29,1.46,2.13,3.2c.74-1.78.34-4.51.33-4.55l-.07-.44.42.17c3.76,1.52,4.14,4.49,4.17,5.04,1.39,1.94,1.85,3.72,1.37,5.29-.56,1.82-2.34,3.3-5.3,4.37-1.93.7-3.56,3.33-3.58,3.36l-.13.21-.22-.13c-2.76-1.62-2.03-4.55-1.7-5.5-3.92-.64-6.51-2.63-8.73-4.7-.25-.23-.49-.46-.73-.69l-.08-.07c-1.03-.98-2-1.9-3.05-2.6-1.57-1.05-3.2-1.51-5.28-1.51-3.08,0-4.84,1.09-6.28,2.26l-.16.13-.16-.13c-.69-.56-1.35-1.19-2.05-1.86-.54-.52-1.14-1.09-1.79-1.64l-.22-.19.22-.19c2.17-1.88,5.32-4.03,10.44-4.03Zm19.16,10.22l-.18-.02c-2.91-.38-4.63-1.82-6.59-3.66l-.16-.16c-.12-.11-.23-.22-.35-.33l-.04-.04c-.95-.91-2.03-1.93-3.3-2.83-2.57-1.82-5.28-2.66-8.54-2.66-4.78,0-7.79,1.94-9.89,3.72.57.5,1.09,1,1.56,1.45.66.62,1.26,1.2,1.88,1.72,1.49-1.18,3.32-2.24,6.44-2.24,2.18,0,3.9.49,5.56,1.6,1.09.72,2.07,1.66,3.11,2.65l.08.08c.24.22.48.45.73.69,2.22,2.07,4.82,4.06,8.77,4.62l.34.05-.14.31c-.06.14-1.47,3.28,1.16,5.03.45-.67,1.92-2.71,3.7-3.35,2.8-1.02,4.48-2.38,4.99-4.04.44-1.42-.01-3.07-1.34-4.9l-.05-.06v-.08c0-.12-.11-2.93-3.46-4.49.15,1.41.34,5.62-2.42,6.15l-.1-.5c.63-.12,1.08-.5,1.39-1.01-1.31-1.19-1.91-2.27-2.18-2.93-.24.74-.32,1.76-.31,2.36.03,1.53-.57,2.69-.59,2.74l-.08.16Z"/><g><path class="cls-1" d="m18.95,272.79v-18.83h.18c.14.73.35,1.43.64,2.09.46,1.05,1.1,2.02,1.93,2.88,2.13,2.23,5.32,3.51,8.97,3.61h.47s.09.01.09.01c2.07-.05,3.98-.4,5.78-1.06l4.02,4.02,4.02-4.02c1.94.72,4.01,1.07,6.26,1.07s4.32-.35,6.26-1.07l4.02,4.02,4.02-4.02c1.94.72,4,1.07,6.26,1.07s4.31-.35,6.25-1.07l4.02,4.02,4.02-4.02c1.94.72,4.01,1.07,6.26,1.07s4.31-.35,6.25-1.07l4.02,4.02,4.02-4.02c1.94.72,4.01,1.07,6.26,1.07s4.31-.35,6.25-1.07l4.02,4.02,4.02-4.02c1.94.72,4.01,1.07,6.26,1.07s4.17-.43,5.99-1.31l4.26,4.26,4.02-4.03c.2.07.39.14.59.21.03,2.08.88,4.34,3.35,5.79l2.45,1.43,1.51-2.41c.55-.89,1.6-2.03,2.22-2.26.32-.11.63-.23.93-.36v8.91H18.95Z"/><path class="cls-34" d="m18.75,254.04l.2-.04.18-.04.38-.07c.07.35.15.69.26,1.03.42,1.4,1.16,2.65,2.21,3.75,2.06,2.15,5.15,3.39,8.71,3.49h.53c2.04-.05,3.89-.39,5.66-1.04l.23-.08,3.92,3.92,3.92-3.92.24.09c1.9.7,3.9,1.04,6.12,1.04s4.22-.34,6.12-1.04l.24-.09,3.92,3.92,3.92-3.92.23.09c1.9.7,3.91,1.04,6.13,1.04s4.22-.34,6.12-1.04l.23-.09,3.92,3.92,3.92-3.92.23.09c1.9.7,3.91,1.04,6.13,1.04s4.22-.34,6.12-1.04l.23-.09,3.92,3.92,3.92-3.92.23.09c1.91.7,3.91,1.04,6.13,1.04s4.22-.34,6.12-1.04l.23-.09,3.92,3.92,3.92-3.92.24.09c1.9.7,3.9,1.04,6.12,1.04s4.05-.42,5.82-1.27l.25-.12,4.18,4.18,3.92-3.93.24.09c.18.07.38.14.57.2l.26.09v.27c.03,1.66.59,3.96,3.16,5.47l2.14,1.24,1.3-2.1c.5-.8,1.62-2.12,2.42-2.41.37-.13.72-.27,1.06-.42v.84c-.26.11-.52.21-.79.31-.48.17-1.47,1.19-2.03,2.09l-1.71,2.73-2.78-1.62c-2.17-1.27-3.41-3.34-3.53-5.84-.04,0-.07-.03-.11-.04l-4.12,4.13-4.34-4.34c-1.81.82-3.75,1.22-5.91,1.22s-4.24-.33-6.16-1l-4.12,4.12-4.12-4.12c-1.91.67-3.93,1-6.15,1s-4.24-.33-6.16-1l-4.12,4.12-4.12-4.12c-1.92.67-3.93,1-6.15,1s-4.24-.33-6.16-1l-4.12,4.12-4.12-4.12c-1.92.67-3.93,1-6.15,1s-4.24-.33-6.16-1l-4.12,4.12-4.12-4.12c-1.92.67-3.94,1-6.16,1s-4.24-.33-6.16-1l-4.12,4.12-4.12-4.13c-1.77.63-3.63.96-5.67,1h-.57c-3.76-.11-7.05-1.43-9.25-3.73-.67-.7-1.22-1.45-1.65-2.27-.35-.64-.62-1.32-.82-2.04-.08-.28-.15-.56-.2-.85Z"/></g></g><g><path class="cls-33" d="m158.84,278.32v-.76H14.81V57.98h-.76v220.34h144.79Zm17.06-43.66h.76V14.32H31.87v.76h144.03v219.58Z"/><path class="cls-33" d="m158.84,274.13v-1.53H19.77V57.98h-1.52v216.15h140.59Zm12.1-39.47h1.53V18.52H31.87v1.52h139.07v214.62Z"/></g></g></g></svg>